<svg width="923" height="113" viewBox="0 0 923 113" fill="none" xmlns="http://www.w3.org/2000/svg">
<path d="M852.637 113V3H872.637V13H882.637V33H892.637V53H902.637V3H922.637V113H902.637V103H892.637V83H882.637V63H872.637V113H852.637Z" fill="black"/>
<path d="M765.398 103V13H775.398V3H825.398V13H835.398V103H825.398V113H775.398V103H765.398ZM785.398 93H815.398V23H785.398V93Z" fill="black"/>
<path d="M678.158 103V13H688.158V3H738.158V13H748.158V103H738.158V113H688.158V103H678.158ZM698.158 93H728.158V23H698.158V93Z" fill="black"/>
<path d="M590.92 103V83H610.92V93H640.92V73H620.92V63H600.92V53H590.92V13H600.92V3H650.92V13H660.92V33H640.92V23H610.92V43H630.92V53H650.92V63H660.92V103H650.92V113H600.92V103H590.92Z" fill="black"/>
<path d="M446.441 103V13H456.441V3H506.441V13H516.441V33H496.441V23H466.441V93H496.441V63H476.441V43H516.441V103H506.441V113H456.441V103H446.441Z" fill="black"/>
<path d="M359.203 113V3H379.203V13H389.203V33H399.203V53H409.203V3H429.203V113H409.203V103H399.203V83H389.203V63H379.203V113H359.203Z" fill="black"/>
<path d="M301.963 93H311.963V23H301.963V3H341.963V23H331.963V93H341.963V113H301.963V93Z" fill="black"/>
<path d="M194.803 113V3H214.803V23H224.803V43H234.803V63H244.803V43H254.803V23H264.803V3H284.803V113H264.803V73H254.803V93H244.803V113H234.803V93H224.803V73H214.803V113H194.803Z" fill="black"/>
<path d="M107.562 103V13H117.562V3H167.562V13H177.562V103H167.562V113H117.562V103H107.562ZM127.562 93H157.562V23H127.562V93Z" fill="black"/>
<path d="M20.3242 103V13H30.3242V3H80.3242V13H90.3242V33H70.3242V23H40.3242V93H70.3242V83H90.3242V103H80.3242V113H30.3242V103H20.3242Z" fill="black"/>
<path d="M832.637 110V0H852.637V10H862.637V30H872.637V50H882.637V0H902.637V110H882.637V100H872.637V80H862.637V60H852.637V110H832.637Z" fill="url(#paint0_linear_1124_1298)"/>
<path d="M745.398 100V10H755.398V0H805.398V10H815.398V100H805.398V110H755.398V100H745.398ZM765.398 90H795.398V20H765.398V90Z" fill="url(#paint1_linear_1124_1298)"/>
<path d="M658.158 100V10H668.158V0H718.158V10H728.158V100H718.158V110H668.158V100H658.158ZM678.158 90H708.158V20H678.158V90Z" fill="url(#paint2_linear_1124_1298)"/>
<path d="M570.92 100V80H590.92V90H620.92V70H600.92V60H580.92V50H570.92V10H580.92V0H630.92V10H640.92V30H620.92V20H590.92V40H610.92V50H630.92V60H640.92V100H630.92V110H580.92V100H570.92Z" fill="url(#paint3_linear_1124_1298)"/>
<path d="M426.441 100V10H436.441V0H486.441V10H496.441V30H476.441V20H446.441V90H476.441V60H456.441V40H496.441V100H486.441V110H436.441V100H426.441Z" fill="url(#paint4_linear_1124_1298)"/>
<path d="M339.203 110V0H359.203V10H369.203V30H379.203V50H389.203V0H409.203V110H389.203V100H379.203V80H369.203V60H359.203V110H339.203Z" fill="url(#paint5_linear_1124_1298)"/>
<path d="M281.963 90H291.963V20H281.963V0H321.963V20H311.963V90H321.963V110H281.963V90Z" fill="url(#paint6_linear_1124_1298)"/>
<path d="M174.803 110V0H194.803V20H204.803V40H214.803V60H224.803V40H234.803V20H244.803V0H264.803V110H244.803V70H234.803V90H224.803V110H214.803V90H204.803V70H194.803V110H174.803Z" fill="url(#paint7_linear_1124_1298)"/>
<path d="M87.5625 100V10H97.5625V0H147.562V10H157.562V100H147.562V110H97.5625V100H87.5625ZM107.562 90H137.562V20H107.562V90Z" fill="url(#paint8_linear_1124_1298)"/>
<path d="M0.324219 100V10H10.3242V0H60.3242V10H70.3242V30H50.3242V20H20.3242V90H50.3242V80H70.3242V100H60.3242V110H10.3242V100H0.324219Z" fill="url(#paint9_linear_1124_1298)"/>
<defs>
<linearGradient id="paint0_linear_1124_1298" x1="931.5" y1="-111.5" x2="931.5" y2="150" gradientUnits="userSpaceOnUse">
<stop offset="0.488092" stop-color="white"/>
<stop offset="1" stop-color="#0000FF"/>
</linearGradient>
<linearGradient id="paint1_linear_1124_1298" x1="931.501" y1="-111.5" x2="931.501" y2="150" gradientUnits="userSpaceOnUse">
<stop offset="0.488092" stop-color="white"/>
<stop offset="1" stop-color="#0000FF"/>
</linearGradient>
<linearGradient id="paint2_linear_1124_1298" x1="931.5" y1="-111.5" x2="931.5" y2="150" gradientUnits="userSpaceOnUse">
<stop offset="0.488092" stop-color="white"/>
<stop offset="1" stop-color="#0000FF"/>
</linearGradient>
<linearGradient id="paint3_linear_1124_1298" x1="931.5" y1="-111.5" x2="931.5" y2="150" gradientUnits="userSpaceOnUse">
<stop offset="0.488092" stop-color="white"/>
<stop offset="1" stop-color="#0000FF"/>
</linearGradient>
<linearGradient id="paint4_linear_1124_1298" x1="931.5" y1="-111.5" x2="931.5" y2="150" gradientUnits="userSpaceOnUse">
<stop offset="0.488092" stop-color="white"/>
<stop offset="1" stop-color="#0000FF"/>
</linearGradient>
<linearGradient id="paint5_linear_1124_1298" x1="931.501" y1="-111.5" x2="931.501" y2="150" gradientUnits="userSpaceOnUse">
<stop offset="0.488092" stop-color="white"/>
<stop offset="1" stop-color="#0000FF"/>
</linearGradient>
<linearGradient id="paint6_linear_1124_1298" x1="931.5" y1="-111.5" x2="931.5" y2="150" gradientUnits="userSpaceOnUse">
<stop offset="0.488092" stop-color="white"/>
<stop offset="1" stop-color="#0000FF"/>
</linearGradient>
<linearGradient id="paint7_linear_1124_1298" x1="931.5" y1="-111.5" x2="931.5" y2="150" gradientUnits="userSpaceOnUse">
<stop offset="0.488092" stop-color="white"/>
<stop offset="1" stop-color="#0000FF"/>
</linearGradient>
<linearGradient id="paint8_linear_1124_1298" x1="931.499" y1="-111.5" x2="931.499" y2="150" gradientUnits="userSpaceOnUse">
<stop offset="0.488092" stop-color="white"/>
<stop offset="1" stop-color="#0000FF"/>
</linearGradient>
<linearGradient id="paint9_linear_1124_1298" x1="931.5" y1="-111.5" x2="931.5" y2="150" gradientUnits="userSpaceOnUse">
<stop offset="0.488092" stop-color="white"/>
<stop offset="1" stop-color="#0000FF"/>
</linearGradient>
</defs>
</svg>
