<svg width="56" height="32" viewBox="0 0 56 32" fill="none" xmlns="http://www.w3.org/2000/svg">
<rect x="4" width="48" height="32" fill="white"/>
<rect y="4" width="56" height="24" fill="white"/>
<rect x="10.5" y="22.5" width="3" height="3" fill="black" stroke="black"/>
<rect x="11.5" y="18.5" width="3" height="3" fill="black" stroke="black"/>
<rect x="15.5" y="18.5" width="3" height="3" fill="black" stroke="black"/>
<rect x="7.5" y="18.5" width="3" height="3" fill="black" stroke="black"/>
<rect x="19.5" y="14.5" width="3" height="3" fill="black" stroke="black"/>
<rect x="11.5" y="14.5" width="3" height="3" fill="black" stroke="black"/>
<rect x="19.5" y="18.5" width="3" height="3" fill="black" stroke="black"/>
<rect x="23.5" y="18.5" width="3" height="3" fill="black" stroke="black"/>
<rect x="18.5" y="22.5" width="3" height="3" fill="black" stroke="black"/>
<rect x="16.5" y="10.5" width="3" height="3" fill="black" stroke="black"/>
<rect x="12.5" y="6.5" width="3" height="3" fill="black" stroke="black"/>
<rect x="12.5" y="10.5" width="3" height="3" fill="black" stroke="black"/>
<rect x="8.5" y="10.5" width="3" height="3" fill="black" stroke="black"/>
<rect x="20.5" y="10.5" width="3" height="3" fill="black" stroke="black"/>
<rect x="24.5" y="10.5" width="3" height="3" fill="black" stroke="black"/>
<rect x="20.5" y="6.5" width="3" height="3" fill="black" stroke="black"/>
<rect x="36.5" y="6.5" width="3" height="3" fill="black" stroke="black"/>
<rect x="40.5" y="6.5" width="3" height="3" fill="black" stroke="black"/>
<rect x="44.5" y="10.5" width="3" height="3" fill="black" stroke="black"/>
<rect x="40.5" y="14.5" width="3" height="3" fill="black" stroke="black"/>
<rect x="36.5" y="18.5" width="3" height="3" fill="black" stroke="black"/>
<rect x="36.5" y="22.5" width="3" height="3" fill="black" stroke="black"/>
<rect x="32.5" y="22.5" width="3" height="3" fill="black" stroke="black"/>
<rect x="40.5" y="22.5" width="3" height="3" fill="black" stroke="black"/>
<rect x="44.5" y="22.5" width="3" height="3" fill="black" stroke="black"/>
<rect x="32.5" y="10.5" width="3" height="3" fill="black" stroke="black"/>
</svg>
