<svg width="386" height="82" viewBox="0 0 386 82" fill="none" xmlns="http://www.w3.org/2000/svg">
<rect x="3.5" y="3.5" width="379" height="75" stroke="#666666" stroke-width="7"/>
<path d="M76 17H80V41H76V33H68V29H76V25H68V21H76V17ZM40 41V37H52V41H40ZM40 21V17H64V29H60V21H40ZM76 57V61H48V57H76ZM76 45V49H48V45H76ZM76 49H80V57H76V49ZM48 57H44V49H48V57ZM56 33V37H52V33H56ZM56 29H60V33H56V29ZM87.52 41V37H131.52V41H111.52V45H127.52V61H91.52V45H107.52V41H87.52ZM123.52 57V49H95.52V57H123.52ZM103.52 21V29H115.52V21H103.52ZM91.52 17H127.52V21H119.52V29H127.52V33H91.52V29H99.52V21H91.52V17ZM190.576 17V21H162.576V17H190.576ZM154.576 41V37H198.576V41H154.576ZM190.576 57V61H162.576V57H190.576ZM190.576 45V49H162.576V45H190.576ZM190.576 49H194.576V57H190.576V49ZM190.576 33H162.576V29H190.576V33ZM190.576 21H194.576V29H190.576V21ZM162.576 57H158.576V49H162.576V57ZM162.576 21V29H158.576V21H162.576ZM202.096 57V53H222.096V45H206.096V17H242.096V45H226.096V53H246.096V57H202.096ZM238.096 41V21H210.096V41H238.096ZM285.616 17H289.616V37H293.616V41H289.616V61H285.616V17ZM249.616 29V25H281.616V29H249.616ZM257.616 53H253.616V37H257.616V53ZM257.616 57V53H273.616V57H257.616ZM257.616 37V33H273.616V37H257.616ZM257.616 21V17H273.616V21H257.616ZM273.616 53V37H277.616V53H273.616ZM333.136 17H337.136V61H333.136V17ZM297.136 57V53H305.136V57H297.136ZM297.136 21V17H321.136V37H317.136V21H297.136ZM305.136 53V49H309.136V53H305.136ZM309.136 49V45H313.136V49H309.136ZM313.136 45V37H317.136V45H313.136Z" fill="#666666"/>
</svg>
