<svg width="274" height="80" viewBox="0 0 274 80" fill="none" xmlns="http://www.w3.org/2000/svg">
<rect y="8" width="274" height="72" rx="14" fill="#1C1A1B"/>
<path d="M51.1602 33.6667H52.8268V37H54.4935V38.6667H52.8268V42H51.1602V33.6667ZM36.1602 42V33.6667H37.8268V35.3333H39.4935V33.6667H41.1602V42H36.1602ZM51.1602 47V45.3333H37.8268V43.6667H52.8268V48.6667H39.4935V50.3333H52.8268V52H37.8268V47H51.1602ZM39.4935 40.3333V37H37.8268V40.3333H39.4935ZM42.8268 42V33.6667H44.4935V35.3333H46.1602V33.6667H47.8268V42H42.8268ZM46.1602 40.3333V37H44.4935V40.3333H46.1602ZM71.1602 33.6667H72.8268V52H71.1602V33.6667ZM56.1602 50.3333V40.3333H64.4935V35.3333H56.1602V33.6667H66.1602V42H57.8268V48.6667H67.8268V50.3333H56.1602ZM91.1602 33.6667H92.8268V37H94.4935V38.6667H92.8268V42H91.1602V33.6667ZM76.1602 42V33.6667H77.8268V35.3333H79.4935V33.6667H81.1602V42H76.1602ZM91.1602 47V45.3333H77.8268V43.6667H92.8268V48.6667L79.4935 48.6667V50.3333L92.8268 50.3333V52L77.8268 52V47L91.1602 47ZM79.4935 40.3333V37H77.8268V40.3333H79.4935ZM82.8268 42V33.6667H84.4935V35.3333H86.1602V33.6667H87.8268V42H82.8268ZM86.1602 40.3333V37H84.4935V40.3333H86.1602ZM111.16 33.6667H112.827V52H111.16V33.6667ZM96.1602 50.3333V40.3333H104.493V35.3333H96.1602V33.6667H106.16V42H97.8268V48.6667H107.827V50.3333H96.1602ZM139.5 33.6667H141.167V52H139.5V42H136.167V40.3333H139.5V33.6667ZM124.5 50.3333V48.6667H126.167V50.3333H124.5ZM127.833 48.6667H126.167V45.3333H127.833V48.6667ZM127.833 45.3333V42H129.5V45.3333H127.833ZM131.167 45.3333V42H132.833V45.3333H131.167ZM131.167 42H129.5V33.6667H131.167V42ZM134.5 48.6667H132.833V45.3333H134.5V48.6667ZM134.5 50.3333V48.6667H136.167V50.3333H134.5ZM146.167 33.6667H161.167V35.3333H147.833V40.3333H161.167V42H146.167V33.6667ZM144.5 45.3333V43.6667H162.833V45.3333H154.5V52H152.833V45.3333H144.5ZM164.5 50.3333V48.6667H182.833V50.3333H164.5ZM166.167 33.6667H181.167V40.3333H167.833V43.6667H181.167V45.3333H166.167V38.6667H179.5V35.3333H166.167V33.6667ZM199.5 33.6667H201.167V42H202.833V43.6667H201.167V52H199.5V33.6667ZM184.5 50.3333V40.3333L192.833 40.3333V35.3333L184.5 35.3333V33.6667H194.5V42L186.167 42V48.6667L196.167 48.6667V50.3333L184.5 50.3333ZM206.167 33.6667H221.167V40.3333H219.5V35.3333H206.167V33.6667ZM204.5 43.6667V42H217.833V40.3333H219.5V42H222.833V43.6667H214.5V52H212.833V43.6667H204.5ZM224.5 43.6667V42H226.167V43.6667H224.5ZM226.167 42V40.3333H229.5V42H226.167ZM229.5 43.6667V42H231.167V43.6667H229.5ZM231.167 43.6667L234.5 43.6667V45.3333L231.167 45.3333V43.6667ZM234.5 43.6667V42H236.167V43.6667H234.5Z" fill="white"/>
<path d="M135.754 1.10919C136.039 0.616218 136.75 0.616218 137.035 1.10919L142.158 9.98276C142.443 10.4757 142.087 11.092 141.518 11.092L131.271 11.092C130.702 11.092 130.346 10.4757 130.631 9.98276L135.754 1.10919Z" fill="#1C1A1B"/>
</svg>
