<svg width="20" height="20" viewBox="0 0 20 20" fill="none" xmlns="http://www.w3.org/2000/svg">
<rect width="20" height="20" rx="10" fill="#444444"/>
<path d="M8.88053 11.6381C8.85253 11.5541 8.82453 11.4608 8.79653 11.3581C8.77786 11.2461 8.76853 11.1388 8.76853 11.0361C8.76853 10.6908 8.8432 10.3921 8.99253 10.1401C9.14186 9.87876 9.38453 9.62676 9.72053 9.38409L10.3505 8.92209C10.5652 8.76342 10.7379 8.60009 10.8685 8.43209C11.0085 8.25476 11.0785 8.05876 11.0785 7.84409C11.0785 7.54542 10.9665 7.29809 10.7425 7.10209C10.5279 6.89676 10.2432 6.79409 9.88853 6.79409C9.53386 6.79409 9.23986 6.89209 9.00653 7.08809C8.78253 7.28409 8.6332 7.55476 8.55853 7.90009L7.14453 7.25609C7.22853 6.97609 7.3452 6.71009 7.49453 6.45809C7.64386 6.20609 7.8352 5.98209 8.06853 5.78609C8.30186 5.59009 8.5772 5.43609 8.89453 5.32409C9.2212 5.20276 9.58986 5.14209 10.0005 5.14209C10.4205 5.14209 10.8032 5.21209 11.1485 5.35209C11.5032 5.48276 11.8065 5.66476 12.0585 5.89809C12.3105 6.12209 12.5065 6.39276 12.6465 6.71009C12.7865 7.02742 12.8565 7.36809 12.8565 7.73209C12.8565 8.02142 12.8192 8.28276 12.7445 8.51609C12.6792 8.74009 12.5859 8.94542 12.4645 9.13209C12.3525 9.30942 12.2219 9.46809 12.0725 9.60809C11.9325 9.74809 11.7879 9.87409 11.6385 9.98609L11.0085 10.4481C10.7939 10.6068 10.6399 10.7608 10.5465 10.9101C10.4625 11.0594 10.4205 11.2554 10.4205 11.4981V11.6381H8.88053ZM8.60053 12.7161H10.7565V14.8581H8.60053V12.7161Z" fill="white"/>
</svg>
