<svg width="127" height="25" viewBox="0 0 127 25" fill="none" xmlns="http://www.w3.org/2000/svg">
<path d="M11.612 24.4113C9.95682 24.4113 8.42303 24.1129 7.01062 23.5161C5.62027 22.9192 4.41751 22.1013 3.40234 21.0624C2.38717 20.0234 1.59269 18.7855 1.01889 17.3487C0.4451 15.9119 0.158203 14.3534 0.158203 12.6734C0.158203 10.9934 0.4451 9.43502 1.01889 7.99818C1.59269 6.56134 2.38717 5.32344 3.40234 4.28449C4.41751 3.24555 5.62027 2.42765 7.01062 1.83081C8.42303 1.23397 9.95682 0.935547 11.612 0.935547C13.9513 0.935547 15.9706 1.44397 17.6699 2.46081C19.3692 3.45555 20.7154 4.79292 21.7085 6.47292L18.4975 8.86028C17.7913 7.6666 16.8975 6.71607 15.8161 6.00871C14.7348 5.30134 13.3665 4.94765 11.7113 4.94765C10.6079 4.94765 9.61475 5.1466 8.732 5.5445C7.87131 5.94239 7.132 6.48397 6.51407 7.16923C5.89613 7.85449 5.42165 8.67239 5.09062 9.62292C4.75958 10.5734 4.59407 11.5903 4.59407 12.6734C4.59407 13.7787 4.75958 14.8066 5.09062 15.7571C5.42165 16.6855 5.89613 17.4924 6.51407 18.1777C7.132 18.8629 7.87131 19.4045 8.732 19.8024C9.61475 20.2003 10.6079 20.3992 11.7113 20.3992C13.3665 20.3992 14.7348 20.0455 15.8161 19.3382C16.8975 18.6308 17.7913 17.6803 18.4975 16.4866L21.7085 18.874C20.7154 20.554 19.3692 21.9024 17.6699 22.9192C15.9706 23.914 13.9513 24.4113 11.612 24.4113ZM30.8532 1.39976H35.918L44.6904 23.9471H40.2214L38.4007 19.1724H28.3704L26.5497 23.9471H22.0807L30.8532 1.39976ZM29.7938 15.4255H36.9442L33.369 6.00871L29.7938 15.4255ZM54.4509 24.4113C53.1489 24.4113 51.9903 24.2566 50.9751 23.9471C49.9599 23.6377 49.0551 23.2398 48.2606 22.7534C47.4882 22.2671 46.8151 21.7255 46.2413 21.1287C45.6896 20.5098 45.2151 19.9019 44.8178 19.305L47.6316 16.5529C47.9627 17.0613 48.3378 17.5587 48.7572 18.045C49.1985 18.5092 49.7061 18.9292 50.2799 19.305C50.8537 19.6808 51.4827 19.9792 52.1668 20.2003C52.873 20.4213 53.6565 20.5319 54.5172 20.5319C55.9075 20.5319 56.9558 20.2334 57.662 19.6366C58.3903 19.0177 58.7544 18.2661 58.7544 17.3819C58.7544 16.6745 58.4785 16.0666 57.9268 15.5582C57.3751 15.0277 56.4372 14.6629 55.113 14.464L53.1599 14.1655C52.1668 14.0108 51.262 13.7566 50.4454 13.4029C49.6289 13.0492 48.9227 12.6071 48.3268 12.0766C47.753 11.524 47.3006 10.894 46.9696 10.1866C46.6606 9.45713 46.5061 8.66134 46.5061 7.79923C46.5061 6.84871 46.6937 5.95344 47.0689 5.11344C47.4441 4.27344 47.9847 3.54397 48.6909 2.92502C49.3972 2.30607 50.2468 1.81976 51.2399 1.46607C52.2551 1.11239 53.3916 0.935547 54.6496 0.935547C56.393 0.935547 57.9489 1.27818 59.3172 1.96344C60.6854 2.6487 61.7778 3.52186 62.5944 4.58292L59.8468 7.4345C59.1406 6.57239 58.3351 5.92028 57.4303 5.47818C56.5254 5.03607 55.5654 4.81502 54.5503 4.81502C53.4247 4.81502 52.542 5.06923 51.902 5.57765C51.284 6.08607 50.9751 6.68292 50.9751 7.36818C50.9751 8.03134 51.2178 8.59502 51.7034 9.05923C52.1889 9.50134 52.9282 9.79976 53.9213 9.95449L55.8413 10.2529C58.1806 10.6066 59.9903 11.3582 61.2703 12.5077C62.5503 13.635 63.1903 15.1603 63.1903 17.0834C63.1903 18.1666 62.9806 19.1613 62.5613 20.0677C62.142 20.9519 61.5461 21.7255 60.7737 22.3887C60.0013 23.0298 59.0744 23.5271 57.993 23.8808C56.9337 24.2345 55.753 24.4113 54.4509 24.4113ZM66.7186 1.39976H75.5904C76.7821 1.39976 77.8635 1.54344 78.8345 1.83081C79.8276 2.11818 80.6773 2.54923 81.3835 3.12397C82.1117 3.6987 82.6635 4.43923 83.0386 5.34555C83.4359 6.22976 83.6345 7.2687 83.6345 8.46239C83.6345 9.65607 83.4359 10.7061 83.0386 11.6124C82.6635 12.4966 82.1117 13.2261 81.3835 13.8008C80.6773 14.3755 79.8276 14.8066 78.8345 15.094C77.8635 15.3813 76.7821 15.525 75.5904 15.525H71.0221V23.9471H66.7186V1.39976ZM75.0607 11.745C76.3407 11.745 77.3448 11.5019 78.0731 11.0155C78.8235 10.5292 79.1986 9.67818 79.1986 8.46239C79.1986 7.2466 78.8235 6.39555 78.0731 5.90923C77.3448 5.42292 76.3407 5.17976 75.0607 5.17976H71.0221V11.745H75.0607ZM86.891 1.39976H102.714V5.17976H91.1944V10.684H101.125V14.4308H91.1944V20.1671H102.714V23.9471H86.891V1.39976ZM114.425 14.8287H110.85V23.9471H106.546V1.39976H116.543C117.625 1.39976 118.618 1.55449 119.523 1.86397C120.45 2.17344 121.244 2.6266 121.906 3.22344C122.568 3.79818 123.076 4.50555 123.429 5.34555C123.804 6.16344 123.992 7.09186 123.992 8.13081C123.992 9.7887 123.539 11.1703 122.634 12.2755C121.752 13.3808 120.56 14.1324 119.059 14.5303L126.342 23.8477V23.9471H121.178L114.425 14.8287ZM116.08 11.0819C117.227 11.0819 118.088 10.8277 118.662 10.3192C119.258 9.7887 119.556 9.05923 119.556 8.13081C119.556 7.20239 119.258 6.48397 118.662 5.97555C118.088 5.44502 117.227 5.17976 116.08 5.17976H110.85V11.0819H116.08Z" fill="white"/>
</svg>
