<svg width="844" height="276" viewBox="0 0 844 276" fill="none" xmlns="http://www.w3.org/2000/svg">
<path d="M9.61276 63.1642L6.35156 61.4477V21.2836V10.4701H9.61276V6.694L17.5083 4.29102H115.516L126.329 12.1865L128.217 59.5597L116.717 68.485H11.6725L9.61276 63.1642Z" fill="black" stroke="white" stroke-width="0.343284"/>
<rect x="20.5977" y="4.11914" width="4.1194" height="4.1194" fill="white"/>
<rect x="20.5977" width="4.1194" height="4.1194" fill="white"/>
<rect x="20.5977" y="65.9102" width="4.1194" height="4.1194" fill="white"/>
<rect x="20.5977" y="57.6719" width="4.1194" height="4.1194" fill="white"/>
<rect x="20.5977" y="70.0303" width="4.1194" height="4.1194" fill="white"/>
<rect x="24.7148" y="4.11914" width="4.1194" height="4.1194" fill="white"/>
<rect x="24.7148" width="4.1194" height="4.1194" fill="white"/>
<rect x="24.7148" y="65.9102" width="4.1194" height="4.1194" fill="white"/>
<rect x="24.7148" y="57.6719" width="4.1194" height="4.1194" fill="white"/>
<rect x="24.7148" y="70.0303" width="4.1194" height="4.1194" fill="white"/>
<rect x="4.12109" y="8.23926" width="4.1194" height="4.1194" fill="white"/>
<rect x="123.582" y="8.23926" width="4.1194" height="4.1194" fill="white"/>
<rect x="4.12109" y="12.3584" width="4.1194" height="4.1194" fill="white"/>
<rect y="12.3584" width="4.1194" height="4.1194" fill="white"/>
<rect x="127.703" y="12.3584" width="4.1194" height="4.1194" fill="white"/>
<rect x="123.582" y="12.3584" width="4.1194" height="4.1194" fill="white"/>
<rect x="4.12109" y="16.4775" width="4.1194" height="4.1194" fill="white"/>
<rect y="16.4775" width="4.1194" height="4.1194" fill="white"/>
<rect x="127.703" y="16.4775" width="4.1194" height="4.1194" fill="white"/>
<rect x="123.582" y="16.4775" width="4.1194" height="4.1194" fill="white"/>
<rect x="4.12109" y="20.5967" width="4.1194" height="4.1194" fill="white"/>
<rect y="20.5967" width="4.1194" height="4.1194" fill="white"/>
<rect x="127.703" y="20.5967" width="4.1194" height="4.1194" fill="white"/>
<rect x="123.582" y="20.5967" width="4.1194" height="4.1194" fill="white"/>
<rect x="4.12109" y="24.7168" width="4.1194" height="4.1194" fill="white"/>
<rect y="24.7168" width="4.1194" height="4.1194" fill="white"/>
<rect x="127.703" y="24.7168" width="4.1194" height="4.1194" fill="white"/>
<rect x="63.8516" y="74.1494" width="4.1194" height="4.1194" fill="white"/>
<rect x="63.8516" y="98.8652" width="4.1194" height="4.1194" fill="white"/>
<rect x="63.8516" y="123.582" width="4.1194" height="4.1194" fill="white"/>
<rect x="63.8516" y="148.299" width="4.1194" height="4.1194" fill="white"/>
<rect x="63.8516" y="173.015" width="4.1194" height="4.1194" fill="white"/>
<rect x="63.8516" y="197.731" width="4.1194" height="4.1194" fill="white"/>
<rect x="63.8516" y="222.447" width="4.1194" height="4.1194" fill="white"/>
<rect x="63.8516" y="247.164" width="4.1194" height="4.1194" fill="white"/>
<rect x="63.8516" y="271.881" width="4.1194" height="4.1194" fill="white"/>
<rect x="123.582" y="24.7168" width="4.1194" height="4.1194" fill="white"/>
<rect x="59.7305" y="74.1494" width="4.1194" height="4.1194" fill="white"/>
<rect x="59.7305" y="98.8652" width="4.1194" height="4.1194" fill="white"/>
<rect x="59.7305" y="123.582" width="4.1194" height="4.1194" fill="white"/>
<rect x="59.7305" y="148.299" width="4.1194" height="4.1194" fill="white"/>
<rect x="59.7305" y="173.015" width="4.1194" height="4.1194" fill="white"/>
<rect x="59.7305" y="197.731" width="4.1194" height="4.1194" fill="white"/>
<rect x="59.7305" y="222.447" width="4.1194" height="4.1194" fill="white"/>
<rect x="59.7305" y="247.164" width="4.1194" height="4.1194" fill="white"/>
<rect x="59.7305" y="271.881" width="4.1194" height="4.1194" fill="white"/>
<rect x="4.12109" y="28.8359" width="4.1194" height="4.1194" fill="white"/>
<rect y="28.8359" width="4.1194" height="4.1194" fill="white"/>
<rect x="127.703" y="28.8359" width="4.1194" height="4.1194" fill="white"/>
<rect x="63.8516" y="78.2686" width="4.1194" height="4.1194" fill="white"/>
<rect x="63.8516" y="102.985" width="4.1194" height="4.1194" fill="white"/>
<rect x="63.8516" y="127.701" width="4.1194" height="4.1194" fill="white"/>
<rect x="63.8516" y="152.418" width="4.1194" height="4.1194" fill="white"/>
<rect x="63.8516" y="177.135" width="4.1194" height="4.1194" fill="white"/>
<rect x="63.8516" y="201.851" width="4.1194" height="4.1194" fill="white"/>
<rect x="63.8516" y="226.567" width="4.1194" height="4.1194" fill="white"/>
<rect x="63.8516" y="251.283" width="4.1194" height="4.1194" fill="white"/>
<rect x="123.582" y="28.8359" width="4.1194" height="4.1194" fill="white"/>
<rect x="59.7305" y="78.2686" width="4.1194" height="4.1194" fill="white"/>
<rect x="59.7305" y="102.985" width="4.1194" height="4.1194" fill="white"/>
<rect x="59.7305" y="127.701" width="4.1194" height="4.1194" fill="white"/>
<rect x="59.7305" y="152.418" width="4.1194" height="4.1194" fill="white"/>
<rect x="59.7305" y="177.135" width="4.1194" height="4.1194" fill="white"/>
<rect x="59.7305" y="201.851" width="4.1194" height="4.1194" fill="white"/>
<rect x="59.7305" y="226.567" width="4.1194" height="4.1194" fill="white"/>
<rect x="59.7305" y="251.283" width="4.1194" height="4.1194" fill="white"/>
<rect x="4.12109" y="32.9551" width="4.1194" height="4.1194" fill="white"/>
<rect y="32.9551" width="4.1194" height="4.1194" fill="white"/>
<rect x="127.703" y="32.9551" width="4.1194" height="4.1194" fill="white"/>
<rect x="63.8516" y="82.3877" width="4.1194" height="4.1194" fill="white"/>
<rect x="63.8516" y="107.104" width="4.1194" height="4.1194" fill="white"/>
<rect x="63.8516" y="131.821" width="4.1194" height="4.1194" fill="white"/>
<rect x="63.8516" y="156.537" width="4.1194" height="4.1194" fill="white"/>
<rect x="63.8516" y="181.254" width="4.1194" height="4.1194" fill="white"/>
<rect x="63.8516" y="205.97" width="4.1194" height="4.1194" fill="white"/>
<rect x="63.8516" y="230.687" width="4.1194" height="4.1194" fill="white"/>
<rect x="63.8516" y="255.403" width="4.1194" height="4.1194" fill="white"/>
<rect x="123.582" y="32.9551" width="4.1194" height="4.1194" fill="white"/>
<rect x="59.7305" y="82.3877" width="4.1194" height="4.1194" fill="white"/>
<rect x="59.7305" y="107.104" width="4.1194" height="4.1194" fill="white"/>
<rect x="59.7305" y="131.821" width="4.1194" height="4.1194" fill="white"/>
<rect x="59.7305" y="156.537" width="4.1194" height="4.1194" fill="white"/>
<rect x="59.7305" y="181.254" width="4.1194" height="4.1194" fill="white"/>
<rect x="59.7305" y="205.97" width="4.1194" height="4.1194" fill="white"/>
<rect x="59.7305" y="230.687" width="4.1194" height="4.1194" fill="white"/>
<rect x="59.7305" y="255.403" width="4.1194" height="4.1194" fill="white"/>
<rect x="4.12109" y="37.0742" width="4.1194" height="4.1194" fill="white"/>
<rect y="37.0742" width="4.1194" height="4.1194" fill="white"/>
<rect x="127.703" y="37.0742" width="4.1194" height="4.1194" fill="white"/>
<rect x="63.8516" y="86.5078" width="4.1194" height="4.1194" fill="white"/>
<rect x="63.8516" y="111.224" width="4.1194" height="4.1194" fill="white"/>
<rect x="63.8516" y="135.94" width="4.1194" height="4.1194" fill="white"/>
<rect x="63.8516" y="160.656" width="4.1194" height="4.1194" fill="white"/>
<rect x="63.8516" y="185.373" width="4.1194" height="4.1194" fill="white"/>
<rect x="63.8516" y="210.09" width="4.1194" height="4.1194" fill="white"/>
<rect x="63.8516" y="234.806" width="4.1194" height="4.1194" fill="white"/>
<rect x="63.8516" y="259.522" width="4.1194" height="4.1194" fill="white"/>
<rect x="123.582" y="37.0742" width="4.1194" height="4.1194" fill="white"/>
<rect x="59.7305" y="86.5078" width="4.1194" height="4.1194" fill="white"/>
<rect x="59.7305" y="111.224" width="4.1194" height="4.1194" fill="white"/>
<rect x="59.7305" y="135.94" width="4.1194" height="4.1194" fill="white"/>
<rect x="59.7305" y="160.656" width="4.1194" height="4.1194" fill="white"/>
<rect x="59.7305" y="185.373" width="4.1194" height="4.1194" fill="white"/>
<rect x="59.7305" y="210.09" width="4.1194" height="4.1194" fill="white"/>
<rect x="59.7305" y="234.806" width="4.1194" height="4.1194" fill="white"/>
<rect x="59.7305" y="259.522" width="4.1194" height="4.1194" fill="white"/>
<rect x="4.12109" y="41.1943" width="4.1194" height="4.1194" fill="white"/>
<rect y="41.1943" width="4.1194" height="4.1194" fill="white"/>
<rect x="127.703" y="41.1943" width="4.1194" height="4.1194" fill="white"/>
<rect x="63.8516" y="90.627" width="4.1194" height="4.1194" fill="white"/>
<rect x="63.8516" y="115.344" width="4.1194" height="4.1194" fill="white"/>
<rect x="63.8516" y="140.06" width="4.1194" height="4.1194" fill="white"/>
<rect x="63.8516" y="164.776" width="4.1194" height="4.1194" fill="white"/>
<rect x="63.8516" y="189.492" width="4.1194" height="4.1194" fill="white"/>
<rect x="63.8516" y="214.209" width="4.1194" height="4.1194" fill="white"/>
<rect x="63.8516" y="238.926" width="4.1194" height="4.1194" fill="white"/>
<rect x="63.8516" y="263.642" width="4.1194" height="4.1194" fill="white"/>
<rect x="123.582" y="41.1943" width="4.1194" height="4.1194" fill="white"/>
<rect x="59.7305" y="90.627" width="4.1194" height="4.1194" fill="white"/>
<rect x="59.7305" y="115.344" width="4.1194" height="4.1194" fill="white"/>
<rect x="59.7305" y="140.06" width="4.1194" height="4.1194" fill="white"/>
<rect x="59.7305" y="164.776" width="4.1194" height="4.1194" fill="white"/>
<rect x="59.7305" y="189.492" width="4.1194" height="4.1194" fill="white"/>
<rect x="59.7305" y="214.209" width="4.1194" height="4.1194" fill="white"/>
<rect x="59.7305" y="238.926" width="4.1194" height="4.1194" fill="white"/>
<rect x="59.7305" y="263.642" width="4.1194" height="4.1194" fill="white"/>
<rect x="4.12109" y="45.3135" width="4.1194" height="4.1194" fill="white"/>
<rect y="45.3135" width="4.1194" height="4.1194" fill="white"/>
<rect x="127.703" y="45.3135" width="4.1194" height="4.1194" fill="white"/>
<rect x="63.8516" y="94.7461" width="4.1194" height="4.1194" fill="white"/>
<rect x="63.8516" y="119.463" width="4.1194" height="4.1194" fill="white"/>
<rect x="63.8516" y="144.179" width="4.1194" height="4.1194" fill="white"/>
<rect x="63.8516" y="168.896" width="4.1194" height="4.1194" fill="white"/>
<rect x="63.8516" y="193.612" width="4.1194" height="4.1194" fill="white"/>
<rect x="63.8516" y="218.328" width="4.1194" height="4.1194" fill="white"/>
<rect x="63.8516" y="243.045" width="4.1194" height="4.1194" fill="white"/>
<rect x="63.8516" y="267.761" width="4.1194" height="4.1194" fill="white"/>
<rect x="123.582" y="45.3135" width="4.1194" height="4.1194" fill="white"/>
<rect x="59.7305" y="94.7461" width="4.1194" height="4.1194" fill="white"/>
<rect x="59.7305" y="119.463" width="4.1194" height="4.1194" fill="white"/>
<rect x="59.7305" y="144.179" width="4.1194" height="4.1194" fill="white"/>
<rect x="59.7305" y="168.896" width="4.1194" height="4.1194" fill="white"/>
<rect x="59.7305" y="193.612" width="4.1194" height="4.1194" fill="white"/>
<rect x="59.7305" y="218.328" width="4.1194" height="4.1194" fill="white"/>
<rect x="59.7305" y="243.045" width="4.1194" height="4.1194" fill="white"/>
<rect x="59.7305" y="267.761" width="4.1194" height="4.1194" fill="white"/>
<rect x="4.12109" y="49.4326" width="4.1194" height="4.1194" fill="white"/>
<rect y="49.4326" width="4.1194" height="4.1194" fill="white"/>
<rect x="127.703" y="49.4326" width="4.1194" height="4.1194" fill="white"/>
<rect x="123.582" y="49.4326" width="4.1194" height="4.1194" fill="white"/>
<rect x="4.12109" y="53.5518" width="4.1194" height="4.1194" fill="white"/>
<rect y="53.5518" width="4.1194" height="4.1194" fill="white"/>
<rect x="127.703" y="53.5518" width="4.1194" height="4.1194" fill="white"/>
<rect x="123.582" y="53.5518" width="4.1194" height="4.1194" fill="white"/>
<rect x="4.12109" y="57.6719" width="4.1194" height="4.1194" fill="white"/>
<rect y="57.6719" width="4.1194" height="4.1194" fill="white"/>
<rect x="127.703" y="57.6719" width="4.1194" height="4.1194" fill="white"/>
<rect x="123.582" y="57.6719" width="4.1194" height="4.1194" fill="white"/>
<rect x="4.12109" y="57.6719" width="4.1194" height="4.1194" fill="white"/>
<rect y="57.6719" width="4.1194" height="4.1194" fill="white"/>
<rect x="127.703" y="57.6719" width="4.1194" height="4.1194" fill="white"/>
<rect x="123.582" y="57.6719" width="4.1194" height="4.1194" fill="white"/>
<rect x="4.12109" y="61.791" width="4.1194" height="4.1194" fill="white"/>
<rect x="123.582" y="61.791" width="4.1194" height="4.1194" fill="white"/>
<rect x="28.8359" y="4.11914" width="4.1194" height="4.1194" fill="white"/>
<rect x="28.8359" width="4.1194" height="4.1194" fill="white"/>
<rect x="28.8359" y="65.9102" width="4.1194" height="4.1194" fill="white"/>
<rect x="28.8359" y="57.6719" width="4.1194" height="4.1194" fill="white"/>
<rect x="28.8359" y="70.0303" width="4.1194" height="4.1194" fill="white"/>
<rect x="8.23828" y="4.11914" width="4.1194" height="4.1194" fill="white"/>
<rect x="8.23828" y="8.23926" width="4.1194" height="4.1194" fill="white"/>
<rect x="8.23828" y="61.791" width="4.1194" height="4.1194" fill="white"/>
<rect x="119.461" y="61.791" width="4.1194" height="4.1194" fill="white"/>
<rect x="119.461" y="8.23926" width="4.1194" height="4.1194" fill="white"/>
<rect x="8.23828" y="65.9102" width="4.1194" height="4.1194" fill="white"/>
<rect x="8.23828" y="65.9102" width="4.1194" height="4.1194" fill="white"/>
<rect x="32.957" y="4.11914" width="4.1194" height="4.1194" fill="white"/>
<rect x="32.957" width="4.1194" height="4.1194" fill="white"/>
<rect x="32.957" y="65.9102" width="4.1194" height="4.1194" fill="white"/>
<rect x="32.957" y="57.6719" width="4.1194" height="4.1194" fill="white"/>
<rect x="32.957" y="70.0303" width="4.1194" height="4.1194" fill="white"/>
<rect x="12.3594" y="4.11914" width="4.1194" height="4.1194" fill="white"/>
<rect x="12.3594" width="4.1194" height="4.1194" fill="white"/>
<rect x="12.3594" y="65.9102" width="4.1194" height="4.1194" fill="white"/>
<rect x="12.3594" y="70.0303" width="4.1194" height="4.1194" fill="white"/>
<rect x="37.0742" y="4.11914" width="4.1194" height="4.1194" fill="white"/>
<rect x="37.0742" width="4.1194" height="4.1194" fill="white"/>
<rect x="37.0742" y="65.9102" width="4.1194" height="4.1194" fill="white"/>
<rect x="37.0742" y="57.6719" width="4.1194" height="4.1194" fill="white"/>
<rect x="37.0742" y="70.0303" width="4.1194" height="4.1194" fill="white"/>
<rect x="45.3125" y="4.11914" width="4.1194" height="4.1194" fill="white"/>
<rect x="45.3125" width="4.1194" height="4.1194" fill="white"/>
<rect x="45.3125" y="65.9102" width="4.1194" height="4.1194" fill="white"/>
<rect x="45.3125" y="57.6719" width="4.1194" height="4.1194" fill="white"/>
<rect x="45.3125" y="70.0303" width="4.1194" height="4.1194" fill="white"/>
<rect x="16.4766" y="4.11914" width="4.1194" height="4.1194" fill="white"/>
<rect x="16.4766" width="4.1194" height="4.1194" fill="white"/>
<rect x="16.4766" y="65.9102" width="4.1194" height="4.1194" fill="white"/>
<rect x="16.4766" y="57.6719" width="4.1194" height="4.1194" fill="white"/>
<rect x="16.4766" y="70.0303" width="4.1194" height="4.1194" fill="white"/>
<rect x="41.1953" y="4.11914" width="4.1194" height="4.1194" fill="white"/>
<rect x="41.1953" width="4.1194" height="4.1194" fill="white"/>
<rect x="41.1953" y="65.9102" width="4.1194" height="4.1194" fill="white"/>
<rect x="41.1953" y="57.6719" width="4.1194" height="4.1194" fill="white"/>
<rect x="41.1953" y="70.0303" width="4.1194" height="4.1194" fill="white"/>
<rect x="49.4336" y="4.11914" width="4.1194" height="4.1194" fill="white"/>
<rect x="49.4336" width="4.1194" height="4.1194" fill="white"/>
<rect x="49.4336" y="65.9102" width="4.1194" height="4.1194" fill="white"/>
<rect x="49.4336" y="57.6719" width="4.1194" height="4.1194" fill="white"/>
<rect x="49.4336" y="70.0303" width="4.1194" height="4.1194" fill="white"/>
<rect x="53.5508" y="4.11914" width="4.1194" height="4.1194" fill="white"/>
<rect x="53.5508" width="4.1194" height="4.1194" fill="white"/>
<rect x="53.5508" y="65.9102" width="4.1194" height="4.1194" fill="white"/>
<rect x="53.5508" y="57.6719" width="4.1194" height="4.1194" fill="white"/>
<rect x="53.5508" y="70.0303" width="4.1194" height="4.1194" fill="white"/>
<rect x="61.793" y="4.11914" width="4.1194" height="4.1194" fill="white"/>
<rect x="61.793" width="4.1194" height="4.1194" fill="white"/>
<rect x="61.793" y="65.9102" width="4.1194" height="4.1194" fill="white"/>
<rect x="61.793" y="57.6719" width="4.1194" height="4.1194" fill="white"/>
<rect x="61.793" y="70.0303" width="4.1194" height="4.1194" fill="white"/>
<rect x="70.0312" y="4.11914" width="4.1194" height="4.1194" fill="white"/>
<rect x="70.0312" width="4.1194" height="4.1194" fill="white"/>
<rect x="70.0312" y="65.9102" width="4.1194" height="4.1194" fill="white"/>
<rect x="70.0312" y="57.6719" width="4.1194" height="4.1194" fill="white"/>
<rect x="70.0312" y="70.0303" width="4.1194" height="4.1194" fill="white"/>
<rect x="78.2695" y="4.11914" width="4.1194" height="4.1194" fill="white"/>
<rect x="78.2695" width="4.1194" height="4.1194" fill="white"/>
<rect x="78.2695" y="65.9102" width="4.1194" height="4.1194" fill="white"/>
<rect x="78.2695" y="57.6719" width="4.1194" height="4.1194" fill="white"/>
<rect x="78.2695" y="70.0303" width="4.1194" height="4.1194" fill="white"/>
<rect x="86.5078" y="4.11914" width="4.1194" height="4.1194" fill="white"/>
<rect x="86.5078" width="4.1194" height="4.1194" fill="white"/>
<rect x="86.5078" y="65.9102" width="4.1194" height="4.1194" fill="white"/>
<rect x="86.5078" y="57.6719" width="4.1194" height="4.1194" fill="white"/>
<rect x="86.5078" y="70.0303" width="4.1194" height="4.1194" fill="white"/>
<rect x="94.7461" y="4.11914" width="4.1194" height="4.1194" fill="white"/>
<rect x="94.7461" width="4.1194" height="4.1194" fill="white"/>
<rect x="94.7461" y="65.9102" width="4.1194" height="4.1194" fill="white"/>
<rect x="94.7461" y="57.6719" width="4.1194" height="4.1194" fill="white"/>
<rect x="94.7461" y="70.0303" width="4.1194" height="4.1194" fill="white"/>
<rect x="102.984" y="4.11914" width="4.1194" height="4.1194" fill="white"/>
<rect x="102.984" width="4.1194" height="4.1194" fill="white"/>
<rect x="102.984" y="65.9102" width="4.1194" height="4.1194" fill="white"/>
<rect x="102.984" y="57.6719" width="4.1194" height="4.1194" fill="white"/>
<rect x="102.984" y="70.0303" width="4.1194" height="4.1194" fill="white"/>
<rect x="115.344" y="4.11914" width="4.1194" height="4.1194" fill="white"/>
<rect x="115.344" width="4.1194" height="4.1194" fill="white"/>
<rect x="115.344" y="65.9102" width="4.1194" height="4.1194" fill="white"/>
<rect x="115.344" y="70.0303" width="4.1194" height="4.1194" fill="white"/>
<rect x="57.6719" y="4.11914" width="4.1194" height="4.1194" fill="white"/>
<rect x="57.6719" width="4.1194" height="4.1194" fill="white"/>
<rect x="57.6719" y="65.9102" width="4.1194" height="4.1194" fill="white"/>
<rect x="57.6719" y="57.6719" width="4.1194" height="4.1194" fill="white"/>
<rect x="57.6719" y="70.0303" width="4.1194" height="4.1194" fill="white"/>
<rect x="65.9102" y="4.11914" width="4.1194" height="4.1194" fill="white"/>
<rect x="65.9102" width="4.1194" height="4.1194" fill="white"/>
<rect x="65.9102" y="65.9102" width="4.1194" height="4.1194" fill="white"/>
<rect x="65.9102" y="57.6719" width="4.1194" height="4.1194" fill="white"/>
<rect x="65.9102" y="70.0303" width="4.1194" height="4.1194" fill="white"/>
<rect x="74.1484" y="4.11914" width="4.1194" height="4.1194" fill="white"/>
<rect x="74.1484" width="4.1194" height="4.1194" fill="white"/>
<rect x="74.1484" y="65.9102" width="4.1194" height="4.1194" fill="white"/>
<rect x="74.1484" y="57.6719" width="4.1194" height="4.1194" fill="white"/>
<rect x="74.1484" y="70.0303" width="4.1194" height="4.1194" fill="white"/>
<rect x="82.3867" y="4.11914" width="4.1194" height="4.1194" fill="white"/>
<rect x="82.3867" width="4.1194" height="4.1194" fill="white"/>
<rect x="82.3867" y="65.9102" width="4.1194" height="4.1194" fill="white"/>
<rect x="82.3867" y="57.6719" width="4.1194" height="4.1194" fill="white"/>
<rect x="82.3867" y="70.0303" width="4.1194" height="4.1194" fill="white"/>
<rect x="90.625" y="4.11914" width="4.1194" height="4.1194" fill="white"/>
<rect x="90.625" width="4.1194" height="4.1194" fill="white"/>
<rect x="90.625" y="65.9102" width="4.1194" height="4.1194" fill="white"/>
<rect x="90.625" y="57.6719" width="4.1194" height="4.1194" fill="white"/>
<rect x="90.625" y="70.0303" width="4.1194" height="4.1194" fill="white"/>
<rect x="98.8672" y="4.11914" width="4.1194" height="4.1194" fill="white"/>
<rect x="98.8672" width="4.1194" height="4.1194" fill="white"/>
<rect x="98.8672" y="65.9102" width="4.1194" height="4.1194" fill="white"/>
<rect x="98.8672" y="57.6719" width="4.1194" height="4.1194" fill="white"/>
<rect x="98.8672" y="70.0303" width="4.1194" height="4.1194" fill="white"/>
<rect x="107.105" y="4.11914" width="4.1194" height="4.1194" fill="white"/>
<rect x="107.105" width="4.1194" height="4.1194" fill="white"/>
<rect x="107.105" y="65.9102" width="4.1194" height="4.1194" fill="white"/>
<rect x="107.105" y="57.6719" width="4.1194" height="4.1194" fill="white"/>
<rect x="107.105" y="70.0303" width="4.1194" height="4.1194" fill="white"/>
<rect x="111.223" y="4.11914" width="4.1194" height="4.1194" fill="white"/>
<rect x="111.223" width="4.1194" height="4.1194" fill="white"/>
<rect x="111.223" y="65.9102" width="4.1194" height="4.1194" fill="white"/>
<rect x="111.223" y="57.6719" width="4.1194" height="4.1194" fill="white"/>
<rect x="111.223" y="70.0303" width="4.1194" height="4.1194" fill="white"/>
<rect x="119.461" y="4.11914" width="4.1194" height="4.1194" fill="white"/>
<rect x="119.461" y="65.9102" width="4.1194" height="4.1194" fill="white"/>
<path d="M36.7896 26.9924V21.8432H54.812V32.1417H52.2374V37.2909H49.6628V42.4402H47.0882V50.1641H41.9389V39.8656H44.5135V34.7163H47.0882V29.567H49.6628V26.9924H36.7896ZM54.8321 45.0148H59.9814V50.1641H54.8321V45.0148ZM65.1307 21.8432H70.2799V50.1641H65.1307V29.567H62.556V24.4178H65.1307V21.8432ZM75.4392 47.5894V42.4402H80.5885V45.0148H88.3124V37.2909H80.5885V39.8656H75.4392V21.8432H93.4616V26.9924H80.5885V32.1417H90.887V34.7163H93.4616V47.5894H90.887V50.1641H78.0138V47.5894H75.4392Z" fill="white"/>
<g clip-path="url(#clip0_505_7710)">
<path d="M604.535 166.724V172.183C606.413 172.229 608.2 172.215 609.988 172.183V177.643H593.722V183.111C595.063 183.148 596.409 183.125 597.751 183.129C599.11 183.129 600.475 183.129 601.834 183.129H605.809C607.164 183.129 608.519 183.129 609.974 183.129V188.452C610.274 188.511 610.483 188.589 610.692 188.589C615.913 188.589 621.133 188.58 626.353 188.575V194.039H620.987V221.35C621.879 221.355 622.77 221.373 623.657 221.364C624.525 221.355 625.389 221.319 626.258 221.291L626.23 221.268C626.28 221.751 626.362 222.23 626.367 222.713C626.385 224.03 626.371 225.347 626.371 226.801H631.751C631.783 227.111 631.819 227.288 631.819 227.471C631.814 234.543 631.805 241.616 631.801 248.689H620.942V243.234H610.033V237.77H604.576V221.382H599.12V210.454H588.211V204.99H582.754V199.567H577.329C577.229 197.721 577.338 195.953 577.261 194.13H533.698C533.593 195.862 533.716 197.63 533.625 199.481H528.25C528.141 201.326 528.259 203.094 528.173 204.945H522.794V210.409H517.337V215.873H511.857C511.83 219.591 511.848 223.219 511.844 226.842C511.844 230.447 511.844 234.047 511.844 237.651V248.616H495.519V243.257H490.062V237.729H484.51L484.551 237.765V232.269H479.062L479.094 232.301V226.906H326.356V232.301L326.388 232.269C324.601 232.288 322.813 232.306 320.904 232.324V237.765L320.931 237.733H315.529V243.143H310.072V221.378H304.615V210.491H299.19C299.09 208.645 299.199 206.877 299.122 205.027H293.738V199.563H288.281V194.13H233.732V199.494H228.276V204.958H222.819V210.422H217.362V221.309H211.883V219.974C211.883 209.962 211.883 199.945 211.883 189.933C211.883 189.478 211.846 189.026 211.828 188.571H217.317C217.362 187.272 217.335 186 217.339 184.729C217.344 183.439 217.339 182.15 217.339 180.86V161.323H228.212V155.859H233.669V150.395H239.125V144.931H244.582V139.467H250.039V134.003H255.496V123.075H260.739C260.852 122.915 260.93 122.856 260.93 122.797C260.93 119.233 260.921 115.67 260.911 112.106C262.708 112.106 264.499 112.106 266.364 112.106V106.642C269.974 106.642 273.58 106.642 277.273 106.642V101.178C277.727 101.187 278.182 101.201 278.637 101.201C328.643 101.201 378.649 101.201 428.651 101.201C429.106 101.201 429.561 101.187 430.015 101.178V106.542C430.284 106.592 430.457 106.655 430.634 106.655C435.881 106.655 441.129 106.646 446.377 106.642V112.088H457.267V117.547C459.104 117.629 460.86 117.547 462.76 117.602C462.747 119.457 462.824 121.252 462.706 123.052L462.742 123.02H451.842V117.684C449.637 117.433 403.632 117.533 402.846 117.77V144.931H408.275V150.395H413.727V155.814C417.397 155.827 420.966 155.809 424.636 155.827V161.205H500.921V155.8L500.885 155.832H506.36C506.46 157.618 506.346 159.377 506.428 161.2C506.737 161.232 506.987 161.278 507.237 161.278C526.872 161.278 546.503 161.278 566.138 161.278C566.215 161.278 566.288 161.269 566.366 161.26V166.632C566.638 166.678 566.816 166.737 566.993 166.737C579.512 166.737 592.026 166.728 604.544 166.724H604.535ZM500.817 210.368C499.061 210.413 497.302 210.454 495.478 210.5C495.478 211.721 495.492 212.819 495.474 213.913C495.46 214.547 495.387 215.18 495.342 215.813C493.591 215.864 491.84 215.918 490.094 215.968V221.282H495.478C495.478 219.806 495.487 218.411 495.469 217.012C495.464 216.606 495.373 216.201 495.328 215.8C496.638 215.991 500.121 215.941 500.93 215.704C500.93 214.478 500.944 213.243 500.926 212.004C500.917 211.448 500.839 210.896 500.794 210.345H506.269V204.89C508.106 205.068 509.934 204.935 511.844 204.981C511.844 203.582 511.857 202.338 511.839 201.094C511.83 200.533 511.753 199.977 511.707 199.421H517.219V194.112H511.848C511.848 194.645 511.857 195.128 511.848 195.612C511.816 196.888 511.771 198.164 511.735 199.44C509.988 199.481 508.242 199.522 506.396 199.567C506.396 200.141 506.405 200.624 506.396 201.107C506.373 202.383 506.341 203.655 506.314 204.931C504.559 204.958 502.808 204.986 500.944 205.013C500.944 206.038 500.958 206.973 500.939 207.902C500.921 208.723 500.867 209.543 500.826 210.363L500.817 210.368ZM320.854 213.22C320.89 214.009 320.94 214.797 320.954 215.586C320.972 216.561 320.954 217.536 320.954 218.566H326.319V213.252H320.813C320.858 211.717 320.913 210.176 320.945 208.64C320.949 208.353 320.89 208.066 320.858 207.775H315.374C315.588 206.558 315.542 203.094 315.306 202.329H310.127V207.743C311.945 207.743 313.678 207.743 315.415 207.743C315.461 209.534 315.501 211.325 315.551 213.234C317.389 213.234 319.112 213.234 320.845 213.234L320.854 213.22ZM315.561 155.75H375.403C375.639 153.681 375.544 118.436 375.312 117.666H315.561V155.75ZM309.949 155.786C310.181 153.854 310.095 118.449 309.872 117.661H304.556V123.098H299.259C299.018 124.857 299.099 154.989 299.34 155.791H309.949V155.786ZM288.254 155.754V150.35H293.593C293.829 148.203 293.738 129.364 293.506 128.589H288.268C288.181 130.417 288.304 132.18 288.191 134.026H282.784V137.745C282.784 138.92 282.788 140.096 282.784 141.272C282.775 142.466 282.82 143.664 282.747 144.949H277.391V155.754H288.259H288.254ZM391.987 194.094C391.759 195.616 391.818 220.507 392.032 221.3H397.202C397.416 219.683 397.348 194.942 397.125 194.094H391.982H391.987ZM402.846 177.729V183.07H424.5V177.729H402.846Z" fill="white"/>
<path d="M626.261 221.291C626.302 220.922 626.37 220.553 626.375 220.179C626.384 217.34 626.375 214.501 626.384 211.662C626.384 211.293 626.416 210.924 626.438 210.5H631.754V221.269C629.912 221.269 628.075 221.269 626.238 221.269L626.261 221.287V221.291Z" fill="white"/>
<path d="M288.211 270.535H282.813C282.795 272.408 282.777 274.204 282.758 275.999C271.84 275.999 260.922 275.999 250.004 275.999C249.977 274.145 249.945 272.29 249.918 270.435C250.254 270.467 250.591 270.526 250.932 270.526C259.408 270.531 267.88 270.526 276.356 270.526C276.647 270.526 276.938 270.49 277.247 270.472V265.044H271.854V259.584H266.406V254.202H260.959V259.58C259.072 259.653 257.312 259.548 255.47 259.648V265.039C253.624 265.117 251.864 265.008 250.063 265.108C250.063 266.056 250.077 266.849 250.063 267.637C250.041 268.576 249.991 269.515 249.95 270.453C248.154 270.481 246.353 270.508 244.557 270.535C244.557 268.772 244.557 267.008 244.557 265.099C243.647 265.09 242.724 265.071 241.806 265.067C240.905 265.067 240.005 265.067 239.105 265.076C239.105 263.312 239.105 261.549 239.105 259.639C238.195 259.63 237.272 259.612 236.353 259.607C235.453 259.607 234.553 259.607 233.652 259.616C233.671 259.165 233.707 258.71 233.707 258.258C233.707 250.115 233.707 241.966 233.707 233.823C233.707 233.372 233.707 232.925 233.707 232.314C235.535 232.296 237.295 232.251 239.055 232.346C239.091 232.756 239.155 233.167 239.155 233.577C239.159 239.98 239.155 246.387 239.155 252.79V254.075H250.032C250.118 252.252 249.995 250.488 250.109 248.643H255.407C255.616 247.011 255.552 238.64 255.311 237.728H250.027V232.301C247.053 232.301 244.22 232.296 241.387 232.301C240.596 232.301 239.805 232.346 239.009 232.374C239.055 231.813 239.132 231.257 239.141 230.697C239.159 229.452 239.145 228.213 239.145 226.869H244.57V221.404H250.027V215.977H260.877V221.341H255.597V226.805H260.936V232.269H266.393V237.692H271.849V232.319H277.243V221.395H271.954V215.918H282.749L282.722 215.886C282.754 217.681 282.79 219.477 282.827 221.382H288.211L288.179 221.35C288.211 223.145 288.247 224.941 288.283 226.846H293.667L293.631 226.809V232.264H299.083C299.11 232.688 299.142 232.98 299.142 233.271C299.142 241.866 299.142 250.456 299.142 259.051C299.142 259.238 299.129 259.43 299.119 259.616H293.722C293.704 261.489 293.685 263.285 293.667 265.08H288.27C288.251 266.953 288.233 268.749 288.215 270.544L288.211 270.535ZM277.32 237.733V243.238H271.936V248.697H277.352V254.161H282.804V259.53H288.256V254.13H293.626V237.742H288.22V232.378H282.767V237.737H277.315L277.32 237.733Z" fill="white"/>
<path d="M582.719 270.536H577.321C577.303 272.409 577.285 274.205 577.267 276C566.349 276 555.431 276 544.513 276V270.563C543.603 270.554 542.68 270.536 541.762 270.531C540.861 270.531 539.961 270.531 539.061 270.541V265.104C538.151 265.095 537.228 265.077 536.31 265.072C535.409 265.072 534.509 265.072 533.608 265.081V259.644C532.699 259.635 531.776 259.617 530.857 259.612C529.957 259.612 529.057 259.612 528.156 259.622C528.174 259.17 528.211 258.715 528.211 258.264C528.211 250.115 528.211 241.963 528.211 233.814V232.329H533.649V226.869H539.102V221.41H544.554V216.005H577.185C577.185 217.791 577.185 219.55 577.185 221.319C576.771 221.341 576.362 221.382 575.948 221.382C567.772 221.382 559.596 221.382 551.425 221.382C550.984 221.382 550.547 221.382 550.083 221.382V232.32H555.499V237.692H566.403V232.297H571.806C571.901 230.406 571.765 228.642 571.892 226.796H577.29C577.29 225.83 577.308 224.964 577.285 224.098C577.262 223.16 577.203 222.221 577.158 221.278C578.326 221.309 579.495 221.35 580.664 221.373C581.3 221.387 581.941 221.373 582.719 221.373V226.81H588.176V232.274H593.542C593.587 232.538 593.642 232.716 593.642 232.889C593.642 241.798 593.632 250.708 593.623 259.617H588.226C588.208 261.49 588.189 263.286 588.171 265.081H582.774C582.755 266.954 582.737 268.75 582.719 270.545V270.536ZM577.326 254.135V259.535H582.783V254.107H588.112V237.724H582.714V232.356H577.262V237.784H571.81V243.248H566.472V248.712H571.874V254.139H577.33L577.326 254.135ZM544.545 237.77V232.379H539.092V237.784H533.722V254.162H539.142V259.521H544.595V254.117H550.047V248.652H555.408V243.188H549.997V237.77H544.545ZM550.079 270.454H571.737C571.951 268.64 571.878 260.456 571.619 259.558H566.412C566.335 257.703 566.44 255.944 566.349 254.217H560.956C560.878 256.04 560.992 257.803 560.878 259.654H555.508C555.413 261.504 555.544 263.272 555.426 265.118H550.079V270.459V270.454Z" fill="white"/>
<path d="M484.51 237.724V243.133H473.701V237.842C473.324 237.806 473.033 237.765 472.747 237.756C472.406 237.742 472.064 237.756 471.723 237.756C423.795 237.756 375.867 237.756 327.939 237.756C327.411 237.756 326.879 237.737 326.352 237.728L326.392 237.765C326.392 235.933 326.392 234.101 326.392 232.273L326.361 232.305C326.702 232.305 327.043 232.296 327.384 232.296C377.618 232.296 427.847 232.296 478.081 232.296C478.422 232.296 478.763 232.301 479.104 232.305L479.072 232.273C479.104 234.069 479.14 235.864 479.176 237.769H484.56L484.519 237.733L484.51 237.724Z" fill="white"/>
<path d="M282.754 210.455C270.017 210.455 257.28 210.455 244.543 210.455C244.543 208.682 244.543 206.914 244.543 205.063H282.754V210.455Z" fill="white"/>
<path d="M228.219 226.806C228.228 230.588 228.242 234.371 228.242 238.153C228.242 243.034 228.242 247.914 228.242 252.795C228.242 253.201 228.242 253.606 228.242 254.149H222.73C222.749 253.698 222.785 253.242 222.785 252.791C222.785 244.656 222.785 236.517 222.785 228.382C222.785 227.931 222.785 227.48 222.785 226.86C224.631 226.842 226.423 226.824 228.214 226.806H228.219Z" fill="white"/>
<path d="M288.172 215.918H293.629V221.377L293.665 221.345C291.837 221.345 290.009 221.345 288.176 221.345L288.208 221.377C288.208 219.545 288.208 217.713 288.208 215.886L288.172 215.918Z" fill="white"/>
<path d="M233.672 221.346V226.805C231.83 226.814 230.011 226.828 228.188 226.837C228.188 225.073 228.188 223.31 228.188 221.396C230.097 221.378 231.884 221.359 233.672 221.346Z" fill="white"/>
<path d="M293.63 221.378H299.082V226.796C298.181 226.81 297.258 226.828 296.335 226.828C295.43 226.828 294.53 226.815 293.625 226.806L293.661 226.842C293.661 225.01 293.661 223.178 293.661 221.351L293.625 221.382L293.63 221.378Z" fill="white"/>
<path d="M326.349 237.725V243.129H320.993C320.974 241.329 320.952 239.529 320.934 237.729L320.906 237.761C322.734 237.761 324.562 237.761 326.39 237.761L326.349 237.725Z" fill="white"/>
<path d="M282.754 215.914L282.727 210.418H288.175V215.914L288.211 215.882C286.383 215.882 284.555 215.882 282.723 215.882L282.75 215.914H282.754Z" fill="white"/>
<path d="M244.578 210.422V215.881C242.736 215.89 240.917 215.904 239.094 215.913C239.094 214.15 239.094 212.386 239.094 210.472C241.004 210.454 242.791 210.436 244.578 210.422Z" fill="white"/>
<path d="M239.129 215.882V221.341C237.287 221.35 235.468 221.364 233.645 221.373C233.645 219.61 233.645 217.846 233.645 215.932C235.554 215.914 237.341 215.896 239.129 215.882Z" fill="white"/>
<path d="M479.059 139.45H484.561V144.863H495.442V150.318C497.28 150.414 499.035 150.318 500.876 150.382V155.837L500.913 155.805C493.878 155.814 486.848 155.819 479.813 155.823C479.604 155.823 479.391 155.76 479.118 155.714C479.118 155.204 479.118 154.753 479.118 154.306C479.109 149.348 479.1 144.385 479.095 139.427L479.059 139.459V139.45Z" fill="white"/>
<path d="M473.609 133.985H479.062V139.449L479.098 139.418C477.311 139.449 475.519 139.459 473.646 139.418V133.958L473.609 133.99V133.985Z" fill="white"/>
<path d="M468.148 128.525H473.601V133.989L473.637 133.958C471.85 133.989 470.058 133.999 468.185 133.958V128.498L468.148 128.53V128.525Z" fill="white"/>
<path d="M462.703 123.057H468.155V128.521L468.192 128.489C466.405 128.521 464.613 128.53 462.739 128.489V123.029L462.703 123.061V123.057Z" fill="white"/>
</g>
<path d="M721.437 63.1642L718.176 61.4477V21.2836V10.4701H721.437V6.694L729.332 4.29102H827.34L838.153 12.1865L840.041 59.5597L828.541 68.485H723.497L721.437 63.1642Z" fill="black" stroke="white" stroke-width="0.343284"/>
<rect x="732.422" y="4.11914" width="4.1194" height="4.1194" fill="white"/>
<rect x="732.422" width="4.1194" height="4.1194" fill="white"/>
<rect x="732.422" y="65.9102" width="4.1194" height="4.1194" fill="white"/>
<rect x="732.422" y="57.6719" width="4.1194" height="4.1194" fill="white"/>
<rect x="732.422" y="70.0303" width="4.1194" height="4.1194" fill="white"/>
<rect x="736.539" y="4.11914" width="4.1194" height="4.1194" fill="white"/>
<rect x="736.539" width="4.1194" height="4.1194" fill="white"/>
<rect x="736.539" y="65.9102" width="4.1194" height="4.1194" fill="white"/>
<rect x="736.539" y="57.6719" width="4.1194" height="4.1194" fill="white"/>
<rect x="736.539" y="70.0303" width="4.1194" height="4.1194" fill="white"/>
<rect x="715.945" y="8.23926" width="4.1194" height="4.1194" fill="white"/>
<rect x="835.406" y="8.23926" width="4.1194" height="4.1194" fill="white"/>
<rect x="715.945" y="12.3584" width="4.1194" height="4.1194" fill="white"/>
<rect x="711.824" y="12.3584" width="4.1194" height="4.1194" fill="white"/>
<rect x="839.527" y="12.3584" width="4.1194" height="4.1194" fill="white"/>
<rect x="835.406" y="12.3584" width="4.1194" height="4.1194" fill="white"/>
<rect x="715.945" y="16.4775" width="4.1194" height="4.1194" fill="white"/>
<rect x="711.824" y="16.4775" width="4.1194" height="4.1194" fill="white"/>
<rect x="839.527" y="16.4775" width="4.1194" height="4.1194" fill="white"/>
<rect x="835.406" y="16.4775" width="4.1194" height="4.1194" fill="white"/>
<rect x="715.945" y="20.5967" width="4.1194" height="4.1194" fill="white"/>
<rect x="711.824" y="20.5967" width="4.1194" height="4.1194" fill="white"/>
<rect x="839.527" y="20.5967" width="4.1194" height="4.1194" fill="white"/>
<rect x="835.406" y="20.5967" width="4.1194" height="4.1194" fill="white"/>
<rect x="715.945" y="24.7168" width="4.1194" height="4.1194" fill="white"/>
<rect x="711.824" y="24.7168" width="4.1194" height="4.1194" fill="white"/>
<rect x="839.527" y="24.7168" width="4.1194" height="4.1194" fill="white"/>
<rect x="775.676" y="74.1494" width="4.1194" height="4.1194" fill="white"/>
<rect x="775.676" y="98.8652" width="4.1194" height="4.1194" fill="white"/>
<rect x="775.676" y="123.582" width="4.1194" height="4.1194" fill="white"/>
<rect x="775.676" y="148.299" width="4.1194" height="4.1194" fill="white"/>
<rect x="775.676" y="173.015" width="4.1194" height="4.1194" fill="white"/>
<rect x="775.676" y="197.731" width="4.1194" height="4.1194" fill="white"/>
<rect x="775.676" y="222.447" width="4.1194" height="4.1194" fill="white"/>
<rect x="775.676" y="247.164" width="4.1194" height="4.1194" fill="white"/>
<rect x="775.676" y="271.881" width="4.1194" height="4.1194" fill="white"/>
<rect x="835.406" y="24.7168" width="4.1194" height="4.1194" fill="white"/>
<rect x="771.555" y="74.1494" width="4.1194" height="4.1194" fill="white"/>
<rect x="771.555" y="98.8652" width="4.1194" height="4.1194" fill="white"/>
<rect x="771.555" y="123.582" width="4.1194" height="4.1194" fill="white"/>
<rect x="771.555" y="148.299" width="4.1194" height="4.1194" fill="white"/>
<rect x="771.555" y="173.015" width="4.1194" height="4.1194" fill="white"/>
<rect x="771.555" y="197.731" width="4.1194" height="4.1194" fill="white"/>
<rect x="771.555" y="222.447" width="4.1194" height="4.1194" fill="white"/>
<rect x="771.555" y="247.164" width="4.1194" height="4.1194" fill="white"/>
<rect x="771.555" y="271.881" width="4.1194" height="4.1194" fill="white"/>
<rect x="715.945" y="28.8359" width="4.1194" height="4.1194" fill="white"/>
<rect x="711.824" y="28.8359" width="4.1194" height="4.1194" fill="white"/>
<rect x="839.527" y="28.8359" width="4.1194" height="4.1194" fill="white"/>
<rect x="775.676" y="78.2686" width="4.1194" height="4.1194" fill="white"/>
<rect x="775.676" y="102.985" width="4.1194" height="4.1194" fill="white"/>
<rect x="775.676" y="127.701" width="4.1194" height="4.1194" fill="white"/>
<rect x="775.676" y="152.418" width="4.1194" height="4.1194" fill="white"/>
<rect x="775.676" y="177.135" width="4.1194" height="4.1194" fill="white"/>
<rect x="775.676" y="201.851" width="4.1194" height="4.1194" fill="white"/>
<rect x="775.676" y="226.567" width="4.1194" height="4.1194" fill="white"/>
<rect x="775.676" y="251.283" width="4.1194" height="4.1194" fill="white"/>
<rect x="835.406" y="28.8359" width="4.1194" height="4.1194" fill="white"/>
<rect x="771.555" y="78.2686" width="4.1194" height="4.1194" fill="white"/>
<rect x="771.555" y="102.985" width="4.1194" height="4.1194" fill="white"/>
<rect x="771.555" y="127.701" width="4.1194" height="4.1194" fill="white"/>
<rect x="771.555" y="152.418" width="4.1194" height="4.1194" fill="white"/>
<rect x="771.555" y="177.135" width="4.1194" height="4.1194" fill="white"/>
<rect x="771.555" y="201.851" width="4.1194" height="4.1194" fill="white"/>
<rect x="771.555" y="226.567" width="4.1194" height="4.1194" fill="white"/>
<rect x="771.555" y="251.283" width="4.1194" height="4.1194" fill="white"/>
<rect x="715.945" y="32.9551" width="4.1194" height="4.1194" fill="white"/>
<rect x="711.824" y="32.9551" width="4.1194" height="4.1194" fill="white"/>
<rect x="839.527" y="32.9551" width="4.1194" height="4.1194" fill="white"/>
<rect x="775.676" y="82.3877" width="4.1194" height="4.1194" fill="white"/>
<rect x="775.676" y="107.104" width="4.1194" height="4.1194" fill="white"/>
<rect x="775.676" y="131.821" width="4.1194" height="4.1194" fill="white"/>
<rect x="775.676" y="156.537" width="4.1194" height="4.1194" fill="white"/>
<rect x="775.676" y="181.254" width="4.1194" height="4.1194" fill="white"/>
<rect x="775.676" y="205.97" width="4.1194" height="4.1194" fill="white"/>
<rect x="775.676" y="230.687" width="4.1194" height="4.1194" fill="white"/>
<rect x="775.676" y="255.403" width="4.1194" height="4.1194" fill="white"/>
<rect x="835.406" y="32.9551" width="4.1194" height="4.1194" fill="white"/>
<rect x="771.555" y="82.3877" width="4.1194" height="4.1194" fill="white"/>
<rect x="771.555" y="107.104" width="4.1194" height="4.1194" fill="white"/>
<rect x="771.555" y="131.821" width="4.1194" height="4.1194" fill="white"/>
<rect x="771.555" y="156.537" width="4.1194" height="4.1194" fill="white"/>
<rect x="771.555" y="181.254" width="4.1194" height="4.1194" fill="white"/>
<rect x="771.555" y="205.97" width="4.1194" height="4.1194" fill="white"/>
<rect x="771.555" y="230.687" width="4.1194" height="4.1194" fill="white"/>
<rect x="771.555" y="255.403" width="4.1194" height="4.1194" fill="white"/>
<rect x="715.945" y="37.0742" width="4.1194" height="4.1194" fill="white"/>
<rect x="711.824" y="37.0742" width="4.1194" height="4.1194" fill="white"/>
<rect x="839.527" y="37.0742" width="4.1194" height="4.1194" fill="white"/>
<rect x="775.676" y="86.5078" width="4.1194" height="4.1194" fill="white"/>
<rect x="775.676" y="111.224" width="4.1194" height="4.1194" fill="white"/>
<rect x="775.676" y="135.94" width="4.1194" height="4.1194" fill="white"/>
<rect x="775.676" y="160.656" width="4.1194" height="4.1194" fill="white"/>
<rect x="775.676" y="185.373" width="4.1194" height="4.1194" fill="white"/>
<rect x="775.676" y="210.09" width="4.1194" height="4.1194" fill="white"/>
<rect x="775.676" y="234.806" width="4.1194" height="4.1194" fill="white"/>
<rect x="775.676" y="259.522" width="4.1194" height="4.1194" fill="white"/>
<rect x="835.406" y="37.0742" width="4.1194" height="4.1194" fill="white"/>
<rect x="771.555" y="86.5078" width="4.1194" height="4.1194" fill="white"/>
<rect x="771.555" y="111.224" width="4.1194" height="4.1194" fill="white"/>
<rect x="771.555" y="135.94" width="4.1194" height="4.1194" fill="white"/>
<rect x="771.555" y="160.656" width="4.1194" height="4.1194" fill="white"/>
<rect x="771.555" y="185.373" width="4.1194" height="4.1194" fill="white"/>
<rect x="771.555" y="210.09" width="4.1194" height="4.1194" fill="white"/>
<rect x="771.555" y="234.806" width="4.1194" height="4.1194" fill="white"/>
<rect x="771.555" y="259.522" width="4.1194" height="4.1194" fill="white"/>
<rect x="715.945" y="41.1943" width="4.1194" height="4.1194" fill="white"/>
<rect x="711.824" y="41.1943" width="4.1194" height="4.1194" fill="white"/>
<rect x="839.527" y="41.1943" width="4.1194" height="4.1194" fill="white"/>
<rect x="775.676" y="90.627" width="4.1194" height="4.1194" fill="white"/>
<rect x="775.676" y="115.344" width="4.1194" height="4.1194" fill="white"/>
<rect x="775.676" y="140.06" width="4.1194" height="4.1194" fill="white"/>
<rect x="775.676" y="164.776" width="4.1194" height="4.1194" fill="white"/>
<rect x="775.676" y="189.492" width="4.1194" height="4.1194" fill="white"/>
<rect x="775.676" y="214.209" width="4.1194" height="4.1194" fill="white"/>
<rect x="775.676" y="238.926" width="4.1194" height="4.1194" fill="white"/>
<rect x="775.676" y="263.642" width="4.1194" height="4.1194" fill="white"/>
<rect x="835.406" y="41.1943" width="4.1194" height="4.1194" fill="white"/>
<rect x="771.555" y="90.627" width="4.1194" height="4.1194" fill="white"/>
<rect x="771.555" y="115.344" width="4.1194" height="4.1194" fill="white"/>
<rect x="771.555" y="140.06" width="4.1194" height="4.1194" fill="white"/>
<rect x="771.555" y="164.776" width="4.1194" height="4.1194" fill="white"/>
<rect x="771.555" y="189.492" width="4.1194" height="4.1194" fill="white"/>
<rect x="771.555" y="214.209" width="4.1194" height="4.1194" fill="white"/>
<rect x="771.555" y="238.926" width="4.1194" height="4.1194" fill="white"/>
<rect x="771.555" y="263.642" width="4.1194" height="4.1194" fill="white"/>
<rect x="715.945" y="45.3135" width="4.1194" height="4.1194" fill="white"/>
<rect x="711.824" y="45.3135" width="4.1194" height="4.1194" fill="white"/>
<rect x="839.527" y="45.3135" width="4.1194" height="4.1194" fill="white"/>
<rect x="775.676" y="94.7461" width="4.1194" height="4.1194" fill="white"/>
<rect x="775.676" y="119.463" width="4.1194" height="4.1194" fill="white"/>
<rect x="775.676" y="144.179" width="4.1194" height="4.1194" fill="white"/>
<rect x="775.676" y="168.896" width="4.1194" height="4.1194" fill="white"/>
<rect x="775.676" y="193.612" width="4.1194" height="4.1194" fill="white"/>
<rect x="775.676" y="218.328" width="4.1194" height="4.1194" fill="white"/>
<rect x="775.676" y="243.045" width="4.1194" height="4.1194" fill="white"/>
<rect x="775.676" y="267.761" width="4.1194" height="4.1194" fill="white"/>
<rect x="835.406" y="45.3135" width="4.1194" height="4.1194" fill="white"/>
<rect x="771.555" y="94.7461" width="4.1194" height="4.1194" fill="white"/>
<rect x="771.555" y="119.463" width="4.1194" height="4.1194" fill="white"/>
<rect x="771.555" y="144.179" width="4.1194" height="4.1194" fill="white"/>
<rect x="771.555" y="168.896" width="4.1194" height="4.1194" fill="white"/>
<rect x="771.555" y="193.612" width="4.1194" height="4.1194" fill="white"/>
<rect x="771.555" y="218.328" width="4.1194" height="4.1194" fill="white"/>
<rect x="771.555" y="243.045" width="4.1194" height="4.1194" fill="white"/>
<rect x="771.555" y="267.761" width="4.1194" height="4.1194" fill="white"/>
<rect x="715.945" y="49.4326" width="4.1194" height="4.1194" fill="white"/>
<rect x="711.824" y="49.4326" width="4.1194" height="4.1194" fill="white"/>
<rect x="839.527" y="49.4326" width="4.1194" height="4.1194" fill="white"/>
<rect x="835.406" y="49.4326" width="4.1194" height="4.1194" fill="white"/>
<rect x="715.945" y="53.5518" width="4.1194" height="4.1194" fill="white"/>
<rect x="711.824" y="53.5518" width="4.1194" height="4.1194" fill="white"/>
<rect x="839.527" y="53.5518" width="4.1194" height="4.1194" fill="white"/>
<rect x="835.406" y="53.5518" width="4.1194" height="4.1194" fill="white"/>
<rect x="715.945" y="57.6719" width="4.1194" height="4.1194" fill="white"/>
<rect x="711.824" y="57.6719" width="4.1194" height="4.1194" fill="white"/>
<rect x="839.527" y="57.6719" width="4.1194" height="4.1194" fill="white"/>
<rect x="835.406" y="57.6719" width="4.1194" height="4.1194" fill="white"/>
<rect x="715.945" y="57.6719" width="4.1194" height="4.1194" fill="white"/>
<rect x="711.824" y="57.6719" width="4.1194" height="4.1194" fill="white"/>
<rect x="839.527" y="57.6719" width="4.1194" height="4.1194" fill="white"/>
<rect x="835.406" y="57.6719" width="4.1194" height="4.1194" fill="white"/>
<rect x="715.945" y="61.791" width="4.1194" height="4.1194" fill="white"/>
<rect x="835.406" y="61.791" width="4.1194" height="4.1194" fill="white"/>
<rect x="740.66" y="4.11914" width="4.1194" height="4.1194" fill="white"/>
<rect x="740.66" width="4.1194" height="4.1194" fill="white"/>
<rect x="740.66" y="65.9102" width="4.1194" height="4.1194" fill="white"/>
<rect x="740.66" y="57.6719" width="4.1194" height="4.1194" fill="white"/>
<rect x="740.66" y="70.0303" width="4.1194" height="4.1194" fill="white"/>
<rect x="720.062" y="4.11914" width="4.1194" height="4.1194" fill="white"/>
<rect x="720.062" y="8.23926" width="4.1194" height="4.1194" fill="white"/>
<rect x="720.062" y="61.791" width="4.1194" height="4.1194" fill="white"/>
<rect x="831.285" y="61.791" width="4.1194" height="4.1194" fill="white"/>
<rect x="831.285" y="8.23926" width="4.1194" height="4.1194" fill="white"/>
<rect x="720.062" y="65.9102" width="4.1194" height="4.1194" fill="white"/>
<rect x="720.062" y="65.9102" width="4.1194" height="4.1194" fill="white"/>
<rect x="744.781" y="4.11914" width="4.1194" height="4.1194" fill="white"/>
<rect x="744.781" width="4.1194" height="4.1194" fill="white"/>
<rect x="744.781" y="65.9102" width="4.1194" height="4.1194" fill="white"/>
<rect x="744.781" y="57.6719" width="4.1194" height="4.1194" fill="white"/>
<rect x="744.781" y="70.0303" width="4.1194" height="4.1194" fill="white"/>
<rect x="724.184" y="4.11914" width="4.1194" height="4.1194" fill="white"/>
<rect x="724.184" width="4.1194" height="4.1194" fill="white"/>
<rect x="724.184" y="65.9102" width="4.1194" height="4.1194" fill="white"/>
<rect x="724.184" y="70.0303" width="4.1194" height="4.1194" fill="white"/>
<rect x="748.898" y="4.11914" width="4.1194" height="4.1194" fill="white"/>
<rect x="748.898" width="4.1194" height="4.1194" fill="white"/>
<rect x="748.898" y="65.9102" width="4.1194" height="4.1194" fill="white"/>
<rect x="748.898" y="57.6719" width="4.1194" height="4.1194" fill="white"/>
<rect x="748.898" y="70.0303" width="4.1194" height="4.1194" fill="white"/>
<rect x="757.137" y="4.11914" width="4.1194" height="4.1194" fill="white"/>
<rect x="757.137" width="4.1194" height="4.1194" fill="white"/>
<rect x="757.137" y="65.9102" width="4.1194" height="4.1194" fill="white"/>
<rect x="757.137" y="57.6719" width="4.1194" height="4.1194" fill="white"/>
<rect x="757.137" y="70.0303" width="4.1194" height="4.1194" fill="white"/>
<rect x="728.301" y="4.11914" width="4.1194" height="4.1194" fill="white"/>
<rect x="728.301" width="4.1194" height="4.1194" fill="white"/>
<rect x="728.301" y="65.9102" width="4.1194" height="4.1194" fill="white"/>
<rect x="728.301" y="57.6719" width="4.1194" height="4.1194" fill="white"/>
<rect x="728.301" y="70.0303" width="4.1194" height="4.1194" fill="white"/>
<rect x="753.02" y="4.11914" width="4.1194" height="4.1194" fill="white"/>
<rect x="753.02" width="4.1194" height="4.1194" fill="white"/>
<rect x="753.02" y="65.9102" width="4.1194" height="4.1194" fill="white"/>
<rect x="753.02" y="57.6719" width="4.1194" height="4.1194" fill="white"/>
<rect x="753.02" y="70.0303" width="4.1194" height="4.1194" fill="white"/>
<rect x="761.258" y="4.11914" width="4.1194" height="4.1194" fill="white"/>
<rect x="761.258" width="4.1194" height="4.1194" fill="white"/>
<rect x="761.258" y="65.9102" width="4.1194" height="4.1194" fill="white"/>
<rect x="761.258" y="57.6719" width="4.1194" height="4.1194" fill="white"/>
<rect x="761.258" y="70.0303" width="4.1194" height="4.1194" fill="white"/>
<rect x="765.375" y="4.11914" width="4.1194" height="4.1194" fill="white"/>
<rect x="765.375" width="4.1194" height="4.1194" fill="white"/>
<rect x="765.375" y="65.9102" width="4.1194" height="4.1194" fill="white"/>
<rect x="765.375" y="57.6719" width="4.1194" height="4.1194" fill="white"/>
<rect x="765.375" y="70.0303" width="4.1194" height="4.1194" fill="white"/>
<rect x="773.617" y="4.11914" width="4.1194" height="4.1194" fill="white"/>
<rect x="773.617" width="4.1194" height="4.1194" fill="white"/>
<rect x="773.617" y="65.9102" width="4.1194" height="4.1194" fill="white"/>
<rect x="773.617" y="57.6719" width="4.1194" height="4.1194" fill="white"/>
<rect x="773.617" y="70.0303" width="4.1194" height="4.1194" fill="white"/>
<rect x="781.855" y="4.11914" width="4.1194" height="4.1194" fill="white"/>
<rect x="781.855" width="4.1194" height="4.1194" fill="white"/>
<rect x="781.855" y="65.9102" width="4.1194" height="4.1194" fill="white"/>
<rect x="781.855" y="57.6719" width="4.1194" height="4.1194" fill="white"/>
<rect x="781.855" y="70.0303" width="4.1194" height="4.1194" fill="white"/>
<rect x="790.094" y="4.11914" width="4.1194" height="4.1194" fill="white"/>
<rect x="790.094" width="4.1194" height="4.1194" fill="white"/>
<rect x="790.094" y="65.9102" width="4.1194" height="4.1194" fill="white"/>
<rect x="790.094" y="57.6719" width="4.1194" height="4.1194" fill="white"/>
<rect x="790.094" y="70.0303" width="4.1194" height="4.1194" fill="white"/>
<rect x="798.332" y="4.11914" width="4.1194" height="4.1194" fill="white"/>
<rect x="798.332" width="4.1194" height="4.1194" fill="white"/>
<rect x="798.332" y="65.9102" width="4.1194" height="4.1194" fill="white"/>
<rect x="798.332" y="57.6719" width="4.1194" height="4.1194" fill="white"/>
<rect x="798.332" y="70.0303" width="4.1194" height="4.1194" fill="white"/>
<rect x="806.57" y="4.11914" width="4.1194" height="4.1194" fill="white"/>
<rect x="806.57" width="4.1194" height="4.1194" fill="white"/>
<rect x="806.57" y="65.9102" width="4.1194" height="4.1194" fill="white"/>
<rect x="806.57" y="57.6719" width="4.1194" height="4.1194" fill="white"/>
<rect x="806.57" y="70.0303" width="4.1194" height="4.1194" fill="white"/>
<rect x="814.809" y="4.11914" width="4.1194" height="4.1194" fill="white"/>
<rect x="814.809" width="4.1194" height="4.1194" fill="white"/>
<rect x="814.809" y="65.9102" width="4.1194" height="4.1194" fill="white"/>
<rect x="814.809" y="57.6719" width="4.1194" height="4.1194" fill="white"/>
<rect x="814.809" y="70.0303" width="4.1194" height="4.1194" fill="white"/>
<rect x="827.168" y="4.11914" width="4.1194" height="4.1194" fill="white"/>
<rect x="827.168" width="4.1194" height="4.1194" fill="white"/>
<rect x="827.168" y="65.9102" width="4.1194" height="4.1194" fill="white"/>
<rect x="827.168" y="70.0303" width="4.1194" height="4.1194" fill="white"/>
<rect x="769.496" y="4.11914" width="4.1194" height="4.1194" fill="white"/>
<rect x="769.496" width="4.1194" height="4.1194" fill="white"/>
<rect x="769.496" y="65.9102" width="4.1194" height="4.1194" fill="white"/>
<rect x="769.496" y="57.6719" width="4.1194" height="4.1194" fill="white"/>
<rect x="769.496" y="70.0303" width="4.1194" height="4.1194" fill="white"/>
<rect x="777.734" y="4.11914" width="4.1194" height="4.1194" fill="white"/>
<rect x="777.734" width="4.1194" height="4.1194" fill="white"/>
<rect x="777.734" y="65.9102" width="4.1194" height="4.1194" fill="white"/>
<rect x="777.734" y="57.6719" width="4.1194" height="4.1194" fill="white"/>
<rect x="777.734" y="70.0303" width="4.1194" height="4.1194" fill="white"/>
<rect x="785.973" y="4.11914" width="4.1194" height="4.1194" fill="white"/>
<rect x="785.973" width="4.1194" height="4.1194" fill="white"/>
<rect x="785.973" y="65.9102" width="4.1194" height="4.1194" fill="white"/>
<rect x="785.973" y="57.6719" width="4.1194" height="4.1194" fill="white"/>
<rect x="785.973" y="70.0303" width="4.1194" height="4.1194" fill="white"/>
<rect x="794.211" y="4.11914" width="4.1194" height="4.1194" fill="white"/>
<rect x="794.211" width="4.1194" height="4.1194" fill="white"/>
<rect x="794.211" y="65.9102" width="4.1194" height="4.1194" fill="white"/>
<rect x="794.211" y="57.6719" width="4.1194" height="4.1194" fill="white"/>
<rect x="794.211" y="70.0303" width="4.1194" height="4.1194" fill="white"/>
<rect x="802.449" y="4.11914" width="4.1194" height="4.1194" fill="white"/>
<rect x="802.449" width="4.1194" height="4.1194" fill="white"/>
<rect x="802.449" y="65.9102" width="4.1194" height="4.1194" fill="white"/>
<rect x="802.449" y="57.6719" width="4.1194" height="4.1194" fill="white"/>
<rect x="802.449" y="70.0303" width="4.1194" height="4.1194" fill="white"/>
<rect x="810.691" y="4.11914" width="4.1194" height="4.1194" fill="white"/>
<rect x="810.691" width="4.1194" height="4.1194" fill="white"/>
<rect x="810.691" y="65.9102" width="4.1194" height="4.1194" fill="white"/>
<rect x="810.691" y="57.6719" width="4.1194" height="4.1194" fill="white"/>
<rect x="810.691" y="70.0303" width="4.1194" height="4.1194" fill="white"/>
<rect x="818.93" y="4.11914" width="4.1194" height="4.1194" fill="white"/>
<rect x="818.93" width="4.1194" height="4.1194" fill="white"/>
<rect x="818.93" y="65.9102" width="4.1194" height="4.1194" fill="white"/>
<rect x="818.93" y="57.6719" width="4.1194" height="4.1194" fill="white"/>
<rect x="818.93" y="70.0303" width="4.1194" height="4.1194" fill="white"/>
<rect x="823.047" y="4.11914" width="4.1194" height="4.1194" fill="white"/>
<rect x="823.047" width="4.1194" height="4.1194" fill="white"/>
<rect x="823.047" y="65.9102" width="4.1194" height="4.1194" fill="white"/>
<rect x="823.047" y="57.6719" width="4.1194" height="4.1194" fill="white"/>
<rect x="823.047" y="70.0303" width="4.1194" height="4.1194" fill="white"/>
<rect x="831.285" y="4.11914" width="4.1194" height="4.1194" fill="white"/>
<rect x="831.285" y="65.9102" width="4.1194" height="4.1194" fill="white"/>
<path d="M748.614 26.9924V21.8432H766.636V32.1417H764.062V37.2909H761.487V42.4402H758.912V50.1641H753.763V39.8656H756.338V34.7163H758.912V29.567H761.487V26.9924H748.614ZM766.656 45.0148H771.806V50.1641H766.656V45.0148ZM774.38 50.1641V42.4402H776.955V39.8656H779.53V37.2909H782.104V34.7163H784.679V32.1417H787.253V26.9924H779.53V32.1417H774.38V24.4178H776.955V21.8432H789.828V24.4178H792.403V34.7163H789.828V37.2909H787.253V39.8656H784.679V42.4402H782.104V45.0148H792.403V50.1641H774.38ZM797.562 21.8432H802.711V50.1641H797.562V29.567H794.987V24.4178H797.562V21.8432Z" fill="white"/>
<defs>
<clipPath id="clip0_505_7710">
<rect width="420" height="174.822" fill="white" transform="translate(211.824 101.178)"/>
</clipPath>
</defs>
</svg>
