<svg width="438" height="99" viewBox="0 0 438 99" fill="none" xmlns="http://www.w3.org/2000/svg">
<rect width="410" height="74" transform="translate(14 12)" fill="white"/>
<path d="M112.238 35.972H115.822V60.164H112.238V35.972ZM102.942 40.956C102.364 40.956 101.888 41.1147 101.514 41.432C101.141 41.7493 100.842 42.1507 100.618 42.636C100.394 43.1213 100.236 43.672 100.142 44.288C100.049 44.8853 100.002 45.464 100.002 46.024C100.002 46.584 100.049 47.172 100.142 47.788C100.236 48.3853 100.394 48.9267 100.618 49.412C100.842 49.8973 101.141 50.2987 101.514 50.616C101.888 50.9333 102.364 51.092 102.942 51.092C103.521 51.092 103.997 50.9333 104.37 50.616C104.744 50.2987 105.042 49.8973 105.266 49.412C105.49 48.9267 105.64 48.3853 105.714 47.788C105.808 47.172 105.854 46.584 105.854 46.024C105.854 45.464 105.808 44.8853 105.714 44.288C105.64 43.672 105.49 43.1213 105.266 42.636C105.042 42.1507 104.744 41.7493 104.37 41.432C103.997 41.1147 103.521 40.956 102.942 40.956ZM102.942 37.904C104.137 37.904 105.145 38.1373 105.966 38.604C106.806 39.052 107.478 39.6587 107.982 40.424C108.486 41.1707 108.85 42.0387 109.074 43.028C109.298 43.9987 109.41 44.9973 109.41 46.024C109.41 47.0507 109.298 48.0587 109.074 49.048C108.85 50.0187 108.486 50.8867 107.982 51.652C107.478 52.3987 106.806 53.0053 105.966 53.472C105.145 53.92 104.137 54.144 102.942 54.144C101.729 54.144 100.702 53.92 99.8623 53.472C99.0409 53.0053 98.3689 52.3987 97.8463 51.652C97.3423 50.8867 96.9783 50.0187 96.7543 49.048C96.5303 48.0587 96.4183 47.0507 96.4183 46.024C96.4183 44.9973 96.5303 43.9987 96.7543 43.028C96.9783 42.0387 97.3423 41.1707 97.8463 40.424C98.3689 39.6587 99.0409 39.052 99.8623 38.604C100.702 38.1373 101.729 37.904 102.942 37.904ZM120.312 37.288H123.672V40.564H126.64V37.288H129.944V42.104H132.1V36.252H135.488V53.08H132.1V45.128H129.944V50H121.684C120.769 50 120.312 49.6173 120.312 48.852V37.288ZM124.792 52.044H128.376V57.252H141.088V60.304H126.136C125.707 60.304 125.371 60.2107 125.128 60.024C124.904 59.8373 124.792 59.548 124.792 59.156V52.044ZM137.196 35.972H140.612V53.5H137.196V35.972ZM123.672 43.392V47.06H126.64V43.392H123.672ZM147.062 37.792H162.854V40.76H150.646V42.972H162.322V45.8H150.646V48.068H163.246V51.036H148.406C147.977 51.036 147.641 50.9427 147.398 50.756C147.174 50.5693 147.062 50.28 147.062 49.888V37.792ZM143.87 54.396H166.046V57.504H143.87V54.396ZM178.287 51.316H193.379V60.472H179.631C179.202 60.472 178.866 60.3787 178.623 60.192C178.399 60.0053 178.287 59.716 178.287 59.324V51.316ZM174.619 40.536H187.051V43.448H182.823C183.103 44.456 183.71 45.268 184.643 45.884C185.577 46.4813 186.725 46.9387 188.087 47.256L186.659 50C185.259 49.6827 184.055 49.1693 183.047 48.46C182.058 47.7507 181.377 46.9667 181.003 46.108C180.649 47.004 179.949 47.8627 178.903 48.684C177.858 49.5053 176.57 50.14 175.039 50.588L173.583 47.816C175.039 47.3867 176.225 46.8173 177.139 46.108C178.073 45.3987 178.651 44.512 178.875 43.448H174.619V40.536ZM189.795 35.972H193.379V41.572H196.655V44.68H193.379V50H189.795V35.972ZM176.747 36.336H184.923V39.304H176.747V36.336ZM181.871 54.34V57.42H189.795V54.34H181.871ZM214.725 35.972H218.309V60.164H214.725V50.812H210.581C210.096 51.8013 209.415 52.604 208.537 53.22C207.679 53.836 206.549 54.144 205.149 54.144C203.936 54.144 202.919 53.92 202.097 53.472C201.276 53.0053 200.613 52.3987 200.109 51.652C199.605 50.8867 199.241 50.0187 199.017 49.048C198.793 48.0587 198.681 47.0507 198.681 46.024C198.681 44.9973 198.793 43.9987 199.017 43.028C199.241 42.0387 199.605 41.1707 200.109 40.424C200.613 39.6587 201.276 39.052 202.097 38.604C202.919 38.1373 203.936 37.904 205.149 37.904C206.493 37.904 207.595 38.1933 208.453 38.772C209.312 39.3507 209.984 40.1067 210.469 41.04H214.725V35.972ZM205.149 40.956C204.571 40.956 204.095 41.1147 203.721 41.432C203.348 41.7493 203.049 42.1507 202.825 42.636C202.62 43.1213 202.471 43.672 202.377 44.288C202.303 44.8853 202.265 45.464 202.265 46.024C202.265 46.584 202.303 47.172 202.377 47.788C202.471 48.3853 202.62 48.9267 202.825 49.412C203.049 49.8973 203.348 50.2987 203.721 50.616C204.095 50.9333 204.571 51.092 205.149 51.092C205.728 51.092 206.195 50.9333 206.549 50.616C206.923 50.2987 207.212 49.8973 207.417 49.412C207.641 48.9267 207.791 48.3853 207.865 47.788C207.959 47.172 208.005 46.584 208.005 46.024C208.005 45.464 207.959 44.8853 207.865 44.288C207.791 43.672 207.641 43.1213 207.417 42.636C207.212 42.1507 206.923 41.7493 206.549 41.432C206.195 41.1147 205.728 40.956 205.149 40.956ZM211.365 44.036C211.403 44.3533 211.431 44.6893 211.449 45.044C211.487 45.38 211.505 45.7067 211.505 46.024C211.505 46.3413 211.496 46.6493 211.477 46.948C211.459 47.228 211.431 47.5173 211.393 47.816H214.725V44.036H211.365ZM221.791 42.244H236.267V45.24H233.551C234.036 45.6693 234.41 46.1827 234.671 46.78C234.951 47.3773 235.091 48.0587 235.091 48.824C235.091 49.6827 234.942 50.4667 234.643 51.176C234.344 51.8853 233.924 52.492 233.383 52.996C232.86 53.5 232.226 53.892 231.479 54.172C230.751 54.452 229.939 54.592 229.043 54.592C228.147 54.592 227.326 54.452 226.579 54.172C225.832 53.892 225.188 53.5 224.647 52.996C224.106 52.492 223.686 51.8853 223.387 51.176C223.088 50.4667 222.939 49.6827 222.939 48.824C222.939 48.0587 223.07 47.3773 223.331 46.78C223.611 46.1827 223.994 45.6693 224.479 45.24H221.791V42.244ZM237.975 35.972H241.559V44.568H244.835V47.676H241.559V60.164H237.975V35.972ZM224.955 37.456H233.103V40.508H224.955V37.456ZM229.043 45.968C228.278 45.968 227.643 46.2293 227.139 46.752C226.654 47.256 226.411 47.9467 226.411 48.824C226.411 49.7013 226.654 50.392 227.139 50.896C227.643 51.4 228.278 51.652 229.043 51.652C229.808 51.652 230.434 51.4 230.919 50.896C231.404 50.392 231.647 49.7013 231.647 48.824C231.647 47.9467 231.404 47.256 230.919 46.752C230.434 46.2293 229.808 45.968 229.043 45.968ZM247.421 38.128H257.977V47.452H251.005V51.036H253.833C255.009 51.036 256.138 50.98 257.221 50.868C258.322 50.7373 259.246 50.532 259.993 50.252L260.637 52.688C259.685 53.2667 258.537 53.6587 257.193 53.864C255.849 54.0507 254.393 54.144 252.825 54.144H248.793C247.878 54.144 247.421 53.7613 247.421 52.996V44.484H254.421V41.18H247.421V38.128ZM262.905 35.972H266.489V60.164H262.905V45.968H259.209V42.888H262.905V35.972ZM286.15 57.392C284.732 57.392 283.425 57.14 282.23 56.636C281.036 56.132 280 55.4413 279.122 54.564C278.264 53.6867 277.592 52.6413 277.106 51.428C276.621 50.2147 276.378 48.8987 276.378 47.48C276.378 46.0613 276.621 44.7453 277.106 43.532C277.592 42.3187 278.264 41.2733 279.122 40.396C280 39.5187 281.036 38.828 282.23 38.324C283.425 37.82 284.732 37.568 286.15 37.568C288.11 37.568 289.8 37.9787 291.218 38.8C292.656 39.6027 293.794 40.704 294.634 42.104L291.918 44.148C291.321 43.1587 290.565 42.384 289.65 41.824C288.736 41.2453 287.588 40.956 286.206 40.956C285.292 40.956 284.461 41.124 283.714 41.46C282.968 41.796 282.324 42.2533 281.782 42.832C281.26 43.4107 280.849 44.1013 280.55 44.904C280.27 45.7067 280.13 46.5653 280.13 47.48C280.13 48.4133 280.27 49.2813 280.55 50.084C280.849 50.868 281.26 51.5493 281.782 52.128C282.324 52.7067 282.968 53.164 283.714 53.5C284.461 53.836 285.301 54.004 286.234 54.004C287.149 54.004 288.026 53.892 288.866 53.668C289.706 53.4253 290.397 53.108 290.938 52.716V49.468H286.654V46.304H294.578V54.592C294.093 54.9653 293.533 55.3293 292.898 55.684C292.264 56.02 291.573 56.3187 290.826 56.58C290.098 56.8227 289.333 57.0187 288.53 57.168C287.746 57.3173 286.953 57.392 286.15 57.392ZM306.602 57.392C305.202 57.392 303.904 57.14 302.71 56.636C301.534 56.132 300.516 55.4413 299.658 54.564C298.799 53.6867 298.127 52.6413 297.642 51.428C297.156 50.2147 296.914 48.8987 296.914 47.48C296.914 46.0613 297.156 44.7453 297.642 43.532C298.127 42.3187 298.799 41.2733 299.658 40.396C300.516 39.5187 301.534 38.828 302.71 38.324C303.904 37.82 305.202 37.568 306.602 37.568C308.002 37.568 309.29 37.82 310.466 38.324C311.66 38.828 312.687 39.5187 313.546 40.396C314.404 41.2733 315.076 42.3187 315.562 43.532C316.047 44.7453 316.29 46.0613 316.29 47.48C316.29 48.8987 316.047 50.2147 315.562 51.428C315.076 52.6413 314.404 53.6867 313.546 54.564C312.687 55.4413 311.66 56.132 310.466 56.636C309.29 57.14 308.002 57.392 306.602 57.392ZM306.602 40.956C305.687 40.956 304.856 41.124 304.11 41.46C303.382 41.796 302.756 42.2533 302.234 42.832C301.73 43.4107 301.338 44.1013 301.058 44.904C300.796 45.7067 300.666 46.5653 300.666 47.48C300.666 48.4133 300.796 49.2813 301.058 50.084C301.338 50.868 301.73 51.5493 302.234 52.128C302.756 52.7067 303.382 53.164 304.11 53.5C304.856 53.836 305.687 54.004 306.602 54.004C307.516 54.004 308.338 53.836 309.066 53.5C309.812 53.164 310.438 52.7067 310.942 52.128C311.464 51.5493 311.856 50.868 312.118 50.084C312.398 49.2813 312.538 48.4133 312.538 47.48C312.538 46.5653 312.398 45.7067 312.118 44.904C311.856 44.1013 311.464 43.4107 310.942 42.832C310.438 42.2533 309.812 41.796 309.066 41.46C308.338 41.124 307.516 40.956 306.602 40.956Z" fill="black"/>
<rect x="331.75" y="55.25" width="3.5" height="3.5" fill="black" stroke="black" stroke-width="0.5"/>
<rect x="335.75" y="51.25" width="3.5" height="3.5" fill="black" stroke="black" stroke-width="0.5"/>
<rect x="339.75" y="47.25" width="3.5" height="3.5" fill="black" stroke="black" stroke-width="0.5"/>
<rect x="335.75" y="43.25" width="3.5" height="3.5" fill="black" stroke="black" stroke-width="0.5"/>
<rect x="331.75" y="39.25" width="3.5" height="3.5" fill="black" stroke="black" stroke-width="0.5"/>
<rect x="327.75" y="59.25" width="3.5" height="3.5" fill="black" stroke="black" stroke-width="0.5"/>
<rect x="327.75" y="35.25" width="3.5" height="3.5" fill="black" stroke="black" stroke-width="0.5"/>
<rect x="6" width="426" height="6" fill="white"/>
<rect x="6" y="93" width="426" height="6" fill="white"/>
<rect x="432" y="5" width="6" height="88" fill="white"/>
<rect y="5" width="6" height="88" fill="white"/>
</svg>
