<svg width="531" height="373" viewBox="0 0 531 373" fill="none" xmlns="http://www.w3.org/2000/svg">
<path d="M469.23 154.5H530.434V215.704H469.23V154.5Z" fill="#002C5F"/>
<g style="mix-blend-mode:screen" opacity="0.5">
<rect x="469.23" y="154" width="61.2039" height="61.2039" fill="#002C5F"/>
</g>
<g style="mix-blend-mode:screen" opacity="0.5">
<rect x="408.025" y="215.389" width="61.2039" height="61.2039" fill="#002C5F"/>
</g>
<g style="mix-blend-mode:screen" opacity="0.5">
<rect x="346" y="45" width="61.2039" height="61.2039" fill="#002C5F"/>
</g>
<g style="mix-blend-mode:screen" opacity="0.5">
<rect x="122.408" y="188.611" width="61.2039" height="61.2039" fill="#002C5F"/>
</g>
<g style="mix-blend-mode:screen" opacity="0.5">
<rect x="122" y="311" width="61.2039" height="61.2039" fill="#002C5F"/>
</g>
<g style="mix-blend-mode:screen" opacity="0.5">
<rect x="244.816" y="127.408" width="61.2039" height="61.2039" fill="#002C5F"/>
</g>
<g style="mix-blend-mode:screen" opacity="0.5">
<rect x="61.2031" y="66.2041" width="61.2039" height="61.2039" fill="#002C5F"/>
</g>
<g style="mix-blend-mode:screen" opacity="0.5">
<rect y="5" width="61.2039" height="61.2039" fill="#002C5F"/>
</g>
<rect y="66.2041" width="61.2039" height="61.2039" fill="#002C5F"/>
<rect y="189" width="61.2039" height="61.2039" fill="#002C5F"/>
<g style="mix-blend-mode:screen" opacity="0.5">
<rect y="66.2041" width="61.2039" height="61.2039" fill="#002C5F"/>
</g>
<g style="mix-blend-mode:screen" opacity="0.5">
<rect x="61" y="127" width="61.2039" height="61.2039" fill="#002C5F"/>
</g>
<g style="mix-blend-mode:screen" opacity="0.5">
<rect y="188.611" width="61.2039" height="61.2039" fill="#002C5F"/>
</g>
<g clip-path="url(#clip0_397_1704)">
<path d="M186.793 199.439C187.917 209.113 190.193 218.473 194.042 227.43C197.952 236.544 203.116 244.813 210.541 251.512C216.427 256.82 223.165 260.34 231.129 261.35C238.363 262.264 245.578 263.321 252.806 264.317C260.94 265.443 269.081 266.568 277.222 267.694C285.362 268.82 293.503 269.939 301.644 271.057C309.002 272.074 316.359 273.097 323.717 274.093C327.416 274.598 331.115 275.055 334.548 275.499C335.039 275.464 335.536 275.43 336.027 275.396C342.076 275.014 347.587 273.179 352.54 269.659C357.779 265.934 361.846 261.158 365.15 255.68C369.919 247.78 372.718 239.178 374.394 230.152C375.634 223.446 375.798 216.672 375.961 209.891C376.111 203.457 375.866 197.031 376.104 190.598C376.343 184.253 376.016 177.895 376.268 171.55C376.404 168.092 376.315 164.626 376.315 161.16C376.329 154.98 376.363 148.799 375.546 142.638C374.088 131.655 371.165 121.128 366.104 111.243C362.186 103.568 357.261 96.6713 350.585 91.1317C345.837 87.1886 340.536 84.3028 334.419 83.1772C330.733 82.495 327 82.0106 323.287 81.4649C314.24 80.1277 305.194 78.8042 296.147 77.4739C286.35 76.0277 276.547 74.5746 266.751 73.1283C256.519 71.6206 246.279 70.1743 236.061 68.5916C231.926 67.9503 227.818 67.5887 223.649 67.9298C218.471 68.8508 193.381 75.4273 187.72 116.974C187.583 117.99 187.427 118.945 187.263 119.839C186.929 122.95 186.752 126.074 186.684 129.219C186.589 133.579 186.575 137.938 186.534 142.304C186.48 148.11 186.425 153.915 186.371 159.721C186.316 165.881 186.228 172.042 186.207 178.202C186.187 185.29 185.969 192.371 186.793 199.439Z" fill="white"/>
<mask id="path-16-inside-1_397_1704" fill="white">
<path d="M220.778 190.672C220.778 191.825 220.792 192.555 220.71 193.824C220.281 200.489 220.322 207.174 220.58 213.853C220.717 217.298 219.872 215.879 223.149 216.712C224.627 217.087 226.146 217.319 227.679 217.333C228.933 217.346 229.491 217.53 229.43 218.574C229.334 220.232 229.362 221.897 229.3 223.561C229.28 224.127 229.416 224.346 230.036 224.421C232.243 224.694 234.444 225.069 236.644 225.362C237.135 225.43 237.278 225.601 237.271 226.078C237.257 227.443 237.305 228.807 237.285 230.165C237.285 230.677 237.441 230.868 237.966 230.936C243.457 231.686 248.941 232.457 254.432 233.228C260.106 234.026 265.781 234.831 271.456 235.623C276.354 236.305 281.252 236.96 286.15 237.642C291.825 238.433 297.5 239.252 303.175 240.043C309.633 240.944 316.091 241.831 322.549 242.718C323.237 242.813 323.925 242.902 324.838 243.025C324.838 241.544 324.825 240.193 324.838 238.836C324.852 237.812 324.927 237.758 325.915 237.894C327.876 238.16 329.845 238.44 331.807 238.699C332.066 238.733 332.339 238.699 332.761 238.699V232.082C335.765 232.484 338.592 232.86 341.617 233.262V207.7C339.655 207.42 337.618 207.127 335.588 206.833C332.659 206.417 329.743 205.933 326.807 205.605C324.988 205.401 325.233 204.91 325.192 206.956C325.158 208.614 325.192 210.265 325.192 212.039C322.215 211.643 319.361 211.261 316.35 210.858V215.491C314.892 215.3 313.584 215.136 312.276 214.958C308.917 214.488 305.566 214.017 302.207 213.539C298.93 213.076 295.66 212.605 292.384 212.141C289.482 211.732 286.579 211.336 283.677 210.927C280.346 210.456 277.022 209.978 273.69 209.508C270.441 209.051 267.191 208.6 263.942 208.143C260.61 207.673 257.279 207.202 253.955 206.731C251.829 206.431 249.71 206.131 247.578 205.851C246.883 205.762 246.345 205.176 246.338 204.473C246.332 203.545 246.352 202.617 246.372 201.696C246.386 201.212 246.243 201.001 245.691 200.925C243.191 200.598 240.704 200.189 238.204 199.848C237.625 199.766 237.496 199.506 237.516 198.988C237.564 197.242 237.564 195.502 237.618 193.755C237.639 193.162 237.448 192.985 236.849 192.91C232.386 192.302 227.938 191.641 223.483 191.006C222.631 190.883 221.779 190.795 220.778 190.679V190.672Z"/>
</mask>
<path d="M220.778 190.672C220.778 191.825 220.792 192.555 220.71 193.824C220.281 200.489 220.322 207.174 220.58 213.853C220.717 217.298 219.872 215.879 223.149 216.712C224.627 217.087 226.146 217.319 227.679 217.333C228.933 217.346 229.491 217.53 229.43 218.574C229.334 220.232 229.362 221.897 229.3 223.561C229.28 224.127 229.416 224.346 230.036 224.421C232.243 224.694 234.444 225.069 236.644 225.362C237.135 225.43 237.278 225.601 237.271 226.078C237.257 227.443 237.305 228.807 237.285 230.165C237.285 230.677 237.441 230.868 237.966 230.936C243.457 231.686 248.941 232.457 254.432 233.228C260.106 234.026 265.781 234.831 271.456 235.623C276.354 236.305 281.252 236.96 286.15 237.642C291.825 238.433 297.5 239.252 303.175 240.043C309.633 240.944 316.091 241.831 322.549 242.718C323.237 242.813 323.925 242.902 324.838 243.025C324.838 241.544 324.825 240.193 324.838 238.836C324.852 237.812 324.927 237.758 325.915 237.894C327.876 238.16 329.845 238.44 331.807 238.699C332.066 238.733 332.339 238.699 332.761 238.699V232.082C335.765 232.484 338.592 232.86 341.617 233.262V207.7C339.655 207.42 337.618 207.127 335.588 206.833C332.659 206.417 329.743 205.933 326.807 205.605C324.988 205.401 325.233 204.91 325.192 206.956C325.158 208.614 325.192 210.265 325.192 212.039C322.215 211.643 319.361 211.261 316.35 210.858V215.491C314.892 215.3 313.584 215.136 312.276 214.958C308.917 214.488 305.566 214.017 302.207 213.539C298.93 213.076 295.66 212.605 292.384 212.141C289.482 211.732 286.579 211.336 283.677 210.927C280.346 210.456 277.022 209.978 273.69 209.508C270.441 209.051 267.191 208.6 263.942 208.143C260.61 207.673 257.279 207.202 253.955 206.731C251.829 206.431 249.71 206.131 247.578 205.851C246.883 205.762 246.345 205.176 246.338 204.473C246.332 203.545 246.352 202.617 246.372 201.696C246.386 201.212 246.243 201.001 245.691 200.925C243.191 200.598 240.704 200.189 238.204 199.848C237.625 199.766 237.496 199.506 237.516 198.988C237.564 197.242 237.564 195.502 237.618 193.755C237.639 193.162 237.448 192.985 236.849 192.91C232.386 192.302 227.938 191.641 223.483 191.006C222.631 190.883 221.779 190.795 220.778 190.679V190.672Z" fill="black" stroke="black" stroke-width="1.36442" mask="url(#path-16-inside-1_397_1704)"/>
<path d="M170.75 193.927C170.893 198.538 171.493 203.157 172.208 207.721C173.271 214.564 175.233 221.195 177.863 227.607C180.826 234.832 184.621 241.565 189.689 247.535C194.642 253.361 200.419 258.088 207.66 260.845C210.664 261.991 213.791 262.502 216.952 262.932C223.962 263.887 230.972 264.856 237.976 265.825C245.285 266.827 252.588 267.83 259.891 268.84C267.651 269.911 275.417 270.982 283.176 272.046C291.263 273.165 299.349 274.277 307.435 275.382C310.426 275.785 313.417 276.303 316.421 276.528C317.525 276.61 318.635 276.638 319.745 276.624C320.883 276.644 322.028 276.61 323.172 276.501C323.254 276.494 323.342 276.488 323.424 276.481C323.887 276.433 324.344 276.392 324.807 276.344C327.294 276.187 329.787 275.887 332.273 275.669C333.03 275.608 333.786 275.553 334.549 275.498C331.115 275.055 327.416 274.598 323.717 274.093C316.36 273.097 309.002 272.074 301.645 271.057C293.504 269.938 285.363 268.82 277.222 267.694C269.081 266.568 260.94 265.443 252.806 264.317C245.578 263.321 238.364 262.264 231.129 261.349C223.165 260.34 216.428 256.819 210.542 251.512C203.116 244.813 197.952 236.544 194.042 227.43C190.193 218.473 187.918 209.113 186.794 199.439C185.969 192.371 186.187 185.29 186.208 178.202C186.228 172.041 186.317 165.881 186.371 159.721C186.426 153.915 186.48 148.11 186.535 142.304C186.576 137.938 186.589 133.579 186.685 129.219C186.753 126.074 186.93 122.95 187.264 119.839C187.427 118.945 187.584 117.99 187.72 116.974C193.381 75.4272 218.472 68.8507 223.649 67.9297C223.159 67.9706 222.668 68.0184 222.171 68.0798C218.233 68.5641 214.261 68.8234 210.31 69.2054C207.156 69.5124 204.07 70.1264 201.127 71.3748C195.595 73.7148 191.038 77.351 187.155 81.8877C181.821 88.1367 178.21 95.3408 175.662 103.104C175.444 103.766 175.24 104.428 175.042 105.096C173.462 110.186 172.46 115.398 171.806 120.692C171.513 123.038 171.35 125.385 171.255 127.739C171.071 132.214 171.132 136.703 171.016 141.185C170.791 150.299 170.744 159.421 170.764 168.542C170.771 177.001 170.478 185.474 170.75 193.927Z" fill="#BCC2CB"/>
<mask id="path-18-inside-2_397_1704" fill="white">
<path d="M204.104 130.529C204.362 125.965 205.248 121.524 206.849 117.233C208.566 112.642 210.984 108.473 214.431 104.946C217.286 102.027 220.644 100.014 224.745 99.4273C226.918 99.1203 229.078 99.3113 231.237 99.6388C234.8 100.185 238.377 100.655 241.947 101.174C245.946 101.754 249.938 102.347 253.937 102.934C257.479 103.452 261.021 103.971 264.557 104.489C267.752 104.953 270.94 105.417 274.135 105.881C277.303 106.338 280.471 106.802 283.632 107.266C286.827 107.73 290.015 108.2 293.21 108.664C296.726 109.176 300.241 109.674 303.756 110.193C306.951 110.656 310.139 111.141 313.327 111.612C316.522 112.082 319.711 112.546 322.906 113.017C326.074 113.481 329.235 113.952 332.402 114.395C334.998 114.757 337.525 115.323 339.896 116.517C346.484 119.819 350.578 125.679 353.827 132.344C356.069 136.935 357.561 141.861 358.29 146.916C359.434 154.809 359.284 162.627 357.363 170.322C355.714 176.926 352.744 182.82 347.71 187.534C343.425 191.553 338.363 192.985 332.586 192.119C328.151 191.457 323.716 190.836 319.282 190.202C314.819 189.567 310.35 188.94 305.888 188.312C300.67 187.575 295.458 186.839 290.24 186.102C285.131 185.379 280.015 184.662 274.905 183.932C270.47 183.298 266.035 182.65 261.594 182.022C255.973 181.224 250.36 180.426 244.74 179.628C240.005 178.952 235.277 178.209 230.536 177.622C226.142 177.076 222.231 175.494 218.825 172.69C214.772 169.36 211.87 165.131 209.54 160.485C205.548 152.53 203.892 144.051 204.083 135.202C204.083 133.654 204.008 132.098 204.097 130.55L204.104 130.529Z"/>
</mask>
<path d="M204.104 130.529C204.362 125.965 205.248 121.524 206.849 117.233C208.566 112.642 210.984 108.473 214.431 104.946C217.286 102.027 220.644 100.014 224.745 99.4273C226.918 99.1203 229.078 99.3113 231.237 99.6388C234.8 100.185 238.377 100.655 241.947 101.174C245.946 101.754 249.938 102.347 253.937 102.934C257.479 103.452 261.021 103.971 264.557 104.489C267.752 104.953 270.94 105.417 274.135 105.881C277.303 106.338 280.471 106.802 283.632 107.266C286.827 107.73 290.015 108.2 293.21 108.664C296.726 109.176 300.241 109.674 303.756 110.193C306.951 110.656 310.139 111.141 313.327 111.612C316.522 112.082 319.711 112.546 322.906 113.017C326.074 113.481 329.235 113.952 332.402 114.395C334.998 114.757 337.525 115.323 339.896 116.517C346.484 119.819 350.578 125.679 353.827 132.344C356.069 136.935 357.561 141.861 358.29 146.916C359.434 154.809 359.284 162.627 357.363 170.322C355.714 176.926 352.744 182.82 347.71 187.534C343.425 191.553 338.363 192.985 332.586 192.119C328.151 191.457 323.716 190.836 319.282 190.202C314.819 189.567 310.35 188.94 305.888 188.312C300.67 187.575 295.458 186.839 290.24 186.102C285.131 185.379 280.015 184.662 274.905 183.932C270.47 183.298 266.035 182.65 261.594 182.022C255.973 181.224 250.36 180.426 244.74 179.628C240.005 178.952 235.277 178.209 230.536 177.622C226.142 177.076 222.231 175.494 218.825 172.69C214.772 169.36 211.87 165.131 209.54 160.485C205.548 152.53 203.892 144.051 204.083 135.202C204.083 133.654 204.008 132.098 204.097 130.55L204.104 130.529Z" fill="black" stroke="black" stroke-width="1.36442" mask="url(#path-18-inside-2_397_1704)"/>
<path d="M343.221 137.23V164.402L325.195 161.878V134.617L343.221 137.23Z" fill="white"/>
<path d="M325.195 134.617L319.241 135.361V162.574L325.195 161.878V134.617Z" fill="#BCC2CB"/>
<path d="M343.221 164.402L336.436 164.798L319.241 162.574L325.195 161.878L343.221 164.402Z" fill="#BCC2CB"/>
<path d="M247.268 124.192V151.364L229.242 148.84V121.579L247.268 124.192Z" fill="white"/>
<path d="M229.242 121.579L223.281 122.316V149.536L229.242 148.84V121.579Z" fill="#BCC2CB"/>
<path d="M247.268 151.364L240.482 151.753L223.281 149.536L229.242 148.84L247.268 151.364Z" fill="#BCC2CB"/>
</g>
<rect width="9.98645" height="9.99942" transform="matrix(1 5.46136e-10 -0.000559226 1 105.986 109.993)" fill="white"/>
<rect width="9.98645" height="9.99942" transform="matrix(1 5.46136e-10 -0.000559226 1 115.979 99.9951)" fill="white"/>
<rect width="9.98645" height="9.99942" transform="matrix(1 5.46136e-10 -0.000559226 1 115.973 109.994)" fill="white"/>
<rect width="9.98645" height="9.99942" transform="matrix(1 5.46136e-10 -0.000559226 1 135.955 89.9971)" fill="white"/>
<rect width="9.98645" height="9.99942" transform="matrix(1 5.46136e-10 -0.000559226 1 125.959 109.994)" fill="white"/>
<rect width="9.98645" height="9.99942" transform="matrix(1 5.46136e-10 -0.000559226 1 115.967 119.992)" fill="white"/>
<rect width="9.98645" height="9.99942" transform="matrix(1 5.46136e-10 -0.000559226 1 105.982 119.996)" fill="white"/>
<rect width="9.98645" height="9.99942" transform="matrix(1 5.46136e-10 -0.000559226 1 95.9883 129.994)" fill="white"/>
<rect width="9.98645" height="9.99942" transform="matrix(1 5.46136e-10 -0.000559226 1 95.9941 119.995)" fill="white"/>
<rect width="9.98645" height="9.99942" transform="matrix(1 5.46136e-10 -0.000559226 1 86.002 129.994)" fill="white"/>
<rect width="9.98645" height="9.99942" transform="matrix(1 5.46136e-10 -0.000559226 1 105.977 129.994)" fill="white"/>
<rect width="9.98645" height="9.99942" transform="matrix(1 5.46136e-10 -0.000559226 1 76.0117 139.992)" fill="white"/>
<rect width="9.98645" height="9.99942" transform="matrix(1 5.46136e-10 -0.000559226 1 85.9922 149.99)" fill="white"/>
<rect width="9.98645" height="9.99942" transform="matrix(1 5.46136e-10 -0.000559226 1 95.9844 139.993)" fill="white"/>
<rect width="9.98645" height="9.99942" transform="matrix(1 5.46136e-10 -0.000559226 1 85.9961 139.992)" fill="white"/>
<rect width="9.98645" height="9.99942" transform="matrix(1 5.46136e-10 -0.000559226 1 125.982 69.9961)" fill="white"/>
<rect width="9.98645" height="9.99942" transform="matrix(1 5.46136e-10 -0.000559226 1 125.986 59.9971)" fill="white"/>
<rect width="9.98645" height="9.99942" transform="matrix(1 5.46136e-10 -0.000559226 1 125.992 49.999)" fill="white"/>
<rect width="9.98645" height="9.99942" transform="matrix(1 5.46136e-10 -0.000559226 1 125.998 39.9971)" fill="white"/>
<rect width="9.98645" height="9.99942" transform="matrix(1 5.46136e-10 -0.000559226 1 126.004 29.998)" fill="white"/>
<rect width="9.98645" height="9.99942" transform="matrix(1 5.46136e-10 -0.000559226 1 135.996 20)" fill="white"/>
<rect width="9.98645" height="9.99942" transform="matrix(1 5.46136e-10 -0.000559226 1 145.986 10.002)" fill="white"/>
<rect width="9.98645" height="9.99942" transform="matrix(1 5.46136e-10 -0.000559226 1 155.98 0)" fill="white"/>
<rect width="9.98645" height="9.99942" transform="matrix(1 5.46136e-10 -0.000559226 1 165.967 0)" fill="white"/>
<rect width="9.98645" height="9.99942" transform="matrix(1 5.46136e-10 -0.000559226 1 175.955 0.000976562)" fill="white"/>
<rect width="9.98645" height="9.99942" transform="matrix(1 5.46136e-10 -0.000559226 1 185.939 0.000976562)" fill="white"/>
<rect width="9.98645" height="9.99942" transform="matrix(1 5.46136e-10 -0.000559226 1 195.928 0.00195312)" fill="white"/>
<rect width="9.98645" height="9.99942" transform="matrix(1 5.46136e-10 -0.000559226 1 205.906 10)" fill="white"/>
<rect width="9.98645" height="9.99942" transform="matrix(1 5.46136e-10 -0.000559226 1 215.889 19.999)" fill="white"/>
<rect width="9.98645" height="9.99942" transform="matrix(1 5.46136e-10 -0.000559226 1 225.869 29.998)" fill="white"/>
<rect width="9.98645" height="9.99942" transform="matrix(1 5.46136e-10 -0.000559226 1 225.863 40)" fill="white"/>
<rect width="9.98645" height="9.99942" transform="matrix(1 5.46136e-10 -0.000559226 1 225.857 49.999)" fill="white"/>
<rect width="9.98645" height="9.99942" transform="matrix(1 5.46136e-10 -0.000559226 1 225.852 59.9971)" fill="white"/>
<rect width="9.98645" height="9.99942" transform="matrix(1 5.46136e-10 -0.000559226 1 225.846 69.9961)" fill="white"/>
<rect width="9.98645" height="9.99942" transform="matrix(1 5.46136e-10 -0.000559226 1 215.854 79.998)" fill="white"/>
<rect width="9.98645" height="9.99942" transform="matrix(1 5.46136e-10 -0.000559226 1 205.863 89.9961)" fill="white"/>
<rect width="9.98645" height="9.99942" transform="matrix(1 5.46136e-10 -0.000559226 1 195.869 99.9941)" fill="white"/>
<rect width="9.98645" height="9.99942" transform="matrix(1 5.46136e-10 -0.000559226 1 185.885 99.9941)" fill="white"/>
<rect width="9.98645" height="9.99942" transform="matrix(1 5.46136e-10 -0.000559226 1 175.898 99.9941)" fill="white"/>
<rect width="9.98645" height="9.99942" transform="matrix(1 5.46136e-10 -0.000559226 1 165.912 99.9932)" fill="white"/>
<rect width="9.98645" height="9.99942" transform="matrix(1 5.46136e-10 -0.000559226 1 155.926 99.9971)" fill="white"/>
<rect width="9.98645" height="9.99942" transform="matrix(1 5.46136e-10 -0.000559226 1 145.943 89.9941)" fill="white"/>
<rect width="9.98645" height="9.99942" transform="matrix(1 5.46136e-10 -0.000559226 1 135.963 79.9951)" fill="white"/>
<rect width="9.98645" height="9.99942" transform="matrix(1 5.46136e-10 -0.000559226 1 155.963 29.999)" fill="white"/>
<rect width="9.98645" height="9.99942" transform="matrix(1 5.46136e-10 -0.000559226 1 145.973 39.9971)" fill="white"/>
<rect width="9.98645" height="9.99942" transform="matrix(1 5.46136e-10 -0.000559226 1 165.957 20.001)" fill="white"/>
<rect width="9.98645" height="9.99942" transform="matrix(1 5.46136e-10 -0.000559226 1 175.941 20.002)" fill="white"/>
<rect width="9.98645" height="9.99942" transform="matrix(1 5.46136e-10 -0.000559226 1 185.928 19.998)" fill="white"/>
<rect width="9.98645" height="9.99942" transform="matrix(1 5.46136e-10 -0.000559226 1 195.908 30.001)" fill="white"/>
<defs>
<clipPath id="clip0_397_1704">
<rect width="205.709" height="208.831" fill="white" transform="matrix(-1 0 0 1 376.342 67.8008)"/>
</clipPath>
</defs>
</svg>
