<svg width="773" height="143" viewBox="0 0 773 143" fill="none" xmlns="http://www.w3.org/2000/svg">
<rect x="8.68074" y="8.68074" width="755.519" height="125.08" rx="10.6098" stroke="black" stroke-width="17.3615" stroke-dasharray="9 9"/>
<path d="M64.4395 41.0957V36.7207H86.3145H108.189V41.0957V45.4707H90.6895H73.1895V49.8457V54.2207H68.8145H64.4395V67.3457V80.4707H68.8145H73.1895V84.8457V89.2207H81.9395H90.6895V80.4707V71.7207H86.3145H81.9395V67.3457V62.9707H95.0645H108.189V80.4707V97.9707H86.3145H64.4395V93.5957V89.2207H60.0645H55.6895V84.8457V80.4707H51.3145H46.9395V67.3457V54.2207H51.3145H55.6895V49.8457V45.4707H60.0645H64.4395V41.0957ZM133.739 41.0957V36.7207H146.864H159.989V41.0957V45.4707H164.364H168.739V49.8457V54.2207H173.114H177.489V76.0957V97.9707H168.739H159.989V89.2207V80.4707H146.864H133.739V89.2207V97.9707H124.989H116.239V76.0957V54.2207H120.614H124.989V49.8457V45.4707H129.364H133.739V41.0957ZM151.239 49.8457V45.4707H146.864H142.489V49.8457V54.2207H138.114H133.739V62.9707V71.7207H146.864H159.989V62.9707V54.2207H155.614H151.239V49.8457ZM185.539 67.3457V36.7207H194.289H203.039V41.0957V45.4707H207.414H211.789V49.8457V54.2207H216.164H220.539V49.8457V45.4707H224.914H229.289V41.0957V36.7207H238.039H246.789V67.3457V97.9707H238.039H229.289V84.8457V71.7207H224.914H220.539V76.0957V80.4707H216.164H211.789V76.0957V71.7207H207.414H203.039V84.8457V97.9707H194.289H185.539V67.3457ZM254.839 67.3457V36.7207H285.464H316.089V41.0957V45.4707H294.214H272.339V54.2207V62.9707H289.839H307.339V67.3457V71.7207H289.839H272.339V80.4707V89.2207H294.214H316.089V93.5957V97.9707H285.464H254.839V67.3457ZM402.189 41.0957V36.7207H419.689H437.189V41.0957V45.4707H441.564H445.939V49.8457V54.2207H437.189H428.439V49.8457V45.4707H419.689H410.939V54.2207V62.9707H428.439H445.939V67.3457V71.7207H450.314H454.689V80.4707V89.2207H450.314H445.939V93.5957V97.9707H424.064H402.189V93.5957V89.2207H397.814H393.439V84.8457V80.4707H402.189H410.939V84.8457V89.2207H424.064H437.189V80.4707V71.7207H419.689H402.189V67.3457V62.9707H397.814H393.439V54.2207V45.4707H397.814H402.189V41.0957ZM460.289 41.0957V36.7207H486.539H512.789V41.0957V45.4707H504.039H495.289V71.7207V97.9707H486.539H477.789V71.7207V45.4707H469.039H460.289V41.0957ZM534.839 41.0957V36.7207H547.964H561.089V41.0957V45.4707H565.464H569.839V49.8457V54.2207H574.214H578.589V76.0957V97.9707H569.839H561.089V89.2207V80.4707H547.964H534.839V89.2207V97.9707H526.089H517.339V76.0957V54.2207H521.714H526.089V49.8457V45.4707H530.464H534.839V41.0957ZM552.339 49.8457V45.4707H547.964H543.589V49.8457V54.2207H539.214H534.839V62.9707V71.7207H547.964H561.089V62.9707V54.2207H556.714H552.339V49.8457ZM586.639 67.3457V36.7207H612.889H639.139V41.0957V45.4707H643.514H647.889V58.5957V71.7207H639.139H630.389V76.0957V80.4707H634.764H639.139V84.8457V89.2207H643.514H647.889V93.5957V97.9707H634.764H621.639V93.5957V89.2207H617.264H612.889V84.8457V80.4707H608.514H604.139V89.2207V97.9707H595.389H586.639V67.3457ZM630.389 54.2207V45.4707H617.264H604.139V58.5957V71.7207H612.889H621.639V67.3457V62.9707H626.014H630.389V54.2207ZM664.689 41.0957V36.7207H690.939H717.189V41.0957V45.4707H708.439H699.689V71.7207V97.9707H690.939H682.189V71.7207V45.4707H673.439H664.689V41.0957Z" fill="black"/>
</svg>
