<svg width="668" height="133" viewBox="0 0 668 133" fill="none" xmlns="http://www.w3.org/2000/svg">
<path d="M647.916 93H667.916V113H647.916V93ZM647.916 83V3H667.916V83H647.916Z" fill="black"/>
<path d="M560.678 133V33H580.678V43H590.678V33H620.678V43H630.678V103H620.678V113H590.678V103H580.678V133H560.678ZM580.678 83H590.678V93H610.678V53H590.678V63H580.678V83Z" fill="black"/>
<path d="M473.438 103V33H493.438V93H513.438V83H523.438V33H543.438V113H523.438V103H513.438V113H483.438V103H473.438Z" fill="black"/>
<path d="M328.961 113H348.961V83H338.961V63H328.961V33H348.961V53H358.961V73H368.961V53H378.961V33H398.961V63H388.961V93H378.961V113H368.961V123H358.961V133H328.961V113Z" fill="black"/>
<path d="M261.76 113V33H281.76V43H291.76V33H311.76V53H291.76V63H281.76V113H261.76Z" fill="black"/>
<path d="M194.561 113V33H214.561V43H224.561V33H244.561V53H224.561V63H214.561V113H194.561Z" fill="black"/>
<path d="M107.32 103V33H127.32V93H147.32V83H157.32V33H177.32V113H157.32V103H147.32V113H117.32V103H107.32Z" fill="black"/>
<path d="M20.082 113V3H40.082V43H70.082V3H90.082V113H70.082V63H40.082V113H20.082Z" fill="black"/>
<path d="M627.916 90H647.916V110H627.916V90ZM627.916 80V0H647.916V80H627.916Z" fill="url(#paint0_linear_1130_763)"/>
<path d="M540.678 130V30H560.678V40H570.678V30H600.678V40H610.678V100H600.678V110H570.678V100H560.678V130H540.678ZM560.678 80H570.678V90H590.678V50H570.678V60H560.678V80Z" fill="url(#paint1_linear_1130_763)"/>
<path d="M453.438 100V30H473.438V90H493.438V80H503.438V30H523.438V110H503.438V100H493.438V110H463.438V100H453.438Z" fill="url(#paint2_linear_1130_763)"/>
<path d="M308.961 110H328.961V80H318.961V60H308.961V30H328.961V50H338.961V70H348.961V50H358.961V30H378.961V60H368.961V90H358.961V110H348.961V120H338.961V130H308.961V110Z" fill="url(#paint3_linear_1130_763)"/>
<path d="M241.76 110V30H261.76V40H271.76V30H291.76V50H271.76V60H261.76V110H241.76Z" fill="url(#paint4_linear_1130_763)"/>
<path d="M174.561 110V30H194.561V40H204.561V30H224.561V50H204.561V60H194.561V110H174.561Z" fill="url(#paint5_linear_1130_763)"/>
<path d="M87.3203 100V30H107.32V90H127.32V80H137.32V30H157.32V110H137.32V100H127.32V110H97.3203V100H87.3203Z" fill="url(#paint6_linear_1130_763)"/>
<path d="M0.0820312 110V0H20.082V40H50.082V0H70.082V110H50.082V60H20.082V110H0.0820312Z" fill="url(#paint7_linear_1130_763)"/>
<defs>
<linearGradient id="paint0_linear_1130_763" x1="671.332" y1="-111.5" x2="671.332" y2="150" gradientUnits="userSpaceOnUse">
<stop offset="0.589557" stop-color="white"/>
<stop offset="1" stop-color="#0000FF"/>
</linearGradient>
<linearGradient id="paint1_linear_1130_763" x1="671.333" y1="-111.5" x2="671.333" y2="150" gradientUnits="userSpaceOnUse">
<stop offset="0.589557" stop-color="white"/>
<stop offset="1" stop-color="#0000FF"/>
</linearGradient>
<linearGradient id="paint2_linear_1130_763" x1="671.331" y1="-111.5" x2="671.331" y2="150" gradientUnits="userSpaceOnUse">
<stop offset="0.589557" stop-color="white"/>
<stop offset="1" stop-color="#0000FF"/>
</linearGradient>
<linearGradient id="paint3_linear_1130_763" x1="671.333" y1="-111.5" x2="671.333" y2="150" gradientUnits="userSpaceOnUse">
<stop offset="0.589557" stop-color="white"/>
<stop offset="1" stop-color="#0000FF"/>
</linearGradient>
<linearGradient id="paint4_linear_1130_763" x1="671.332" y1="-111.5" x2="671.332" y2="150" gradientUnits="userSpaceOnUse">
<stop offset="0.589557" stop-color="white"/>
<stop offset="1" stop-color="#0000FF"/>
</linearGradient>
<linearGradient id="paint5_linear_1130_763" x1="671.333" y1="-111.5" x2="671.333" y2="150" gradientUnits="userSpaceOnUse">
<stop offset="0.589557" stop-color="white"/>
<stop offset="1" stop-color="#0000FF"/>
</linearGradient>
<linearGradient id="paint6_linear_1130_763" x1="671.331" y1="-111.5" x2="671.331" y2="150" gradientUnits="userSpaceOnUse">
<stop offset="0.589557" stop-color="white"/>
<stop offset="1" stop-color="#0000FF"/>
</linearGradient>
<linearGradient id="paint7_linear_1130_763" x1="671.332" y1="-111.5" x2="671.332" y2="150" gradientUnits="userSpaceOnUse">
<stop offset="0.589557" stop-color="white"/>
<stop offset="1" stop-color="#0000FF"/>
</linearGradient>
</defs>
</svg>
