<svg width="462" height="914" viewBox="0 0 462 914" fill="none" xmlns="http://www.w3.org/2000/svg">
<rect x="15" y="1" width="48" height="48" stroke="#0000FF" stroke-opacity="0.4" stroke-width="0.5"/>
<rect x="63" y="1" width="48" height="48" stroke="#0000FF" stroke-opacity="0.4" stroke-width="0.5"/>
<rect x="111" y="1" width="48" height="48" stroke="#0000FF" stroke-opacity="0.4" stroke-width="0.5"/>
<rect x="159" y="1" width="48" height="48" stroke="#0000FF" stroke-opacity="0.4" stroke-width="0.5"/>
<rect x="207" y="1" width="48" height="48" stroke="#0000FF" stroke-opacity="0.4" stroke-width="0.5"/>
<rect x="255" y="1" width="48" height="48" stroke="#0000FF" stroke-opacity="0.4" stroke-width="0.5"/>
<rect x="303" y="1" width="48" height="48" stroke="#0000FF" stroke-opacity="0.4" stroke-width="0.5"/>
<rect x="351" y="1" width="48" height="48" stroke="#0000FF" stroke-opacity="0.4" stroke-width="0.5"/>
<rect x="15" y="49" width="48" height="48" stroke="#0000FF" stroke-opacity="0.4" stroke-width="0.5"/>
<rect x="63" y="49" width="48" height="48" stroke="#0000FF" stroke-opacity="0.4" stroke-width="0.5"/>
<rect x="111" y="49" width="48" height="48" stroke="#0000FF" stroke-opacity="0.4" stroke-width="0.5"/>
<rect x="159" y="49" width="48" height="48" stroke="#0000FF" stroke-opacity="0.4" stroke-width="0.5"/>
<rect x="207" y="49" width="48" height="48" stroke="#0000FF" stroke-opacity="0.4" stroke-width="0.5"/>
<rect x="255" y="49" width="48" height="48" stroke="#0000FF" stroke-opacity="0.4" stroke-width="0.5"/>
<rect x="303" y="49" width="48" height="48" stroke="#0000FF" stroke-opacity="0.4" stroke-width="0.5"/>
<rect x="351" y="49" width="48" height="48" stroke="#0000FF" stroke-opacity="0.4" stroke-width="0.5"/>
<rect x="15" y="97" width="48" height="48" stroke="#0000FF" stroke-opacity="0.4" stroke-width="0.5"/>
<rect x="63" y="97" width="48" height="48" stroke="#0000FF" stroke-opacity="0.4" stroke-width="0.5"/>
<rect x="111" y="97" width="48" height="48" stroke="#0000FF" stroke-opacity="0.4" stroke-width="0.5"/>
<rect x="159" y="97" width="48" height="48" stroke="#0000FF" stroke-opacity="0.4" stroke-width="0.5"/>
<rect x="207" y="97" width="48" height="48" stroke="#0000FF" stroke-opacity="0.4" stroke-width="0.5"/>
<rect x="255" y="97" width="48" height="48" stroke="#0000FF" stroke-opacity="0.4" stroke-width="0.5"/>
<rect x="303" y="97" width="48" height="48" stroke="#0000FF" stroke-opacity="0.4" stroke-width="0.5"/>
<rect x="351" y="97" width="48" height="48" stroke="#0000FF" stroke-opacity="0.4" stroke-width="0.5"/>
<rect x="15" y="145" width="48" height="48" stroke="#0000FF" stroke-opacity="0.4" stroke-width="0.5"/>
<rect x="63" y="145" width="48" height="48" stroke="#0000FF" stroke-opacity="0.4" stroke-width="0.5"/>
<rect x="111" y="145" width="48" height="48" stroke="#0000FF" stroke-opacity="0.4" stroke-width="0.5"/>
<rect x="159" y="145" width="48" height="48" stroke="#0000FF" stroke-opacity="0.4" stroke-width="0.5"/>
<rect x="207" y="145" width="48" height="48" stroke="#0000FF" stroke-opacity="0.4" stroke-width="0.5"/>
<rect x="255" y="145" width="48" height="48" stroke="#0000FF" stroke-opacity="0.4" stroke-width="0.5"/>
<rect x="303" y="145" width="48" height="48" stroke="#0000FF" stroke-opacity="0.4" stroke-width="0.5"/>
<rect x="351" y="145" width="48" height="48" stroke="#0000FF" stroke-opacity="0.4" stroke-width="0.5"/>
<rect x="15" y="193" width="48" height="48" stroke="#0000FF" stroke-opacity="0.4" stroke-width="0.5"/>
<rect x="63" y="193" width="48" height="48" stroke="#0000FF" stroke-opacity="0.4" stroke-width="0.5"/>
<rect x="111" y="193" width="48" height="48" stroke="#0000FF" stroke-opacity="0.4" stroke-width="0.5"/>
<rect x="159" y="193" width="48" height="48" stroke="#0000FF" stroke-opacity="0.4" stroke-width="0.5"/>
<rect x="207" y="193" width="48" height="48" stroke="#0000FF" stroke-opacity="0.4" stroke-width="0.5"/>
<rect x="255" y="193" width="48" height="48" stroke="#0000FF" stroke-opacity="0.4" stroke-width="0.5"/>
<rect x="303" y="193" width="48" height="48" stroke="#0000FF" stroke-opacity="0.4" stroke-width="0.5"/>
<rect x="351" y="193" width="48" height="48" stroke="#0000FF" stroke-opacity="0.4" stroke-width="0.5"/>
<rect x="15" y="241" width="48" height="48" stroke="#0000FF" stroke-opacity="0.4" stroke-width="0.5"/>
<rect x="63" y="241" width="48" height="48" stroke="#0000FF" stroke-opacity="0.4" stroke-width="0.5"/>
<rect x="111" y="241" width="48" height="48" stroke="#0000FF" stroke-opacity="0.4" stroke-width="0.5"/>
<rect x="159" y="241" width="48" height="48" stroke="#0000FF" stroke-opacity="0.4" stroke-width="0.5"/>
<rect x="207" y="241" width="48" height="48" stroke="#0000FF" stroke-opacity="0.4" stroke-width="0.5"/>
<rect x="255" y="241" width="48" height="48" stroke="#0000FF" stroke-opacity="0.4" stroke-width="0.5"/>
<rect x="303" y="241" width="48" height="48" stroke="#0000FF" stroke-opacity="0.4" stroke-width="0.5"/>
<rect x="351" y="241" width="48" height="48" stroke="#0000FF" stroke-opacity="0.4" stroke-width="0.5"/>
<rect x="15" y="289" width="48" height="48" stroke="#0000FF" stroke-opacity="0.4" stroke-width="0.5"/>
<rect x="63" y="289" width="48" height="48" stroke="#0000FF" stroke-opacity="0.4" stroke-width="0.5"/>
<rect x="111" y="289" width="48" height="48" stroke="#0000FF" stroke-opacity="0.4" stroke-width="0.5"/>
<rect x="159" y="289" width="48" height="48" stroke="#0000FF" stroke-opacity="0.4" stroke-width="0.5"/>
<rect x="207" y="289" width="48" height="48" stroke="#0000FF" stroke-opacity="0.4" stroke-width="0.5"/>
<rect x="255" y="289" width="48" height="48" stroke="#0000FF" stroke-opacity="0.4" stroke-width="0.5"/>
<rect x="303" y="289" width="48" height="48" stroke="#0000FF" stroke-opacity="0.4" stroke-width="0.5"/>
<rect x="351" y="289" width="48" height="48" stroke="#0000FF" stroke-opacity="0.4" stroke-width="0.5"/>
<rect x="15" y="337" width="48" height="48" stroke="#0000FF" stroke-opacity="0.4" stroke-width="0.5"/>
<rect x="63" y="337" width="48" height="48" stroke="#0000FF" stroke-opacity="0.4" stroke-width="0.5"/>
<rect x="111" y="337" width="48" height="48" stroke="#0000FF" stroke-opacity="0.4" stroke-width="0.5"/>
<rect x="159" y="337" width="48" height="48" stroke="#0000FF" stroke-opacity="0.4" stroke-width="0.5"/>
<rect x="207" y="337" width="48" height="48" stroke="#0000FF" stroke-opacity="0.4" stroke-width="0.5"/>
<rect x="255" y="337" width="48" height="48" stroke="#0000FF" stroke-opacity="0.4" stroke-width="0.5"/>
<rect x="303" y="337" width="48" height="48" stroke="#0000FF" stroke-opacity="0.4" stroke-width="0.5"/>
<rect x="351" y="337" width="48" height="48" stroke="#0000FF" stroke-opacity="0.4" stroke-width="0.5"/>
<rect x="15" y="385" width="48" height="48" stroke="#0000FF" stroke-opacity="0.4" stroke-width="0.5"/>
<rect x="63" y="385" width="48" height="48" stroke="#0000FF" stroke-opacity="0.4" stroke-width="0.5"/>
<rect x="111" y="385" width="48" height="48" stroke="#0000FF" stroke-opacity="0.4" stroke-width="0.5"/>
<rect x="159" y="385" width="48" height="48" stroke="#0000FF" stroke-opacity="0.4" stroke-width="0.5"/>
<rect x="207" y="385" width="48" height="48" stroke="#0000FF" stroke-opacity="0.4" stroke-width="0.5"/>
<rect x="255" y="385" width="48" height="48" stroke="#0000FF" stroke-opacity="0.4" stroke-width="0.5"/>
<rect x="303" y="385" width="48" height="48" stroke="#0000FF" stroke-opacity="0.4" stroke-width="0.5"/>
<rect x="351" y="385" width="48" height="48" stroke="#0000FF" stroke-opacity="0.4" stroke-width="0.5"/>
<rect x="15" y="433" width="48" height="48" stroke="#0000FF" stroke-opacity="0.4" stroke-width="0.5"/>
<rect x="63" y="433" width="48" height="48" stroke="#0000FF" stroke-opacity="0.4" stroke-width="0.5"/>
<rect x="111" y="433" width="48" height="48" stroke="#0000FF" stroke-opacity="0.4" stroke-width="0.5"/>
<rect x="159" y="433" width="48" height="48" stroke="#0000FF" stroke-opacity="0.4" stroke-width="0.5"/>
<rect x="207" y="433" width="48" height="48" stroke="#0000FF" stroke-opacity="0.4" stroke-width="0.5"/>
<rect x="255" y="433" width="48" height="48" stroke="#0000FF" stroke-opacity="0.4" stroke-width="0.5"/>
<rect x="303" y="433" width="48" height="48" stroke="#0000FF" stroke-opacity="0.4" stroke-width="0.5"/>
<rect x="351" y="433" width="48" height="48" stroke="#0000FF" stroke-opacity="0.4" stroke-width="0.5"/>
<rect x="15" y="481" width="48" height="48" stroke="#0000FF" stroke-opacity="0.4" stroke-width="0.5"/>
<rect x="63" y="481" width="48" height="48" stroke="#0000FF" stroke-opacity="0.4" stroke-width="0.5"/>
<rect x="111" y="481" width="48" height="48" stroke="#0000FF" stroke-opacity="0.4" stroke-width="0.5"/>
<rect x="159" y="481" width="48" height="48" stroke="#0000FF" stroke-opacity="0.4" stroke-width="0.5"/>
<rect x="207" y="481" width="48" height="48" stroke="#0000FF" stroke-opacity="0.4" stroke-width="0.5"/>
<rect x="255" y="481" width="48" height="48" stroke="#0000FF" stroke-opacity="0.4" stroke-width="0.5"/>
<rect x="303" y="481" width="48" height="48" stroke="#0000FF" stroke-opacity="0.4" stroke-width="0.5"/>
<rect x="351" y="481" width="48" height="48" stroke="#0000FF" stroke-opacity="0.4" stroke-width="0.5"/>
<rect x="15" y="529" width="48" height="48" stroke="#0000FF" stroke-opacity="0.4" stroke-width="0.5"/>
<rect x="63" y="529" width="48" height="48" stroke="#0000FF" stroke-opacity="0.4" stroke-width="0.5"/>
<rect x="111" y="529" width="48" height="48" stroke="#0000FF" stroke-opacity="0.4" stroke-width="0.5"/>
<rect x="159" y="529" width="48" height="48" stroke="#0000FF" stroke-opacity="0.4" stroke-width="0.5"/>
<rect x="207" y="529" width="48" height="48" stroke="#0000FF" stroke-opacity="0.4" stroke-width="0.5"/>
<rect x="255" y="529" width="48" height="48" stroke="#0000FF" stroke-opacity="0.4" stroke-width="0.5"/>
<rect x="303" y="529" width="48" height="48" stroke="#0000FF" stroke-opacity="0.4" stroke-width="0.5"/>
<rect x="351" y="529" width="48" height="48" stroke="#0000FF" stroke-opacity="0.4" stroke-width="0.5"/>
<rect x="15" y="577" width="48" height="48" stroke="#0000FF" stroke-opacity="0.4" stroke-width="0.5"/>
<rect x="63" y="577" width="48" height="48" stroke="#0000FF" stroke-opacity="0.4" stroke-width="0.5"/>
<rect x="111" y="577" width="48" height="48" stroke="#0000FF" stroke-opacity="0.4" stroke-width="0.5"/>
<rect x="159" y="577" width="48" height="48" stroke="#0000FF" stroke-opacity="0.4" stroke-width="0.5"/>
<rect x="207" y="577" width="48" height="48" stroke="#0000FF" stroke-opacity="0.4" stroke-width="0.5"/>
<rect x="255" y="577" width="48" height="48" stroke="#0000FF" stroke-opacity="0.4" stroke-width="0.5"/>
<rect x="303" y="577" width="48" height="48" stroke="#0000FF" stroke-opacity="0.4" stroke-width="0.5"/>
<rect x="351" y="577" width="48" height="48" stroke="#0000FF" stroke-opacity="0.4" stroke-width="0.5"/>
<rect x="15" y="625" width="48" height="48" stroke="#0000FF" stroke-opacity="0.4" stroke-width="0.5"/>
<rect x="63" y="625" width="48" height="48" stroke="#0000FF" stroke-opacity="0.4" stroke-width="0.5"/>
<rect x="111" y="625" width="48" height="48" stroke="#0000FF" stroke-opacity="0.4" stroke-width="0.5"/>
<rect x="159" y="625" width="48" height="48" stroke="#0000FF" stroke-opacity="0.4" stroke-width="0.5"/>
<rect x="207" y="625" width="48" height="48" stroke="#0000FF" stroke-opacity="0.4" stroke-width="0.5"/>
<rect x="255" y="625" width="48" height="48" stroke="#0000FF" stroke-opacity="0.4" stroke-width="0.5"/>
<rect x="303" y="625" width="48" height="48" stroke="#0000FF" stroke-opacity="0.4" stroke-width="0.5"/>
<rect x="351" y="625" width="48" height="48" stroke="#0000FF" stroke-opacity="0.4" stroke-width="0.5"/>
<rect x="15" y="673" width="48" height="48" stroke="#0000FF" stroke-opacity="0.4" stroke-width="0.5"/>
<rect x="63" y="673" width="48" height="48" stroke="#0000FF" stroke-opacity="0.4" stroke-width="0.5"/>
<rect x="111" y="673" width="48" height="48" stroke="#0000FF" stroke-opacity="0.4" stroke-width="0.5"/>
<rect x="159" y="673" width="48" height="48" stroke="#0000FF" stroke-opacity="0.4" stroke-width="0.5"/>
<rect x="207" y="673" width="48" height="48" stroke="#0000FF" stroke-opacity="0.4" stroke-width="0.5"/>
<rect x="255" y="673" width="48" height="48" stroke="#0000FF" stroke-opacity="0.4" stroke-width="0.5"/>
<rect x="303" y="673" width="48" height="48" stroke="#0000FF" stroke-opacity="0.4" stroke-width="0.5"/>
<rect x="351" y="673" width="48" height="48" stroke="#0000FF" stroke-opacity="0.4" stroke-width="0.5"/>
<rect x="15" y="721" width="48" height="48" stroke="#0000FF" stroke-opacity="0.4" stroke-width="0.5"/>
<rect x="63" y="721" width="48" height="48" stroke="#0000FF" stroke-opacity="0.4" stroke-width="0.5"/>
<rect x="111" y="721" width="48" height="48" stroke="#0000FF" stroke-opacity="0.4" stroke-width="0.5"/>
<rect x="159" y="721" width="48" height="48" stroke="#0000FF" stroke-opacity="0.4" stroke-width="0.5"/>
<rect x="207" y="721" width="48" height="48" stroke="#0000FF" stroke-opacity="0.4" stroke-width="0.5"/>
<rect x="255" y="721" width="48" height="48" stroke="#0000FF" stroke-opacity="0.4" stroke-width="0.5"/>
<rect x="303" y="721" width="48" height="48" stroke="#0000FF" stroke-opacity="0.4" stroke-width="0.5"/>
<rect x="351" y="721" width="48" height="48" stroke="#0000FF" stroke-opacity="0.4" stroke-width="0.5"/>
<rect x="15" y="769" width="48" height="48" stroke="#0000FF" stroke-opacity="0.4" stroke-width="0.5"/>
<rect x="63" y="769" width="48" height="48" stroke="#0000FF" stroke-opacity="0.4" stroke-width="0.5"/>
<rect x="111" y="769" width="48" height="48" stroke="#0000FF" stroke-opacity="0.4" stroke-width="0.5"/>
<rect x="159" y="769" width="48" height="48" stroke="#0000FF" stroke-opacity="0.4" stroke-width="0.5"/>
<rect x="207" y="769" width="48" height="48" stroke="#0000FF" stroke-opacity="0.4" stroke-width="0.5"/>
<rect x="255" y="769" width="48" height="48" stroke="#0000FF" stroke-opacity="0.4" stroke-width="0.5"/>
<rect x="303" y="769" width="48" height="48" stroke="#0000FF" stroke-opacity="0.4" stroke-width="0.5"/>
<rect x="351" y="769" width="48" height="48" stroke="#0000FF" stroke-opacity="0.4" stroke-width="0.5"/>
<rect x="15" y="817" width="48" height="48" stroke="#0000FF" stroke-opacity="0.4" stroke-width="0.5"/>
<rect x="63" y="817" width="48" height="48" stroke="#0000FF" stroke-opacity="0.4" stroke-width="0.5"/>
<rect x="111" y="817" width="48" height="48" stroke="#0000FF" stroke-opacity="0.4" stroke-width="0.5"/>
<rect x="159" y="817" width="48" height="48" stroke="#0000FF" stroke-opacity="0.4" stroke-width="0.5"/>
<rect x="207" y="817" width="48" height="48" stroke="#0000FF" stroke-opacity="0.4" stroke-width="0.5"/>
<rect x="255" y="817" width="48" height="48" stroke="#0000FF" stroke-opacity="0.4" stroke-width="0.5"/>
<rect x="303" y="817" width="48" height="48" stroke="#0000FF" stroke-opacity="0.4" stroke-width="0.5"/>
<rect x="351" y="817" width="48" height="48" stroke="#0000FF" stroke-opacity="0.4" stroke-width="0.5"/>
<rect x="15" y="865" width="48" height="48" stroke="#0000FF" stroke-opacity="0.4" stroke-width="0.5"/>
<rect x="63" y="865" width="48" height="48" stroke="#0000FF" stroke-opacity="0.4" stroke-width="0.5"/>
<rect x="111" y="865" width="48" height="48" stroke="#0000FF" stroke-opacity="0.4" stroke-width="0.5"/>
<rect x="159" y="865" width="48" height="48" stroke="#0000FF" stroke-opacity="0.4" stroke-width="0.5"/>
<rect x="207" y="865" width="48" height="48" stroke="#0000FF" stroke-opacity="0.4" stroke-width="0.5"/>
<rect x="255" y="865" width="48" height="48" stroke="#0000FF" stroke-opacity="0.4" stroke-width="0.5"/>
<rect x="303" y="865" width="48" height="48" stroke="#0000FF" stroke-opacity="0.4" stroke-width="0.5"/>
<rect x="351" y="865" width="48" height="48" stroke="#0000FF" stroke-opacity="0.4" stroke-width="0.5"/>
<g filter="url(#filter0_f_382_156)">
<rect x="64.122" y="98.122" width="93.7559" height="93.7559" stroke="url(#paint0_linear_382_156)" stroke-width="2.24409"/>
</g>
<g style="mix-blend-mode:color-dodge" filter="url(#filter1_f_382_156)">
<rect x="63" y="97" width="96" height="96" stroke="#0000FF" stroke-width="4.48819"/>
</g>
<g style="mix-blend-mode:color-dodge" filter="url(#filter2_f_382_156)">
<rect x="64.122" y="98.122" width="93.7559" height="93.7559" stroke="url(#paint1_linear_382_156)" stroke-width="2.24409"/>
</g>
<g filter="url(#filter3_f_382_156)">
<rect x="304.122" y="194.122" width="45.7559" height="45.7559" stroke="url(#paint2_linear_382_156)" stroke-width="2.24409"/>
</g>
<g style="mix-blend-mode:color-dodge" filter="url(#filter4_f_382_156)">
<rect x="303" y="193" width="48" height="48" stroke="#0000FF" stroke-width="4.48819"/>
</g>
<g style="mix-blend-mode:color-dodge" filter="url(#filter5_f_382_156)">
<rect x="304.122" y="194.122" width="45.7559" height="45.7559" stroke="url(#paint3_linear_382_156)" stroke-width="2.24409"/>
</g>
<g filter="url(#filter6_f_382_156)">
<rect x="-1.12205" y="1.12205" width="45.7559" height="45.7559" transform="matrix(-1 0 0 1 60.7559 193)" stroke="url(#paint4_linear_382_156)" stroke-width="2.24409"/>
</g>
<g style="mix-blend-mode:color-dodge" filter="url(#filter7_f_382_156)">
<rect width="48" height="48" transform="matrix(-1 0 0 1 63 193)" stroke="#0000FF" stroke-width="4.48819"/>
</g>
<g style="mix-blend-mode:color-dodge" filter="url(#filter8_f_382_156)">
<rect x="-1.12205" y="1.12205" width="45.7559" height="45.7559" transform="matrix(-1 0 0 1 60.7559 193)" stroke="url(#paint5_linear_382_156)" stroke-width="2.24409"/>
</g>
<g filter="url(#filter9_f_382_156)">
<rect x="400.122" y="146.122" width="45.7559" height="45.7559" stroke="url(#paint6_linear_382_156)" stroke-width="2.24409"/>
</g>
<g style="mix-blend-mode:color-dodge" filter="url(#filter10_f_382_156)">
<rect x="399" y="145" width="48" height="48" stroke="#0000FF" stroke-width="4.48819"/>
</g>
<g style="mix-blend-mode:color-dodge" filter="url(#filter11_f_382_156)">
<rect x="400.122" y="146.122" width="45.7559" height="45.7559" stroke="url(#paint7_linear_382_156)" stroke-width="2.24409"/>
</g>
<g filter="url(#filter12_f_382_156)">
<rect x="-1.12205" y="1.12205" width="45.7559" height="45.7559" transform="matrix(-1 0 0 1 108.756 289)" stroke="url(#paint8_linear_382_156)" stroke-width="2.24409"/>
</g>
<g style="mix-blend-mode:color-dodge" filter="url(#filter13_f_382_156)">
<rect width="48" height="48" transform="matrix(-1 0 0 1 111 289)" stroke="#0000FF" stroke-width="4.48819"/>
</g>
<g style="mix-blend-mode:color-dodge" filter="url(#filter14_f_382_156)">
<rect x="-1.12205" y="1.12205" width="45.7559" height="45.7559" transform="matrix(-1 0 0 1 108.756 289)" stroke="url(#paint9_linear_382_156)" stroke-width="2.24409"/>
</g>
<defs>
<filter id="filter0_f_382_156" x="62.252" y="96.252" width="97.4961" height="97.4961" filterUnits="userSpaceOnUse" color-interpolation-filters="sRGB">
<feFlood flood-opacity="0" result="BackgroundImageFix"/>
<feBlend mode="normal" in="SourceGraphic" in2="BackgroundImageFix" result="shape"/>
<feGaussianBlur stdDeviation="0.374016" result="effect1_foregroundBlur_382_156"/>
</filter>
<filter id="filter1_f_382_156" x="57.7657" y="91.7637" width="106.469" height="106.473" filterUnits="userSpaceOnUse" color-interpolation-filters="sRGB">
<feFlood flood-opacity="0" result="BackgroundImageFix"/>
<feBlend mode="normal" in="SourceGraphic" in2="BackgroundImageFix" result="shape"/>
<feGaussianBlur stdDeviation="1.49606" result="effect1_foregroundBlur_382_156"/>
</filter>
<filter id="filter2_f_382_156" x="48.0394" y="82.0394" width="125.921" height="125.921" filterUnits="userSpaceOnUse" color-interpolation-filters="sRGB">
<feFlood flood-opacity="0" result="BackgroundImageFix"/>
<feBlend mode="normal" in="SourceGraphic" in2="BackgroundImageFix" result="shape"/>
<feGaussianBlur stdDeviation="7.48031" result="effect1_foregroundBlur_382_156"/>
</filter>
<filter id="filter3_f_382_156" x="302.252" y="192.252" width="49.4961" height="49.4961" filterUnits="userSpaceOnUse" color-interpolation-filters="sRGB">
<feFlood flood-opacity="0" result="BackgroundImageFix"/>
<feBlend mode="normal" in="SourceGraphic" in2="BackgroundImageFix" result="shape"/>
<feGaussianBlur stdDeviation="0.374016" result="effect1_foregroundBlur_382_156"/>
</filter>
<filter id="filter4_f_382_156" x="297.766" y="187.764" width="58.4686" height="58.4725" filterUnits="userSpaceOnUse" color-interpolation-filters="sRGB">
<feFlood flood-opacity="0" result="BackgroundImageFix"/>
<feBlend mode="normal" in="SourceGraphic" in2="BackgroundImageFix" result="shape"/>
<feGaussianBlur stdDeviation="1.49606" result="effect1_foregroundBlur_382_156"/>
</filter>
<filter id="filter5_f_382_156" x="288.039" y="178.039" width="77.9213" height="77.9213" filterUnits="userSpaceOnUse" color-interpolation-filters="sRGB">
<feFlood flood-opacity="0" result="BackgroundImageFix"/>
<feBlend mode="normal" in="SourceGraphic" in2="BackgroundImageFix" result="shape"/>
<feGaussianBlur stdDeviation="7.48031" result="effect1_foregroundBlur_382_156"/>
</filter>
<filter id="filter6_f_382_156" x="14.252" y="192.252" width="49.4961" height="49.4961" filterUnits="userSpaceOnUse" color-interpolation-filters="sRGB">
<feFlood flood-opacity="0" result="BackgroundImageFix"/>
<feBlend mode="normal" in="SourceGraphic" in2="BackgroundImageFix" result="shape"/>
<feGaussianBlur stdDeviation="0.374016" result="effect1_foregroundBlur_382_156"/>
</filter>
<filter id="filter7_f_382_156" x="9.76569" y="187.764" width="58.4686" height="58.4725" filterUnits="userSpaceOnUse" color-interpolation-filters="sRGB">
<feFlood flood-opacity="0" result="BackgroundImageFix"/>
<feBlend mode="normal" in="SourceGraphic" in2="BackgroundImageFix" result="shape"/>
<feGaussianBlur stdDeviation="1.49606" result="effect1_foregroundBlur_382_156"/>
</filter>
<filter id="filter8_f_382_156" x="0.0393724" y="178.039" width="77.9213" height="77.9213" filterUnits="userSpaceOnUse" color-interpolation-filters="sRGB">
<feFlood flood-opacity="0" result="BackgroundImageFix"/>
<feBlend mode="normal" in="SourceGraphic" in2="BackgroundImageFix" result="shape"/>
<feGaussianBlur stdDeviation="7.48031" result="effect1_foregroundBlur_382_156"/>
</filter>
<filter id="filter9_f_382_156" x="398.252" y="144.252" width="49.4961" height="49.4961" filterUnits="userSpaceOnUse" color-interpolation-filters="sRGB">
<feFlood flood-opacity="0" result="BackgroundImageFix"/>
<feBlend mode="normal" in="SourceGraphic" in2="BackgroundImageFix" result="shape"/>
<feGaussianBlur stdDeviation="0.374016" result="effect1_foregroundBlur_382_156"/>
</filter>
<filter id="filter10_f_382_156" x="393.766" y="139.764" width="58.4686" height="58.4725" filterUnits="userSpaceOnUse" color-interpolation-filters="sRGB">
<feFlood flood-opacity="0" result="BackgroundImageFix"/>
<feBlend mode="normal" in="SourceGraphic" in2="BackgroundImageFix" result="shape"/>
<feGaussianBlur stdDeviation="1.49606" result="effect1_foregroundBlur_382_156"/>
</filter>
<filter id="filter11_f_382_156" x="384.039" y="130.039" width="77.9213" height="77.9213" filterUnits="userSpaceOnUse" color-interpolation-filters="sRGB">
<feFlood flood-opacity="0" result="BackgroundImageFix"/>
<feBlend mode="normal" in="SourceGraphic" in2="BackgroundImageFix" result="shape"/>
<feGaussianBlur stdDeviation="7.48031" result="effect1_foregroundBlur_382_156"/>
</filter>
<filter id="filter12_f_382_156" x="62.252" y="288.252" width="49.4961" height="49.4961" filterUnits="userSpaceOnUse" color-interpolation-filters="sRGB">
<feFlood flood-opacity="0" result="BackgroundImageFix"/>
<feBlend mode="normal" in="SourceGraphic" in2="BackgroundImageFix" result="shape"/>
<feGaussianBlur stdDeviation="0.374016" result="effect1_foregroundBlur_382_156"/>
</filter>
<filter id="filter13_f_382_156" x="57.7657" y="283.764" width="58.4686" height="58.4725" filterUnits="userSpaceOnUse" color-interpolation-filters="sRGB">
<feFlood flood-opacity="0" result="BackgroundImageFix"/>
<feBlend mode="normal" in="SourceGraphic" in2="BackgroundImageFix" result="shape"/>
<feGaussianBlur stdDeviation="1.49606" result="effect1_foregroundBlur_382_156"/>
</filter>
<filter id="filter14_f_382_156" x="48.0394" y="274.039" width="77.9213" height="77.9213" filterUnits="userSpaceOnUse" color-interpolation-filters="sRGB">
<feFlood flood-opacity="0" result="BackgroundImageFix"/>
<feBlend mode="normal" in="SourceGraphic" in2="BackgroundImageFix" result="shape"/>
<feGaussianBlur stdDeviation="7.48031" result="effect1_foregroundBlur_382_156"/>
</filter>
<linearGradient id="paint0_linear_382_156" x1="111" y1="97" x2="111" y2="193" gradientUnits="userSpaceOnUse">
<stop stop-color="#0000FF"/>
<stop offset="1" stop-color="#0000FF" stop-opacity="0"/>
</linearGradient>
<linearGradient id="paint1_linear_382_156" x1="111" y1="97" x2="111" y2="193" gradientUnits="userSpaceOnUse">
<stop stop-color="#0000FF"/>
<stop offset="1" stop-color="#0000FF" stop-opacity="0"/>
</linearGradient>
<linearGradient id="paint2_linear_382_156" x1="327" y1="193" x2="327" y2="241" gradientUnits="userSpaceOnUse">
<stop stop-color="#0000FF"/>
<stop offset="1" stop-color="#0000FF" stop-opacity="0"/>
</linearGradient>
<linearGradient id="paint3_linear_382_156" x1="327" y1="193" x2="327" y2="241" gradientUnits="userSpaceOnUse">
<stop stop-color="#0000FF"/>
<stop offset="1" stop-color="#0000FF" stop-opacity="0"/>
</linearGradient>
<linearGradient id="paint4_linear_382_156" x1="24" y1="0" x2="24" y2="48" gradientUnits="userSpaceOnUse">
<stop stop-color="#0000FF"/>
<stop offset="1" stop-color="#0000FF" stop-opacity="0"/>
</linearGradient>
<linearGradient id="paint5_linear_382_156" x1="24" y1="0" x2="24" y2="48" gradientUnits="userSpaceOnUse">
<stop stop-color="#0000FF"/>
<stop offset="1" stop-color="#0000FF" stop-opacity="0"/>
</linearGradient>
<linearGradient id="paint6_linear_382_156" x1="423" y1="145" x2="423" y2="193" gradientUnits="userSpaceOnUse">
<stop stop-color="#0000FF"/>
<stop offset="1" stop-color="#0000FF" stop-opacity="0"/>
</linearGradient>
<linearGradient id="paint7_linear_382_156" x1="423" y1="145" x2="423" y2="193" gradientUnits="userSpaceOnUse">
<stop stop-color="#0000FF"/>
<stop offset="1" stop-color="#0000FF" stop-opacity="0"/>
</linearGradient>
<linearGradient id="paint8_linear_382_156" x1="24" y1="0" x2="24" y2="48" gradientUnits="userSpaceOnUse">
<stop stop-color="#0000FF"/>
<stop offset="1" stop-color="#0000FF" stop-opacity="0"/>
</linearGradient>
<linearGradient id="paint9_linear_382_156" x1="24" y1="0" x2="24" y2="48" gradientUnits="userSpaceOnUse">
<stop stop-color="#0000FF"/>
<stop offset="1" stop-color="#0000FF" stop-opacity="0"/>
</linearGradient>
</defs>
</svg>
