<svg width="103" height="83" viewBox="0 0 103 83" fill="none" xmlns="http://www.w3.org/2000/svg">
<g id="Group 1000003324">
<path id="Subtract" fill-rule="evenodd" clip-rule="evenodd" d="M94.2852 0H8.57143V8.89286H0V74.1073H8.57143V83H94.2852V74.8484H102.857V83H102.857V0H102.857V8.15171H94.2852V0Z" fill="white"/>
<g id="Group 1000003310">
<rect id="Rectangle 851305" x="47.5886" y="9.5" width="6.81803" height="6.81803" fill="black" stroke="black"/>
<rect id="Rectangle 851310" x="53.4092" y="9.5" width="6.81803" height="6.81803" fill="black" stroke="black"/>
<rect id="Rectangle 851311" x="59.225" y="9.5" width="6.81803" height="6.81803" fill="black" stroke="black"/>
<rect id="Rectangle 851312" x="65.044" y="9.5" width="6.81803" height="6.81803" fill="black" stroke="black"/>
<rect id="Rectangle 851313" x="70.8614" y="9.5" width="6.81803" height="6.81803" fill="black" stroke="black"/>
<rect id="Rectangle 851314" x="76.6821" y="15.3181" width="6.81803" height="6.81803" fill="black" stroke="black"/>
<rect id="Rectangle 851315" x="76.6821" y="21.136" width="6.81803" height="6.81803" fill="black" stroke="black"/>
<rect id="Rectangle 851316" x="76.6821" y="26.9539" width="6.81803" height="6.81803" fill="black" stroke="black"/>
<rect id="Rectangle 851321" x="76.6821" y="32.772" width="6.81803" height="6.81803" fill="black" stroke="black"/>
<rect id="Rectangle 851322" x="65.044" y="44.4084" width="6.81803" height="6.81803" fill="black" stroke="black"/>
<rect id="Rectangle 851325" x="70.8614" y="44.4084" width="6.81803" height="6.81803" fill="black" stroke="black"/>
<rect id="Rectangle 851326" x="76.6821" y="38.5901" width="6.81803" height="6.81803" fill="black" stroke="black"/>
<rect id="Rectangle 851324" x="30.1381" y="56.0444" width="6.81803" height="6.81803" fill="black" stroke="black"/>
<rect id="Rectangle 851327" x="35.9538" y="50.2266" width="6.81803" height="6.81803" fill="black" stroke="black"/>
<rect id="Rectangle 851328" x="24.3174" y="61.8623" width="6.81803" height="6.81803" fill="black" stroke="black"/>
<rect id="Rectangle 851329" x="18.5" y="67.6799" width="6.81803" height="6.81803" fill="black" stroke="black"/>
<rect id="Rectangle 851317" x="59.225" y="44.4084" width="6.81803" height="6.81803" fill="black" stroke="black"/>
<rect id="Rectangle 851318" x="53.4092" y="44.4084" width="6.81803" height="6.81803" fill="black" stroke="black"/>
<rect id="Rectangle 851319" x="47.5886" y="44.4084" width="6.81803" height="6.81803" fill="black" stroke="black"/>
<rect id="Rectangle 851320" x="41.7728" y="38.5901" width="6.81803" height="6.81803" fill="black" stroke="black"/>
<rect id="Rectangle 851306" x="41.7728" y="15.3181" width="6.81803" height="6.81803" fill="black" stroke="black"/>
<rect id="Rectangle 851307" x="41.7728" y="21.136" width="6.81803" height="6.81803" fill="black" stroke="black"/>
<rect id="Rectangle 851308" x="41.7728" y="26.9539" width="6.81803" height="6.81803" fill="black" stroke="black"/>
<rect id="Rectangle 851309" x="41.7728" y="32.772" width="6.81803" height="6.81803" fill="black" stroke="black"/>
</g>
</g>
</svg>
