<svg width="438" height="99" viewBox="0 0 438 99" fill="none" xmlns="http://www.w3.org/2000/svg">
<rect width="410" height="74" transform="translate(14 12)" fill="#0609CD"/>
<path d="M105.445 37.4H117.765V40.452H113.397V40.844C113.397 42.3373 113.826 43.672 114.685 44.848C115.544 46.0053 116.916 46.976 118.801 47.76L117.205 50.504C116.533 50.2613 115.898 49.9627 115.301 49.608C114.722 49.2533 114.2 48.8707 113.733 48.46C113.266 48.0307 112.865 47.5827 112.529 47.116C112.193 46.6493 111.941 46.1827 111.773 45.716C111.437 46.7427 110.784 47.7413 109.813 48.712C108.842 49.664 107.582 50.4573 106.033 51.092L104.409 48.32C105.361 47.928 106.173 47.4613 106.845 46.92C107.536 46.3787 108.096 45.7907 108.525 45.156C108.954 44.5027 109.272 43.8213 109.477 43.112C109.682 42.384 109.785 41.6467 109.785 40.9V40.452H105.445V37.4ZM121.237 35.972H124.821V54.06H121.237V45.324H117.233V42.272H121.237V35.972ZM109.449 51.932H113.033V57.252H125.437V60.304H110.793C110.364 60.304 110.028 60.2107 109.785 60.024C109.561 59.8373 109.449 59.548 109.449 59.156V51.932ZM129.843 37.344H140.119V45.044H133.427V47.172H135.751C136.908 47.172 137.935 47.1347 138.831 47.06C139.727 46.9667 140.558 46.7893 141.323 46.528L141.967 48.768C141.015 49.3093 139.96 49.664 138.803 49.832C137.646 49.9813 136.292 50.056 134.743 50.056H131.215C130.3 50.056 129.843 49.6733 129.843 48.908V42.272H136.563V40.256H129.843V37.344ZM141.771 38.996H145.327V35.972H148.911V50.896H145.327V46.808H141.771V43.896H145.327V41.908H141.771V38.996ZM133.091 52.212H148.911V60.584H145.327V55.264H133.091V52.212ZM163.756 49.412H178.904V56.244H167.312V57.784H179.52V60.584H165.1C164.671 60.584 164.335 60.4907 164.092 60.304C163.868 60.1173 163.756 59.828 163.756 59.436V53.612H175.348V52.156H163.756V49.412ZM159.752 37.064H172.184V40.032H167.872C168.078 41.32 168.638 42.3933 169.552 43.252C170.486 44.1107 171.718 44.8293 173.248 45.408L171.68 48.068C171.046 47.8813 170.43 47.6387 169.832 47.34C169.254 47.0227 168.722 46.6773 168.236 46.304C167.751 45.9307 167.322 45.5293 166.948 45.1C166.594 44.652 166.323 44.1853 166.136 43.7C165.763 44.7453 165.044 45.7067 163.98 46.584C162.935 47.4613 161.703 48.152 160.284 48.656L158.688 45.996C160.294 45.3427 161.563 44.54 162.496 43.588C163.43 42.6173 163.971 41.432 164.12 40.032H159.752V37.064ZM175.32 35.972H178.904V48.292H175.32V35.972ZM185.886 36.896H202.014V40.004H195.798C195.91 40.7693 196.171 41.4507 196.582 42.048C196.993 42.6453 197.515 43.1773 198.15 43.644C198.785 44.1107 199.513 44.512 200.334 44.848C201.174 45.1653 202.07 45.4267 203.022 45.632L201.79 48.6C201.006 48.4693 200.213 48.2547 199.41 47.956C198.626 47.6573 197.879 47.3027 197.17 46.892C196.461 46.4627 195.817 45.9773 195.238 45.436C194.678 44.8947 194.249 44.3067 193.95 43.672C193.651 44.3253 193.213 44.9227 192.634 45.464C192.074 46.0053 191.439 46.4907 190.73 46.92C190.021 47.3307 189.265 47.6853 188.462 47.984C187.659 48.264 186.885 48.4787 186.138 48.628L184.906 45.66C185.858 45.4547 186.745 45.1933 187.566 44.876C188.387 44.54 189.106 44.1387 189.722 43.672C190.357 43.2053 190.879 42.6733 191.29 42.076C191.701 41.46 191.962 40.7693 192.074 40.004H185.886V36.896ZM182.862 50.028H205.038V53.136H195.742V60.276H192.158V53.136H182.862V50.028ZM206.588 42.244H221.064V45.24H218.348C218.833 45.6693 219.207 46.1827 219.468 46.78C219.748 47.3773 219.888 48.0587 219.888 48.824C219.888 49.6827 219.739 50.4667 219.44 51.176C219.141 51.8853 218.721 52.492 218.18 52.996C217.657 53.5 217.023 53.892 216.276 54.172C215.548 54.452 214.736 54.592 213.84 54.592C212.944 54.592 212.123 54.452 211.376 54.172C210.629 53.892 209.985 53.5 209.444 52.996C208.903 52.492 208.483 51.8853 208.184 51.176C207.885 50.4667 207.736 49.6827 207.736 48.824C207.736 48.0587 207.867 47.3773 208.128 46.78C208.408 46.1827 208.791 45.6693 209.276 45.24H206.588V42.244ZM222.772 35.972H226.356V44.568H229.632V47.676H226.356V60.164H222.772V35.972ZM209.752 37.456H217.9V40.508H209.752V37.456ZM213.84 45.968C213.075 45.968 212.44 46.2293 211.936 46.752C211.451 47.256 211.208 47.9467 211.208 48.824C211.208 49.7013 211.451 50.392 211.936 50.896C212.44 51.4 213.075 51.652 213.84 51.652C214.605 51.652 215.231 51.4 215.716 50.896C216.201 50.392 216.444 49.7013 216.444 48.824C216.444 47.9467 216.201 47.256 215.716 46.752C215.231 46.2293 214.605 45.968 213.84 45.968ZM232.218 38.128H242.774V47.452H235.802V51.036H238.63C239.806 51.036 240.935 50.98 242.018 50.868C243.119 50.7373 244.043 50.532 244.79 50.252L245.434 52.688C244.482 53.2667 243.334 53.6587 241.99 53.864C240.646 54.0507 239.19 54.144 237.622 54.144H233.59C232.675 54.144 232.218 53.7613 232.218 52.996V44.484H239.218V41.18H232.218V38.128ZM247.702 35.972H251.286V60.164H247.702V45.968H244.006V42.888H247.702V35.972ZM262.099 38.212H273.579V40.284C273.579 43.7933 272.618 46.7333 270.695 49.104C268.791 51.4747 266.038 53.3787 262.435 54.816L260.951 51.708C262.277 51.204 263.49 50.5973 264.591 49.888C265.711 49.1787 266.663 48.3853 267.447 47.508C268.25 46.612 268.875 45.6507 269.323 44.624C269.771 43.5787 269.995 42.468 269.995 41.292H262.099V38.212ZM276.939 35.972H280.523V44.176H283.827V47.284H280.523V60.164H276.939V35.972ZM301.785 35.972H305.369V60.164H301.785V35.972ZM286.525 38.184H298.033V40.256C298.033 43.7653 297.072 46.7147 295.149 49.104C293.226 51.4747 290.464 53.3693 286.861 54.788L285.377 51.708C286.721 51.204 287.944 50.5973 289.045 49.888C290.165 49.16 291.117 48.3573 291.901 47.48C292.704 46.6027 293.329 45.6413 293.777 44.596C294.225 43.5507 294.449 42.4493 294.449 41.292H286.525V38.184Z" fill="white"/>
<rect x="322.75" y="55.25" width="3.5" height="3.5" fill="white" stroke="white" stroke-width="0.5"/>
<rect x="326.75" y="51.25" width="3.5" height="3.5" fill="white" stroke="white" stroke-width="0.5"/>
<rect x="330.75" y="47.25" width="3.5" height="3.5" fill="white" stroke="white" stroke-width="0.5"/>
<rect x="326.75" y="43.25" width="3.5" height="3.5" fill="white" stroke="white" stroke-width="0.5"/>
<rect x="322.75" y="39.25" width="3.5" height="3.5" fill="white" stroke="white" stroke-width="0.5"/>
<rect x="318.75" y="59.25" width="3.5" height="3.5" fill="white" stroke="white" stroke-width="0.5"/>
<rect x="318.75" y="35.25" width="3.5" height="3.5" fill="white" stroke="white" stroke-width="0.5"/>
<rect x="6" width="426" height="6" fill="#0609CD"/>
<rect x="6" y="93" width="426" height="6" fill="#0609CD"/>
<rect x="432" y="5" width="6" height="88" fill="#0609CD"/>
<rect y="5" width="6" height="88" fill="#0609CD"/>
</svg>
