<svg width="206" height="121" viewBox="0 0 206 121" fill="none" xmlns="http://www.w3.org/2000/svg">
<rect y="49.9521" width="193" height="73.2069" rx="14.7893" transform="rotate(-15 0 49.9521)" fill="#00AAD2"/>
<path d="M54.1334 62.4921L55.8 62.0455L58.0329 70.3786L59.6995 69.9321L60.146 71.5987L58.4794 72.0453L60.7123 80.3784L59.0457 80.825L54.1334 62.4921ZM43.5995 83.1775L39.1338 66.5112L40.8004 66.0647L44.8195 81.0643L54.8193 78.3848L55.2658 80.0515L43.5995 83.1775ZM61.3661 69.4855L60.9195 67.8189L62.5862 67.3723L61.693 64.0391L75.026 60.4665L74.5794 58.7999L61.2464 62.3724L60.7999 60.7058L75.7995 56.6867L77.1392 61.6866L63.8062 65.2591L64.2528 66.9257L79.2524 62.9066L79.699 64.5732L61.3661 69.4855ZM77.7054 70.4662L77.2588 68.7996L63.9259 72.3722L63.4793 70.7056L78.4789 66.6864L79.8186 71.6863L66.4856 75.2589L66.9322 76.9255L80.2652 73.3529L80.7118 75.0195L65.7121 79.0387L64.3724 74.0388L77.7054 70.4662ZM89.7052 61.8921L89.2586 60.2254L107.591 55.3132L108.038 56.9798L99.7049 59.2126L100.152 60.8793L106.818 59.093L108.158 64.0929L94.8247 67.6654L95.2713 69.332L108.604 65.7595L109.051 67.4261L94.0512 71.4452L92.7115 66.4454L106.045 62.8728L105.598 61.2062L92.265 64.7787L91.8184 63.1121L98.4849 61.3258L98.0383 59.6592L89.7052 61.8921ZM91.6987 55.9991L105.032 52.4265L105.478 54.0931L90.4787 58.1123L89.139 53.1124L90.8056 52.6658L91.6987 55.9991ZM122.471 44.181L124.138 43.7344L129.05 62.0673L127.384 62.5138L124.704 52.5141L121.371 53.4072L120.924 51.7406L124.258 50.8475L122.471 44.181ZM111.938 64.8663L109.258 54.8666L117.591 52.6338L116.252 47.6339L107.918 49.8667L107.472 48.2001L117.472 45.5207L119.704 53.8538L111.371 56.0867L113.158 62.7531L123.157 60.0737L123.604 61.7403L111.938 64.8663ZM142.471 38.8221L144.138 38.3756L146.37 46.7087L148.037 46.2621L148.484 47.9287L146.817 48.3753L149.05 56.7084L147.383 57.155L142.471 38.8221ZM131.937 59.5075L131.49 57.8409L136.49 56.5012L135.151 51.5013L130.151 52.841L127.471 42.8413L129.138 42.3947L130.031 45.7279L138.364 43.4951L137.471 40.1618L139.138 39.7153L141.817 49.715L136.817 51.0547L138.157 56.0546L144.823 54.2683L145.27 55.9349L131.937 59.5075ZM139.704 48.495L138.811 45.1617L130.478 47.3946L131.371 50.7278L139.704 48.495ZM150.15 47.4822L149.704 45.8155L151.37 45.369L151.817 47.0356L150.15 47.4822ZM151.37 45.369L150.924 43.7023L154.257 42.8092L154.703 44.4758L151.37 45.369ZM155.15 46.1425L154.703 44.4758L156.37 44.0293L156.817 45.6959L155.15 46.1425ZM156.817 45.6959L160.15 44.8027L160.596 46.4694L157.263 47.3625L156.817 45.6959ZM160.15 44.8027L159.703 43.1361L161.37 42.6895L161.817 44.3562L160.15 44.8027Z" fill="white"/>
</svg>
