<svg width="271" height="82" viewBox="0 0 271 82" fill="none" xmlns="http://www.w3.org/2000/svg">
<rect x="3.5" y="3.5" width="264" height="75" stroke="#666666" stroke-width="7"/>
<path d="M76 17H80V37H84V41H80V61H76V17ZM40 57V17H68V21H44V53H68V57H40ZM123.52 17H127.52V61H123.52V17ZM87.52 57V53H91.52V57H87.52ZM95.52 53H91.52V45H95.52V53ZM95.52 45V37H99.52V45H95.52ZM103.52 45V37H107.52V45H103.52ZM103.52 37H99.52V17H103.52V37ZM111.52 53H107.52V45H111.52V53ZM111.52 57V53H115.52V57H111.52ZM171.04 17H175.04V37H179.04V41H175.04V61H171.04V17ZM135.04 29V25H167.04V29H135.04ZM143.04 53H139.04V37H143.04V53ZM143.04 57V53H159.04V57H143.04ZM143.04 37V33H159.04V37H143.04ZM143.04 21V17H159.04V21H143.04ZM159.04 53V37H163.04V53H159.04ZM218.56 17H222.56V61H218.56V17ZM182.56 57V53H190.56V57H182.56ZM182.56 21V17H206.56V37H202.56V21H182.56ZM190.56 53V49H194.56V53H190.56ZM194.56 49V45H198.56V49H194.56ZM198.56 45V37H202.56V45H198.56Z" fill="#666666"/>
</svg>
