<svg width="433" height="1024" viewBox="0 0 433 1024" fill="none" xmlns="http://www.w3.org/2000/svg">
<rect width="48" height="48" transform="matrix(1 0 0 -1 1 913)" stroke="#0000FF" stroke-opacity="0.4" stroke-width="0.5"/>
<rect width="48" height="48" transform="matrix(1 0 0 -1 49 913)" stroke="#0000FF" stroke-opacity="0.4" stroke-width="0.5"/>
<rect width="48" height="48" transform="matrix(1 0 0 -1 97 913)" stroke="#0000FF" stroke-opacity="0.4" stroke-width="0.5"/>
<rect width="48" height="48" transform="matrix(1 0 0 -1 145 913)" stroke="#0000FF" stroke-opacity="0.4" stroke-width="0.5"/>
<rect width="48" height="48" transform="matrix(1 0 0 -1 193 913)" stroke="#0000FF" stroke-opacity="0.4" stroke-width="0.5"/>
<rect width="48" height="48" transform="matrix(1 0 0 -1 241 913)" stroke="#0000FF" stroke-opacity="0.4" stroke-width="0.5"/>
<rect width="48" height="48" transform="matrix(1 0 0 -1 289 913)" stroke="#0000FF" stroke-opacity="0.4" stroke-width="0.5"/>
<rect width="48" height="48" transform="matrix(1 0 0 -1 337 913)" stroke="#0000FF" stroke-opacity="0.4" stroke-width="0.5"/>
<rect width="48" height="48" transform="matrix(1 0 0 -1 1 865)" stroke="#0000FF" stroke-opacity="0.4" stroke-width="0.5"/>
<rect width="48" height="48" transform="matrix(1 0 0 -1 49 865)" stroke="#0000FF" stroke-opacity="0.4" stroke-width="0.5"/>
<rect width="48" height="48" transform="matrix(1 0 0 -1 97 865)" stroke="#0000FF" stroke-opacity="0.4" stroke-width="0.5"/>
<rect width="48" height="48" transform="matrix(1 0 0 -1 145 865)" stroke="#0000FF" stroke-opacity="0.4" stroke-width="0.5"/>
<rect width="48" height="48" transform="matrix(1 0 0 -1 193 865)" stroke="#0000FF" stroke-opacity="0.4" stroke-width="0.5"/>
<rect width="48" height="48" transform="matrix(1 0 0 -1 241 865)" stroke="#0000FF" stroke-opacity="0.4" stroke-width="0.5"/>
<rect width="48" height="48" transform="matrix(1 0 0 -1 289 865)" stroke="#0000FF" stroke-opacity="0.4" stroke-width="0.5"/>
<rect width="48" height="48" transform="matrix(1 0 0 -1 337 865)" stroke="#0000FF" stroke-opacity="0.4" stroke-width="0.5"/>
<rect width="48" height="48" transform="matrix(1 0 0 -1 1 817)" stroke="#0000FF" stroke-opacity="0.4" stroke-width="0.5"/>
<rect width="48" height="48" transform="matrix(1 0 0 -1 49 817)" stroke="#0000FF" stroke-opacity="0.4" stroke-width="0.5"/>
<rect width="48" height="48" transform="matrix(1 0 0 -1 97 817)" stroke="#0000FF" stroke-opacity="0.4" stroke-width="0.5"/>
<rect width="48" height="48" transform="matrix(1 0 0 -1 145 817)" stroke="#0000FF" stroke-opacity="0.4" stroke-width="0.5"/>
<rect width="48" height="48" transform="matrix(1 0 0 -1 193 817)" stroke="#0000FF" stroke-opacity="0.4" stroke-width="0.5"/>
<rect width="48" height="48" transform="matrix(1 0 0 -1 241 817)" stroke="#0000FF" stroke-opacity="0.4" stroke-width="0.5"/>
<rect width="48" height="48" transform="matrix(1 0 0 -1 289 817)" stroke="#0000FF" stroke-opacity="0.4" stroke-width="0.5"/>
<rect width="48" height="48" transform="matrix(1 0 0 -1 337 817)" stroke="#0000FF" stroke-opacity="0.4" stroke-width="0.5"/>
<rect width="48" height="48" transform="matrix(1 0 0 -1 1 769)" stroke="#0000FF" stroke-opacity="0.4" stroke-width="0.5"/>
<rect width="48" height="48" transform="matrix(1 0 0 -1 49 769)" stroke="#0000FF" stroke-opacity="0.4" stroke-width="0.5"/>
<rect width="48" height="48" transform="matrix(1 0 0 -1 97 769)" stroke="#0000FF" stroke-opacity="0.4" stroke-width="0.5"/>
<rect width="48" height="48" transform="matrix(1 0 0 -1 145 769)" stroke="#0000FF" stroke-opacity="0.4" stroke-width="0.5"/>
<rect width="48" height="48" transform="matrix(1 0 0 -1 193 769)" stroke="#0000FF" stroke-opacity="0.4" stroke-width="0.5"/>
<rect width="48" height="48" transform="matrix(1 0 0 -1 241 769)" stroke="#0000FF" stroke-opacity="0.4" stroke-width="0.5"/>
<rect width="48" height="48" transform="matrix(1 0 0 -1 289 769)" stroke="#0000FF" stroke-opacity="0.4" stroke-width="0.5"/>
<rect width="48" height="48" transform="matrix(1 0 0 -1 337 769)" stroke="#0000FF" stroke-opacity="0.4" stroke-width="0.5"/>
<rect width="48" height="48" transform="matrix(1 0 0 -1 1 721)" stroke="#0000FF" stroke-opacity="0.4" stroke-width="0.5"/>
<rect width="48" height="48" transform="matrix(1 0 0 -1 49 721)" stroke="#0000FF" stroke-opacity="0.4" stroke-width="0.5"/>
<rect width="48" height="48" transform="matrix(1 0 0 -1 97 721)" stroke="#0000FF" stroke-opacity="0.4" stroke-width="0.5"/>
<rect width="48" height="48" transform="matrix(1 0 0 -1 145 721)" stroke="#0000FF" stroke-opacity="0.4" stroke-width="0.5"/>
<rect width="48" height="48" transform="matrix(1 0 0 -1 193 721)" stroke="#0000FF" stroke-opacity="0.4" stroke-width="0.5"/>
<rect width="48" height="48" transform="matrix(1 0 0 -1 241 721)" stroke="#0000FF" stroke-opacity="0.4" stroke-width="0.5"/>
<rect width="48" height="48" transform="matrix(1 0 0 -1 289 721)" stroke="#0000FF" stroke-opacity="0.4" stroke-width="0.5"/>
<rect width="48" height="48" transform="matrix(1 0 0 -1 337 721)" stroke="#0000FF" stroke-opacity="0.4" stroke-width="0.5"/>
<rect width="48" height="48" transform="matrix(1 0 0 -1 1 673)" stroke="#0000FF" stroke-opacity="0.4" stroke-width="0.5"/>
<rect width="48" height="48" transform="matrix(1 0 0 -1 49 673)" stroke="#0000FF" stroke-opacity="0.4" stroke-width="0.5"/>
<rect width="48" height="48" transform="matrix(1 0 0 -1 97 673)" stroke="#0000FF" stroke-opacity="0.4" stroke-width="0.5"/>
<rect width="48" height="48" transform="matrix(1 0 0 -1 145 673)" stroke="#0000FF" stroke-opacity="0.4" stroke-width="0.5"/>
<rect width="48" height="48" transform="matrix(1 0 0 -1 193 673)" stroke="#0000FF" stroke-opacity="0.4" stroke-width="0.5"/>
<rect width="48" height="48" transform="matrix(1 0 0 -1 241 673)" stroke="#0000FF" stroke-opacity="0.4" stroke-width="0.5"/>
<rect width="48" height="48" transform="matrix(1 0 0 -1 289 673)" stroke="#0000FF" stroke-opacity="0.4" stroke-width="0.5"/>
<rect width="48" height="48" transform="matrix(1 0 0 -1 337 673)" stroke="#0000FF" stroke-opacity="0.4" stroke-width="0.5"/>
<rect width="48" height="48" transform="matrix(1 0 0 -1 1 625)" stroke="#0000FF" stroke-opacity="0.4" stroke-width="0.5"/>
<rect width="48" height="48" transform="matrix(1 0 0 -1 49 625)" stroke="#0000FF" stroke-opacity="0.4" stroke-width="0.5"/>
<rect width="48" height="48" transform="matrix(1 0 0 -1 97 625)" stroke="#0000FF" stroke-opacity="0.4" stroke-width="0.5"/>
<rect width="48" height="48" transform="matrix(1 0 0 -1 145 625)" stroke="#0000FF" stroke-opacity="0.4" stroke-width="0.5"/>
<rect width="48" height="48" transform="matrix(1 0 0 -1 193 625)" stroke="#0000FF" stroke-opacity="0.4" stroke-width="0.5"/>
<rect width="48" height="48" transform="matrix(1 0 0 -1 241 625)" stroke="#0000FF" stroke-opacity="0.4" stroke-width="0.5"/>
<rect width="48" height="48" transform="matrix(1 0 0 -1 289 625)" stroke="#0000FF" stroke-opacity="0.4" stroke-width="0.5"/>
<rect width="48" height="48" transform="matrix(1 0 0 -1 337 625)" stroke="#0000FF" stroke-opacity="0.4" stroke-width="0.5"/>
<rect width="48" height="48" transform="matrix(1 0 0 -1 1 577)" stroke="#0000FF" stroke-opacity="0.4" stroke-width="0.5"/>
<rect width="48" height="48" transform="matrix(1 0 0 -1 49 577)" stroke="#0000FF" stroke-opacity="0.4" stroke-width="0.5"/>
<rect width="48" height="48" transform="matrix(1 0 0 -1 97 577)" stroke="#0000FF" stroke-opacity="0.4" stroke-width="0.5"/>
<rect width="48" height="48" transform="matrix(1 0 0 -1 145 577)" stroke="#0000FF" stroke-opacity="0.4" stroke-width="0.5"/>
<rect width="48" height="48" transform="matrix(1 0 0 -1 193 577)" stroke="#0000FF" stroke-opacity="0.4" stroke-width="0.5"/>
<rect width="48" height="48" transform="matrix(1 0 0 -1 241 577)" stroke="#0000FF" stroke-opacity="0.4" stroke-width="0.5"/>
<rect width="48" height="48" transform="matrix(1 0 0 -1 289 577)" stroke="#0000FF" stroke-opacity="0.4" stroke-width="0.5"/>
<rect width="48" height="48" transform="matrix(1 0 0 -1 337 577)" stroke="#0000FF" stroke-opacity="0.4" stroke-width="0.5"/>
<rect width="48" height="48" transform="matrix(1 0 0 -1 1 529)" stroke="#0000FF" stroke-opacity="0.4" stroke-width="0.5"/>
<rect width="48" height="48" transform="matrix(1 0 0 -1 49 529)" stroke="#0000FF" stroke-opacity="0.4" stroke-width="0.5"/>
<rect width="48" height="48" transform="matrix(1 0 0 -1 97 529)" stroke="#0000FF" stroke-opacity="0.4" stroke-width="0.5"/>
<rect width="48" height="48" transform="matrix(1 0 0 -1 145 529)" stroke="#0000FF" stroke-opacity="0.4" stroke-width="0.5"/>
<rect width="48" height="48" transform="matrix(1 0 0 -1 193 529)" stroke="#0000FF" stroke-opacity="0.4" stroke-width="0.5"/>
<rect width="48" height="48" transform="matrix(1 0 0 -1 241 529)" stroke="#0000FF" stroke-opacity="0.4" stroke-width="0.5"/>
<rect width="48" height="48" transform="matrix(1 0 0 -1 289 529)" stroke="#0000FF" stroke-opacity="0.4" stroke-width="0.5"/>
<rect width="48" height="48" transform="matrix(1 0 0 -1 337 529)" stroke="#0000FF" stroke-opacity="0.4" stroke-width="0.5"/>
<rect width="48" height="48" transform="matrix(1 0 0 -1 1 481)" stroke="#0000FF" stroke-opacity="0.4" stroke-width="0.5"/>
<rect width="48" height="48" transform="matrix(1 0 0 -1 49 481)" stroke="#0000FF" stroke-opacity="0.4" stroke-width="0.5"/>
<rect width="48" height="48" transform="matrix(1 0 0 -1 97 481)" stroke="#0000FF" stroke-opacity="0.4" stroke-width="0.5"/>
<rect width="48" height="48" transform="matrix(1 0 0 -1 145 481)" stroke="#0000FF" stroke-opacity="0.4" stroke-width="0.5"/>
<rect width="48" height="48" transform="matrix(1 0 0 -1 193 481)" stroke="#0000FF" stroke-opacity="0.4" stroke-width="0.5"/>
<rect width="48" height="48" transform="matrix(1 0 0 -1 241 481)" stroke="#0000FF" stroke-opacity="0.4" stroke-width="0.5"/>
<rect width="48" height="48" transform="matrix(1 0 0 -1 289 481)" stroke="#0000FF" stroke-opacity="0.4" stroke-width="0.5"/>
<rect width="48" height="48" transform="matrix(1 0 0 -1 337 481)" stroke="#0000FF" stroke-opacity="0.4" stroke-width="0.5"/>
<rect width="48" height="48" transform="matrix(1 0 0 -1 1 433)" stroke="#0000FF" stroke-opacity="0.4" stroke-width="0.5"/>
<rect width="48" height="48" transform="matrix(1 0 0 -1 49 433)" stroke="#0000FF" stroke-opacity="0.4" stroke-width="0.5"/>
<rect width="48" height="48" transform="matrix(1 0 0 -1 97 433)" stroke="#0000FF" stroke-opacity="0.4" stroke-width="0.5"/>
<rect width="48" height="48" transform="matrix(1 0 0 -1 145 433)" stroke="#0000FF" stroke-opacity="0.4" stroke-width="0.5"/>
<rect width="48" height="48" transform="matrix(1 0 0 -1 193 433)" stroke="#0000FF" stroke-opacity="0.4" stroke-width="0.5"/>
<rect width="48" height="48" transform="matrix(1 0 0 -1 241 433)" stroke="#0000FF" stroke-opacity="0.4" stroke-width="0.5"/>
<rect width="48" height="48" transform="matrix(1 0 0 -1 289 433)" stroke="#0000FF" stroke-opacity="0.4" stroke-width="0.5"/>
<rect width="48" height="48" transform="matrix(1 0 0 -1 337 433)" stroke="#0000FF" stroke-opacity="0.4" stroke-width="0.5"/>
<rect width="48" height="48" transform="matrix(1 0 0 -1 1 385)" stroke="#0000FF" stroke-opacity="0.4" stroke-width="0.5"/>
<rect width="48" height="48" transform="matrix(1 0 0 -1 49 385)" stroke="#0000FF" stroke-opacity="0.4" stroke-width="0.5"/>
<rect width="48" height="48" transform="matrix(1 0 0 -1 97 385)" stroke="#0000FF" stroke-opacity="0.4" stroke-width="0.5"/>
<rect width="48" height="48" transform="matrix(1 0 0 -1 145 385)" stroke="#0000FF" stroke-opacity="0.4" stroke-width="0.5"/>
<rect width="48" height="48" transform="matrix(1 0 0 -1 193 385)" stroke="#0000FF" stroke-opacity="0.4" stroke-width="0.5"/>
<rect width="48" height="48" transform="matrix(1 0 0 -1 241 385)" stroke="#0000FF" stroke-opacity="0.4" stroke-width="0.5"/>
<rect width="48" height="48" transform="matrix(1 0 0 -1 289 385)" stroke="#0000FF" stroke-opacity="0.4" stroke-width="0.5"/>
<rect width="48" height="48" transform="matrix(1 0 0 -1 337 385)" stroke="#0000FF" stroke-opacity="0.4" stroke-width="0.5"/>
<rect width="48" height="48" transform="matrix(1 0 0 -1 1 337)" stroke="#0000FF" stroke-opacity="0.4" stroke-width="0.5"/>
<rect width="48" height="48" transform="matrix(1 0 0 -1 49 337)" stroke="#0000FF" stroke-opacity="0.4" stroke-width="0.5"/>
<rect width="48" height="48" transform="matrix(1 0 0 -1 97 337)" stroke="#0000FF" stroke-opacity="0.4" stroke-width="0.5"/>
<rect width="48" height="48" transform="matrix(1 0 0 -1 145 337)" stroke="#0000FF" stroke-opacity="0.4" stroke-width="0.5"/>
<rect width="48" height="48" transform="matrix(1 0 0 -1 193 337)" stroke="#0000FF" stroke-opacity="0.4" stroke-width="0.5"/>
<rect width="48" height="48" transform="matrix(1 0 0 -1 241 337)" stroke="#0000FF" stroke-opacity="0.4" stroke-width="0.5"/>
<rect width="48" height="48" transform="matrix(1 0 0 -1 289 337)" stroke="#0000FF" stroke-opacity="0.4" stroke-width="0.5"/>
<rect width="48" height="48" transform="matrix(1 0 0 -1 337 337)" stroke="#0000FF" stroke-opacity="0.4" stroke-width="0.5"/>
<rect width="48" height="48" transform="matrix(1 0 0 -1 1 289)" stroke="#0000FF" stroke-opacity="0.4" stroke-width="0.5"/>
<rect width="48" height="48" transform="matrix(1 0 0 -1 49 289)" stroke="#0000FF" stroke-opacity="0.4" stroke-width="0.5"/>
<rect width="48" height="48" transform="matrix(1 0 0 -1 97 289)" stroke="#0000FF" stroke-opacity="0.4" stroke-width="0.5"/>
<rect width="48" height="48" transform="matrix(1 0 0 -1 145 289)" stroke="#0000FF" stroke-opacity="0.4" stroke-width="0.5"/>
<rect width="48" height="48" transform="matrix(1 0 0 -1 193 289)" stroke="#0000FF" stroke-opacity="0.4" stroke-width="0.5"/>
<rect width="48" height="48" transform="matrix(1 0 0 -1 241 289)" stroke="#0000FF" stroke-opacity="0.4" stroke-width="0.5"/>
<rect width="48" height="48" transform="matrix(1 0 0 -1 289 289)" stroke="#0000FF" stroke-opacity="0.4" stroke-width="0.5"/>
<rect width="48" height="48" transform="matrix(1 0 0 -1 337 289)" stroke="#0000FF" stroke-opacity="0.4" stroke-width="0.5"/>
<rect width="48" height="48" transform="matrix(1 0 0 -1 1 241)" stroke="#0000FF" stroke-opacity="0.4" stroke-width="0.5"/>
<rect width="48" height="48" transform="matrix(1 0 0 -1 49 241)" stroke="#0000FF" stroke-opacity="0.4" stroke-width="0.5"/>
<rect width="48" height="48" transform="matrix(1 0 0 -1 97 241)" stroke="#0000FF" stroke-opacity="0.4" stroke-width="0.5"/>
<rect width="48" height="48" transform="matrix(1 0 0 -1 145 241)" stroke="#0000FF" stroke-opacity="0.4" stroke-width="0.5"/>
<rect width="48" height="48" transform="matrix(1 0 0 -1 193 241)" stroke="#0000FF" stroke-opacity="0.4" stroke-width="0.5"/>
<rect width="48" height="48" transform="matrix(1 0 0 -1 241 241)" stroke="#0000FF" stroke-opacity="0.4" stroke-width="0.5"/>
<rect width="48" height="48" transform="matrix(1 0 0 -1 289 241)" stroke="#0000FF" stroke-opacity="0.4" stroke-width="0.5"/>
<rect width="48" height="48" transform="matrix(1 0 0 -1 337 241)" stroke="#0000FF" stroke-opacity="0.4" stroke-width="0.5"/>
<rect width="48" height="48" transform="matrix(1 0 0 -1 1 193)" stroke="#0000FF" stroke-opacity="0.4" stroke-width="0.5"/>
<rect width="48" height="48" transform="matrix(1 0 0 -1 49 193)" stroke="#0000FF" stroke-opacity="0.4" stroke-width="0.5"/>
<rect width="48" height="48" transform="matrix(1 0 0 -1 97 193)" stroke="#0000FF" stroke-opacity="0.4" stroke-width="0.5"/>
<rect width="48" height="48" transform="matrix(1 0 0 -1 145 193)" stroke="#0000FF" stroke-opacity="0.4" stroke-width="0.5"/>
<rect width="48" height="48" transform="matrix(1 0 0 -1 193 193)" stroke="#0000FF" stroke-opacity="0.4" stroke-width="0.5"/>
<rect width="48" height="48" transform="matrix(1 0 0 -1 241 193)" stroke="#0000FF" stroke-opacity="0.4" stroke-width="0.5"/>
<rect width="48" height="48" transform="matrix(1 0 0 -1 289 193)" stroke="#0000FF" stroke-opacity="0.4" stroke-width="0.5"/>
<rect width="48" height="48" transform="matrix(1 0 0 -1 337 193)" stroke="#0000FF" stroke-opacity="0.4" stroke-width="0.5"/>
<rect width="48" height="48" transform="matrix(1 0 0 -1 1 145)" stroke="#0000FF" stroke-opacity="0.4" stroke-width="0.5"/>
<rect width="48" height="48" transform="matrix(1 0 0 -1 49 145)" stroke="#0000FF" stroke-opacity="0.4" stroke-width="0.5"/>
<rect width="48" height="48" transform="matrix(1 0 0 -1 97 145)" stroke="#0000FF" stroke-opacity="0.4" stroke-width="0.5"/>
<rect width="48" height="48" transform="matrix(1 0 0 -1 145 145)" stroke="#0000FF" stroke-opacity="0.4" stroke-width="0.5"/>
<rect width="48" height="48" transform="matrix(1 0 0 -1 193 145)" stroke="#0000FF" stroke-opacity="0.4" stroke-width="0.5"/>
<rect width="48" height="48" transform="matrix(1 0 0 -1 241 145)" stroke="#0000FF" stroke-opacity="0.4" stroke-width="0.5"/>
<rect width="48" height="48" transform="matrix(1 0 0 -1 289 145)" stroke="#0000FF" stroke-opacity="0.4" stroke-width="0.5"/>
<rect width="48" height="48" transform="matrix(1 0 0 -1 337 145)" stroke="#0000FF" stroke-opacity="0.4" stroke-width="0.5"/>
<rect width="48" height="48" transform="matrix(1 0 0 -1 1 97)" stroke="#0000FF" stroke-opacity="0.4" stroke-width="0.5"/>
<rect width="48" height="48" transform="matrix(1 0 0 -1 49 97)" stroke="#0000FF" stroke-opacity="0.4" stroke-width="0.5"/>
<rect width="48" height="48" transform="matrix(1 0 0 -1 97 97)" stroke="#0000FF" stroke-opacity="0.4" stroke-width="0.5"/>
<rect width="48" height="48" transform="matrix(1 0 0 -1 145 97)" stroke="#0000FF" stroke-opacity="0.4" stroke-width="0.5"/>
<rect width="48" height="48" transform="matrix(1 0 0 -1 193 97)" stroke="#0000FF" stroke-opacity="0.4" stroke-width="0.5"/>
<rect width="48" height="48" transform="matrix(1 0 0 -1 241 97)" stroke="#0000FF" stroke-opacity="0.4" stroke-width="0.5"/>
<rect width="48" height="48" transform="matrix(1 0 0 -1 289 97)" stroke="#0000FF" stroke-opacity="0.4" stroke-width="0.5"/>
<rect width="48" height="48" transform="matrix(1 0 0 -1 337 97)" stroke="#0000FF" stroke-opacity="0.4" stroke-width="0.5"/>
<rect width="48" height="48" transform="matrix(1 0 0 -1 1 49)" stroke="#0000FF" stroke-opacity="0.4" stroke-width="0.5"/>
<rect width="48" height="48" transform="matrix(1 0 0 -1 49 49)" stroke="#0000FF" stroke-opacity="0.4" stroke-width="0.5"/>
<rect width="48" height="48" transform="matrix(1 0 0 -1 97 49)" stroke="#0000FF" stroke-opacity="0.4" stroke-width="0.5"/>
<rect width="48" height="48" transform="matrix(1 0 0 -1 145 49)" stroke="#0000FF" stroke-opacity="0.4" stroke-width="0.5"/>
<rect width="48" height="48" transform="matrix(1 0 0 -1 193 49)" stroke="#0000FF" stroke-opacity="0.4" stroke-width="0.5"/>
<rect width="48" height="48" transform="matrix(1 0 0 -1 241 49)" stroke="#0000FF" stroke-opacity="0.4" stroke-width="0.5"/>
<rect width="48" height="48" transform="matrix(1 0 0 -1 289 49)" stroke="#0000FF" stroke-opacity="0.4" stroke-width="0.5"/>
<rect width="48" height="48" transform="matrix(1 0 0 -1 337 49)" stroke="#0000FF" stroke-opacity="0.4" stroke-width="0.5"/>
<g filter="url(#filter0_f_382_348)">
<rect x="1.12205" y="-1.12205" width="93.7559" height="93.7559" transform="matrix(1 0 0 -1 337 1006.76)" stroke="url(#paint0_linear_382_348)" stroke-width="2.24409"/>
</g>
<g style="mix-blend-mode:color-dodge" filter="url(#filter1_f_382_348)">
<rect width="96" height="96" transform="matrix(1 0 0 -1 337 1009)" stroke="#0000FF" stroke-width="4.48819"/>
</g>
<g style="mix-blend-mode:color-dodge" filter="url(#filter2_f_382_348)">
<rect x="1.12205" y="-1.12205" width="93.7559" height="93.7559" transform="matrix(1 0 0 -1 337 1006.76)" stroke="url(#paint1_linear_382_348)" stroke-width="2.24409"/>
</g>
<g filter="url(#filter3_f_382_348)">
<rect x="1.12205" y="-1.12205" width="45.7559" height="45.7559" transform="matrix(1 0 0 -1 289 718.756)" stroke="url(#paint2_linear_382_348)" stroke-width="2.24409"/>
</g>
<g style="mix-blend-mode:color-dodge" filter="url(#filter4_f_382_348)">
<rect width="48" height="48" transform="matrix(1 0 0 -1 289 721)" stroke="#0000FF" stroke-width="4.48819"/>
</g>
<g style="mix-blend-mode:color-dodge" filter="url(#filter5_f_382_348)">
<rect x="1.12205" y="-1.12205" width="45.7559" height="45.7559" transform="matrix(1 0 0 -1 289 718.756)" stroke="url(#paint3_linear_382_348)" stroke-width="2.24409"/>
</g>
<g filter="url(#filter6_f_382_348)">
<rect x="335.878" y="911.878" width="45.7559" height="45.7559" transform="rotate(180 335.878 911.878)" stroke="url(#paint4_linear_382_348)" stroke-width="2.24409"/>
</g>
<g style="mix-blend-mode:color-dodge" filter="url(#filter7_f_382_348)">
<rect x="337" y="913" width="48" height="48" transform="rotate(180 337 913)" stroke="#0000FF" stroke-width="4.48819"/>
</g>
<g style="mix-blend-mode:color-dodge" filter="url(#filter8_f_382_348)">
<rect x="335.878" y="911.878" width="45.7559" height="45.7559" transform="rotate(180 335.878 911.878)" stroke="url(#paint5_linear_382_348)" stroke-width="2.24409"/>
</g>
<g filter="url(#filter9_f_382_348)">
<rect x="383.878" y="815.878" width="45.7559" height="45.7559" transform="rotate(180 383.878 815.878)" stroke="url(#paint6_linear_382_348)" stroke-width="2.24409"/>
</g>
<g style="mix-blend-mode:color-dodge" filter="url(#filter10_f_382_348)">
<rect x="385" y="817" width="48" height="48" transform="rotate(180 385 817)" stroke="#0000FF" stroke-width="4.48819"/>
</g>
<g style="mix-blend-mode:color-dodge" filter="url(#filter11_f_382_348)">
<rect x="383.878" y="815.878" width="45.7559" height="45.7559" transform="rotate(180 383.878 815.878)" stroke="url(#paint7_linear_382_348)" stroke-width="2.24409"/>
</g>
<defs>
<filter id="filter0_f_382_348" x="336.252" y="912.252" width="97.4961" height="97.4961" filterUnits="userSpaceOnUse" color-interpolation-filters="sRGB">
<feFlood flood-opacity="0" result="BackgroundImageFix"/>
<feBlend mode="normal" in="SourceGraphic" in2="BackgroundImageFix" result="shape"/>
<feGaussianBlur stdDeviation="0.374016" result="effect1_foregroundBlur_382_348"/>
</filter>
<filter id="filter1_f_382_348" x="331.766" y="907.764" width="106.469" height="106.473" filterUnits="userSpaceOnUse" color-interpolation-filters="sRGB">
<feFlood flood-opacity="0" result="BackgroundImageFix"/>
<feBlend mode="normal" in="SourceGraphic" in2="BackgroundImageFix" result="shape"/>
<feGaussianBlur stdDeviation="1.49606" result="effect1_foregroundBlur_382_348"/>
</filter>
<filter id="filter2_f_382_348" x="322.039" y="898.039" width="125.921" height="125.921" filterUnits="userSpaceOnUse" color-interpolation-filters="sRGB">
<feFlood flood-opacity="0" result="BackgroundImageFix"/>
<feBlend mode="normal" in="SourceGraphic" in2="BackgroundImageFix" result="shape"/>
<feGaussianBlur stdDeviation="7.48031" result="effect1_foregroundBlur_382_348"/>
</filter>
<filter id="filter3_f_382_348" x="288.252" y="672.252" width="49.4961" height="49.4961" filterUnits="userSpaceOnUse" color-interpolation-filters="sRGB">
<feFlood flood-opacity="0" result="BackgroundImageFix"/>
<feBlend mode="normal" in="SourceGraphic" in2="BackgroundImageFix" result="shape"/>
<feGaussianBlur stdDeviation="0.374016" result="effect1_foregroundBlur_382_348"/>
</filter>
<filter id="filter4_f_382_348" x="283.766" y="667.764" width="58.4686" height="58.4725" filterUnits="userSpaceOnUse" color-interpolation-filters="sRGB">
<feFlood flood-opacity="0" result="BackgroundImageFix"/>
<feBlend mode="normal" in="SourceGraphic" in2="BackgroundImageFix" result="shape"/>
<feGaussianBlur stdDeviation="1.49606" result="effect1_foregroundBlur_382_348"/>
</filter>
<filter id="filter5_f_382_348" x="274.039" y="658.039" width="77.9213" height="77.9213" filterUnits="userSpaceOnUse" color-interpolation-filters="sRGB">
<feFlood flood-opacity="0" result="BackgroundImageFix"/>
<feBlend mode="normal" in="SourceGraphic" in2="BackgroundImageFix" result="shape"/>
<feGaussianBlur stdDeviation="7.48031" result="effect1_foregroundBlur_382_348"/>
</filter>
<filter id="filter6_f_382_348" x="288.252" y="864.252" width="49.4961" height="49.4961" filterUnits="userSpaceOnUse" color-interpolation-filters="sRGB">
<feFlood flood-opacity="0" result="BackgroundImageFix"/>
<feBlend mode="normal" in="SourceGraphic" in2="BackgroundImageFix" result="shape"/>
<feGaussianBlur stdDeviation="0.374016" result="effect1_foregroundBlur_382_348"/>
</filter>
<filter id="filter7_f_382_348" x="283.766" y="859.764" width="58.4686" height="58.4725" filterUnits="userSpaceOnUse" color-interpolation-filters="sRGB">
<feFlood flood-opacity="0" result="BackgroundImageFix"/>
<feBlend mode="normal" in="SourceGraphic" in2="BackgroundImageFix" result="shape"/>
<feGaussianBlur stdDeviation="1.49606" result="effect1_foregroundBlur_382_348"/>
</filter>
<filter id="filter8_f_382_348" x="274.039" y="850.039" width="77.9213" height="77.9213" filterUnits="userSpaceOnUse" color-interpolation-filters="sRGB">
<feFlood flood-opacity="0" result="BackgroundImageFix"/>
<feBlend mode="normal" in="SourceGraphic" in2="BackgroundImageFix" result="shape"/>
<feGaussianBlur stdDeviation="7.48031" result="effect1_foregroundBlur_382_348"/>
</filter>
<filter id="filter9_f_382_348" x="336.252" y="768.252" width="49.4961" height="49.4961" filterUnits="userSpaceOnUse" color-interpolation-filters="sRGB">
<feFlood flood-opacity="0" result="BackgroundImageFix"/>
<feBlend mode="normal" in="SourceGraphic" in2="BackgroundImageFix" result="shape"/>
<feGaussianBlur stdDeviation="0.374016" result="effect1_foregroundBlur_382_348"/>
</filter>
<filter id="filter10_f_382_348" x="331.766" y="763.764" width="58.4686" height="58.4725" filterUnits="userSpaceOnUse" color-interpolation-filters="sRGB">
<feFlood flood-opacity="0" result="BackgroundImageFix"/>
<feBlend mode="normal" in="SourceGraphic" in2="BackgroundImageFix" result="shape"/>
<feGaussianBlur stdDeviation="1.49606" result="effect1_foregroundBlur_382_348"/>
</filter>
<filter id="filter11_f_382_348" x="322.039" y="754.039" width="77.9213" height="77.9213" filterUnits="userSpaceOnUse" color-interpolation-filters="sRGB">
<feFlood flood-opacity="0" result="BackgroundImageFix"/>
<feBlend mode="normal" in="SourceGraphic" in2="BackgroundImageFix" result="shape"/>
<feGaussianBlur stdDeviation="7.48031" result="effect1_foregroundBlur_382_348"/>
</filter>
<linearGradient id="paint0_linear_382_348" x1="48" y1="0" x2="48" y2="96" gradientUnits="userSpaceOnUse">
<stop stop-color="#0000FF"/>
<stop offset="1" stop-color="#0000FF" stop-opacity="0"/>
</linearGradient>
<linearGradient id="paint1_linear_382_348" x1="48" y1="0" x2="48" y2="96" gradientUnits="userSpaceOnUse">
<stop stop-color="#0000FF"/>
<stop offset="1" stop-color="#0000FF" stop-opacity="0"/>
</linearGradient>
<linearGradient id="paint2_linear_382_348" x1="24" y1="0" x2="24" y2="48" gradientUnits="userSpaceOnUse">
<stop stop-color="#0000FF"/>
<stop offset="1" stop-color="#0000FF" stop-opacity="0"/>
</linearGradient>
<linearGradient id="paint3_linear_382_348" x1="24" y1="0" x2="24" y2="48" gradientUnits="userSpaceOnUse">
<stop stop-color="#0000FF"/>
<stop offset="1" stop-color="#0000FF" stop-opacity="0"/>
</linearGradient>
<linearGradient id="paint4_linear_382_348" x1="361" y1="913" x2="361" y2="961" gradientUnits="userSpaceOnUse">
<stop stop-color="#0000FF"/>
<stop offset="1" stop-color="#0000FF" stop-opacity="0"/>
</linearGradient>
<linearGradient id="paint5_linear_382_348" x1="361" y1="913" x2="361" y2="961" gradientUnits="userSpaceOnUse">
<stop stop-color="#0000FF"/>
<stop offset="1" stop-color="#0000FF" stop-opacity="0"/>
</linearGradient>
<linearGradient id="paint6_linear_382_348" x1="409" y1="817" x2="409" y2="865" gradientUnits="userSpaceOnUse">
<stop stop-color="#0000FF"/>
<stop offset="1" stop-color="#0000FF" stop-opacity="0"/>
</linearGradient>
<linearGradient id="paint7_linear_382_348" x1="409" y1="817" x2="409" y2="865" gradientUnits="userSpaceOnUse">
<stop stop-color="#0000FF"/>
<stop offset="1" stop-color="#0000FF" stop-opacity="0"/>
</linearGradient>
</defs>
</svg>
