<svg width="30" height="30" viewBox="0 0 30 30" fill="none" xmlns="http://www.w3.org/2000/svg">
<g id="oui:share" clip-path="url(#clip0_882_800)">
<path id="Vector" d="M5.625 12.7688V24.7313C5.625 25.6557 6.465 26.4188 7.485 26.4188H20.64C21.6581 26.4188 22.5 25.6576 22.5 24.7313V12.7688C22.5 11.8444 21.66 11.0813 20.64 11.0813H7.485C6.46688 11.0813 5.625 11.8426 5.625 12.7688ZM11.25 9.37505V11.0813H16.875V9.37505H20.64C22.7025 9.37505 24.375 10.9088 24.375 12.7688V24.7313C24.375 26.6063 22.6875 28.1251 20.64 28.1251H7.485C5.4225 28.1251 3.75 26.5913 3.75 24.7313V12.7688C3.75 10.8938 5.4375 9.37505 7.485 9.37505H11.25ZM14.9944 2.71505L15 2.81255V17.8126C15 18.0612 14.9012 18.2996 14.7254 18.4755C14.5496 18.6513 14.3111 18.7501 14.0625 18.7501C13.8139 18.7501 13.5754 18.6513 13.3996 18.4755C13.2238 18.2996 13.125 18.0612 13.125 17.8126V2.78068L9.7125 6.3638C9.62111 6.46446 9.50968 6.5449 9.38536 6.59994C9.26104 6.65499 9.12658 6.68342 8.99063 6.68342C8.85467 6.68342 8.72021 6.65499 8.59589 6.59994C8.47157 6.5449 8.36014 6.46446 8.26875 6.3638C8.07573 6.15097 7.96881 5.87393 7.96881 5.58661C7.96881 5.29929 8.07573 5.02225 8.26875 4.80943L11.925 0.965676C12.1976 0.661086 12.5314 0.417424 12.9045 0.250604C13.2777 0.0837843 13.6819 -0.00244141 14.0906 -0.00244141C14.4994 -0.00244141 14.9035 0.0837843 15.2767 0.250604C15.6499 0.417424 15.9837 0.661086 16.2563 0.965676L19.9125 4.80943C20.106 5.02237 20.2133 5.29979 20.2133 5.58755C20.2133 5.87531 20.106 6.15274 19.9125 6.36568C19.8211 6.46634 19.7097 6.54677 19.5854 6.60182C19.461 6.65686 19.3266 6.6853 19.1906 6.6853C19.0547 6.6853 18.9202 6.65686 18.7959 6.60182C18.6716 6.54677 18.5601 6.46634 18.4688 6.36568L14.9944 2.71505Z" fill="white"/>
</g>
<defs>
<clipPath id="clip0_882_800">
<rect width="30" height="30" fill="white"/>
</clipPath>
</defs>
</svg>
