<svg width="422" height="428" viewBox="0 0 422 428" fill="none" xmlns="http://www.w3.org/2000/svg">
<path d="M33.0985 269.251C35.4008 289.037 40.0613 308.181 47.9451 326.502C55.9544 345.144 66.5312 362.056 81.7406 375.758C93.7964 386.614 107.596 393.814 123.908 395.879C138.727 397.749 153.504 399.912 168.308 401.949C184.969 404.251 201.643 406.554 218.318 408.856C234.992 411.158 251.667 413.447 268.341 415.735C283.411 417.814 298.481 419.907 313.551 421.944C321.128 422.977 328.704 423.912 335.737 424.819C336.742 424.749 337.76 424.679 338.765 424.609C351.156 423.828 362.444 420.075 372.588 412.875C383.319 405.256 391.649 395.488 398.416 384.284C408.184 368.125 413.919 350.53 417.351 332.069C419.891 318.353 420.226 304.497 420.561 290.627C420.868 277.469 420.365 264.325 420.854 251.167C421.342 238.19 420.672 225.185 421.189 212.208C421.468 205.134 421.286 198.046 421.286 190.957C421.314 178.315 421.384 165.673 419.71 153.073C416.723 130.608 410.737 109.078 400.37 88.8591C392.347 73.1613 382.258 59.0543 368.584 47.724C358.858 39.6589 348.002 33.7565 335.472 31.4542C327.923 30.0588 320.277 29.0681 312.672 27.9518C294.142 25.2169 275.611 22.5099 257.081 19.789C237.016 16.8308 216.937 13.8587 196.871 10.9006C175.913 7.81685 154.941 4.85869 134.011 1.62147C125.541 0.309835 117.127 -0.429703 108.587 0.267975C97.9825 2.1517 46.5916 15.6029 34.9962 100.58C34.7171 102.659 34.3962 104.613 34.0613 106.441C33.3776 112.803 33.0148 119.194 32.8752 125.627C32.6799 134.543 32.652 143.459 32.5683 152.39C32.4566 164.264 32.345 176.139 32.2334 188.013C32.1218 200.613 31.9404 213.213 31.8985 225.813C31.8566 240.311 31.4101 254.795 33.0985 269.251Z" fill="white"/>
<path d="M102.711 251.321C102.711 253.679 102.739 255.172 102.572 257.768C101.693 271.4 101.777 285.075 102.307 298.735C102.586 305.782 100.856 302.879 107.567 304.582C110.595 305.349 113.707 305.824 116.846 305.852C119.414 305.879 120.558 306.256 120.432 308.391C120.237 311.782 120.293 315.186 120.167 318.591C120.125 319.749 120.405 320.196 121.674 320.349C126.195 320.907 130.702 321.675 135.209 322.275C136.214 322.414 136.507 322.763 136.493 323.74C136.465 326.531 136.563 329.321 136.521 332.098C136.521 333.145 136.842 333.535 137.916 333.675C149.163 335.21 160.395 336.787 171.642 338.363C183.265 339.996 194.889 341.642 206.512 343.261C216.544 344.656 226.577 345.996 236.61 347.391C248.233 349.01 259.856 350.684 271.48 352.303C284.708 354.145 297.936 355.959 311.163 357.773C312.573 357.968 313.982 358.149 315.852 358.401C315.852 355.373 315.824 352.61 315.852 349.833C315.88 347.74 316.033 347.628 318.057 347.908C322.075 348.452 326.108 349.024 330.126 349.554C330.657 349.624 331.215 349.554 332.08 349.554V336.019C338.233 336.842 344.024 337.61 350.219 338.433V286.149C346.201 285.577 342.029 284.977 337.871 284.377C331.871 283.526 325.898 282.535 319.884 281.865C316.159 281.447 316.661 280.442 316.577 284.628C316.508 288.019 316.577 291.396 316.577 295.024C310.48 294.214 304.633 293.433 298.466 292.61V302.084C295.48 301.693 292.801 301.358 290.122 300.996C283.242 300.033 276.377 299.07 269.498 298.093C262.787 297.145 256.089 296.182 249.377 295.233C243.433 294.396 237.489 293.586 231.545 292.749C224.721 291.786 217.912 290.81 211.089 289.847C204.433 288.912 197.777 287.991 191.121 287.056C184.298 286.093 177.475 285.13 170.665 284.168C166.312 283.554 161.972 282.94 157.605 282.368C156.181 282.186 155.079 280.986 155.065 279.549C155.051 277.651 155.093 275.754 155.135 273.87C155.163 272.879 154.87 272.447 153.74 272.293C148.619 271.623 143.526 270.786 138.405 270.089C137.219 269.921 136.953 269.391 136.995 268.33C137.093 264.758 137.093 261.2 137.205 257.628C137.246 256.414 136.856 256.051 135.628 255.898C126.488 254.656 117.377 253.302 108.251 252.005C106.507 251.754 104.763 251.572 102.711 251.335V251.321Z" fill="black"/>
<path d="M0.23812 257.977C0.531144 267.409 1.75908 276.856 3.2242 286.191C5.40095 300.186 9.41956 313.749 14.8056 326.865C20.8754 341.642 28.6476 355.414 39.029 367.624C49.1732 379.54 61.0058 389.21 75.8384 394.847C81.992 397.191 88.3967 398.238 94.8711 399.117C109.229 401.07 123.588 403.052 137.932 405.033C152.904 407.084 167.862 409.136 182.82 411.201C198.713 413.391 214.62 415.582 230.514 417.759C247.076 420.047 263.639 422.322 280.202 424.582C286.328 425.405 292.453 426.466 298.607 426.926C300.867 427.094 303.142 427.15 305.416 427.122C307.746 427.164 310.091 427.094 312.435 426.87C312.602 426.857 312.784 426.843 312.951 426.829C313.9 426.731 314.835 426.647 315.784 426.55C320.877 426.229 325.984 425.615 331.077 425.168C332.626 425.043 334.175 424.931 335.737 424.819C328.705 423.912 321.128 422.977 313.551 421.945C298.481 419.908 283.411 417.815 268.342 415.736C251.667 413.447 234.993 411.159 218.318 408.856C201.644 406.554 184.969 404.252 168.309 401.949C153.504 399.912 138.727 397.749 123.908 395.88C107.597 393.814 93.7967 386.614 81.7408 375.759C66.5314 362.056 55.9547 345.145 47.9453 326.503C40.0616 308.182 35.4011 289.037 33.0988 269.251C31.4104 254.795 31.8569 240.311 31.8987 225.814C31.9406 213.214 32.122 200.614 32.2336 188.014C32.3453 176.139 32.4569 164.265 32.5685 152.39C32.6522 143.46 32.6801 134.544 32.8755 125.627C33.015 119.195 33.3778 112.804 34.0616 106.441C34.3964 104.613 34.7173 102.66 34.9964 100.581C46.5918 15.6035 97.9827 2.15228 108.587 0.268555C107.583 0.352276 106.578 0.449951 105.56 0.575533C97.4944 1.56623 89.3595 2.09647 81.2664 2.87787C74.8059 3.50578 68.4849 4.7616 62.457 7.3151C51.1267 12.1012 41.7918 19.5384 33.8383 28.8175C22.9127 41.599 15.5173 56.3339 10.2987 72.2131C9.85215 73.5666 9.43354 74.9201 9.02888 76.2875C5.79166 86.6968 3.74049 97.3574 2.40095 108.185C1.80094 112.985 1.46606 117.785 1.27071 122.599C0.893966 131.753 1.01954 140.934 0.782329 150.102C0.321861 168.744 0.224193 187.4 0.266054 206.056C0.280008 223.358 -0.320022 240.688 0.23812 257.977Z" fill="url(#paint0_linear_889_892)"/>
<path d="M68.5542 128.306C69.0844 118.972 70.8984 109.888 74.1775 101.111C77.6937 91.7202 82.6473 83.1946 89.7078 75.9806C95.5543 70.0085 102.433 65.8922 110.833 64.6922C115.285 64.0643 119.708 64.455 124.131 65.1247C131.429 66.241 138.754 67.2038 146.066 68.2643C154.257 69.4504 162.434 70.6643 170.624 71.8643C177.88 72.9248 185.136 73.9853 192.378 75.0457C198.922 75.9946 205.452 76.9434 211.997 77.8923C218.485 78.8271 224.974 79.776 231.448 80.7248C237.992 81.6737 244.522 82.6365 251.067 83.5853C258.267 84.6318 265.467 85.6504 272.667 86.7109C279.211 87.6597 285.741 88.6504 292.271 89.6132C298.816 90.576 305.346 91.5249 311.89 92.4877C318.379 93.4365 324.853 94.3993 331.341 95.3063C336.658 96.0458 341.835 97.204 346.69 99.6458C360.183 106.399 368.57 118.385 375.225 132.018C379.816 141.409 382.872 151.483 384.365 161.823C386.709 177.967 386.402 193.958 382.467 209.698C379.09 223.205 373.007 235.26 362.695 244.902C353.918 253.121 343.551 256.051 331.718 254.279C322.634 252.926 313.551 251.656 304.467 250.358C295.327 249.06 286.174 247.777 277.034 246.493C266.346 244.986 255.671 243.479 244.983 241.972C234.518 240.493 224.039 239.028 213.573 237.535C204.49 236.237 195.406 234.912 186.308 233.628C174.797 231.995 163.299 230.363 151.787 228.73C142.089 227.349 132.406 225.828 122.694 224.628C113.694 223.512 105.685 220.274 98.7078 214.539C90.4054 207.73 84.4612 199.079 79.6891 189.576C71.5123 173.307 68.1216 155.962 68.5123 137.865C68.5123 134.697 68.3588 131.516 68.5402 128.348L68.5542 128.306Z" fill="black"/>
<path d="M353.499 142.009V197.586L316.578 192.423V136.665L353.499 142.009Z" fill="white"/>
<path d="M316.578 136.665L304.382 138.186V193.846L316.578 192.423V136.665Z" fill="#BCC2CB"/>
<path d="M353.499 197.586L339.601 198.395L304.382 193.846L316.578 192.423L353.499 197.586Z" fill="#BCC2CB"/>
<path d="M156.964 115.343V170.92L120.043 165.757V109.999L156.964 115.343Z" fill="white"/>
<path d="M120.042 109.999L107.833 111.506V167.181L120.042 165.758V109.999Z" fill="#BCC2CB"/>
<path d="M156.964 170.92L143.066 171.716L107.833 167.181L120.043 165.758L156.964 170.92Z" fill="#BCC2CB"/>
<mask id="mask0_889_892" style="mask-type:alpha" maskUnits="userSpaceOnUse" x="31" y="0" width="391" height="425">
<path d="M33.0985 269.251C35.4008 289.037 40.0613 308.181 47.9451 326.502C55.9544 345.144 66.5312 362.056 81.7406 375.758C93.7964 386.614 107.597 393.814 123.908 395.879C138.727 397.749 153.504 399.912 168.308 401.949C184.969 404.251 201.643 406.554 218.318 408.856C234.992 411.158 251.667 413.447 268.341 415.735C283.411 417.814 298.481 419.907 313.551 421.944C321.128 422.977 328.704 423.912 335.737 424.819C336.742 424.749 337.76 424.679 338.765 424.609C351.156 423.828 362.444 420.075 372.588 412.875C383.319 405.256 391.649 395.488 398.416 384.284C408.184 368.125 413.919 350.53 417.351 332.069C419.891 318.353 420.226 304.497 420.561 290.627C420.868 277.469 420.365 264.325 420.854 251.167C421.342 238.19 420.672 225.185 421.189 212.208C421.468 205.134 421.286 198.046 421.286 190.957C421.314 178.315 421.384 165.673 419.71 153.073C416.723 130.608 410.737 109.078 400.37 88.8591C392.347 73.1613 382.258 59.0543 368.584 47.724C358.858 39.6589 348.002 33.7565 335.472 31.4542C327.923 30.0588 320.277 29.0681 312.672 27.9518C294.142 25.2169 275.611 22.5099 257.081 19.789C237.016 16.8308 216.937 13.8587 196.871 10.9006C175.913 7.81685 154.941 4.85869 134.011 1.62147C125.541 0.309835 117.127 -0.429703 108.587 0.267975C97.9825 2.1517 46.5916 15.6029 34.9962 100.58C34.7171 102.659 34.3962 104.613 34.0613 106.441C33.3776 112.803 33.0148 119.194 32.8752 125.627C32.6799 134.543 32.652 143.459 32.5683 152.39C32.4566 164.264 32.345 176.139 32.2334 188.013C32.1218 200.613 31.9404 213.213 31.8985 225.813C31.8566 240.311 31.4101 254.795 33.0985 269.251Z" fill="white"/>
</mask>
<g mask="url(#mask0_889_892)">
<rect x="-76.9409" y="215.003" width="577" height="361" fill="url(#paint1_linear_889_892)"/>
</g>
<mask id="mask1_889_892" style="mask-type:alpha" maskUnits="userSpaceOnUse" x="0" y="0" width="336" height="428">
<path d="M0.297211 257.977C0.59024 267.409 1.81815 276.856 3.28329 286.191C5.46002 300.186 9.47864 313.749 14.8647 326.865C20.9345 341.642 28.7067 355.414 39.0881 367.624C49.2323 379.54 61.0649 389.21 75.8975 394.847C82.051 397.191 88.4557 398.238 94.9302 399.117C109.288 401.07 123.647 403.052 137.991 405.033C152.963 407.084 167.921 409.135 182.879 411.201C198.773 413.391 214.68 415.582 230.573 417.759C247.136 420.047 263.698 422.322 280.261 424.582C286.387 425.405 292.512 426.466 298.666 426.926C300.926 427.094 303.201 427.15 305.475 427.122C307.806 427.164 310.15 427.094 312.494 426.87C312.661 426.857 312.843 426.843 313.01 426.829C313.959 426.731 314.894 426.647 315.843 426.55C320.936 426.229 326.043 425.615 331.136 425.168C332.685 425.043 334.234 424.931 335.796 424.819C328.764 423.912 321.187 422.977 313.61 421.945C298.54 419.908 283.471 417.815 268.401 415.736C251.726 413.447 235.052 411.159 218.377 408.856C201.703 406.554 185.028 404.252 168.368 401.949C153.563 399.912 138.786 397.749 123.968 395.88C107.656 393.814 93.8558 386.614 81.7999 375.759C66.5905 362.056 56.0137 345.145 48.0044 326.503C40.1206 308.182 35.4602 289.037 33.1578 269.251C31.4695 254.795 31.916 240.311 31.9578 225.814C31.9997 213.214 32.1811 200.614 32.2927 188.014C32.4044 176.139 32.516 164.265 32.6276 152.39C32.7113 143.46 32.7392 134.544 32.9346 125.627C33.0741 119.195 33.4369 112.804 34.1206 106.441C34.4555 104.613 34.7764 102.66 35.0555 100.581C46.6509 15.6035 98.0418 2.15228 108.647 0.268555C107.642 0.352276 106.637 0.449951 105.619 0.575533C97.5535 1.56623 89.4185 2.09647 81.3255 2.87787C74.865 3.50578 68.544 4.7616 62.5161 7.3151C51.1858 12.1012 41.8509 19.5384 33.8974 28.8175C22.9717 41.599 15.5764 56.3339 10.3578 72.2131C9.91122 73.5666 9.49261 74.9201 9.08795 76.2875C5.85074 86.6968 3.79956 97.3574 2.46002 108.185C1.86002 112.985 1.52515 117.785 1.3298 122.599C0.953033 131.753 1.07861 140.934 0.8414 150.102C0.380951 168.744 0.283264 187.4 0.325134 206.056C0.339081 223.358 -0.260925 240.688 0.297211 257.977Z" fill="url(#paint2_linear_889_892)"/>
</mask>
<g mask="url(#mask1_889_892)">
<rect x="-76.8818" y="215.003" width="577" height="361" fill="url(#paint3_linear_889_892)"/>
</g>
<defs>
<linearGradient id="paint0_linear_889_892" x1="167.869" y1="427.133" x2="167.869" y2="0.268555" gradientUnits="userSpaceOnUse">
<stop offset="0.15837" stop-color="#5E6165"/>
<stop offset="0.832321" stop-color="#BCC2CB"/>
</linearGradient>
<linearGradient id="paint1_linear_889_892" x1="236.145" y1="215.003" x2="236.145" y2="576.003" gradientUnits="userSpaceOnUse">
<stop stop-color="#01103B" stop-opacity="0"/>
<stop offset="0.558797"/>
</linearGradient>
<linearGradient id="paint2_linear_889_892" x1="167.928" y1="427.133" x2="167.928" y2="0.268555" gradientUnits="userSpaceOnUse">
<stop offset="0.15837" stop-color="#5E6165"/>
<stop offset="0.832321" stop-color="#BCC2CB"/>
</linearGradient>
<linearGradient id="paint3_linear_889_892" x1="236.204" y1="215.003" x2="236.204" y2="576.003" gradientUnits="userSpaceOnUse">
<stop stop-color="#01103B" stop-opacity="0"/>
<stop offset="0.558797"/>
</linearGradient>
</defs>
</svg>
