<svg width="308" height="59" viewBox="0 0 308 59" fill="none" xmlns="http://www.w3.org/2000/svg">
<rect x="2.5" y="2.5" width="303" height="54" rx="5.5" stroke="#666666" stroke-width="5"/>
<path d="M23.75 16.875V15H31.25H38.75V16.875V18.75H40.625H42.5V20.625V22.5H38.75H35V20.625V18.75H31.25H27.5V22.5V26.25H35H42.5V28.125V30H44.375H46.25V33.75V37.5H44.375H42.5V39.375V41.25H33.125H23.75V39.375V37.5H21.875H20V35.625V33.75H23.75H27.5V35.625V37.5H33.125H38.75V33.75V30H31.25H23.75V28.125V26.25H21.875H20V22.5V18.75H21.875H23.75V16.875ZM49.7 33.75V22.5H60.95H72.2V24.375V26.25H74.075H75.95V30V33.75H74.075H72.2V35.625V37.5H64.7H57.2V41.25V45H53.45H49.7V33.75ZM68.45 30V26.25H62.825H57.2V30V33.75H62.825H68.45V30ZM83.15 24.375V22.5H92.525H101.9V24.375V26.25H103.775H105.65V33.75V41.25H94.4H83.15V39.375V37.5H81.275H79.4V35.625V33.75H81.275H83.15V31.875V30H90.65H98.15V28.125V26.25H90.65H83.15V24.375ZM98.15 35.625V33.75H92.525H86.9V35.625V37.5H92.525H98.15V35.625ZM112.85 24.375V22.5H124.1H135.35V24.375V26.25H125.975H116.6V31.875V37.5H125.975H135.35V39.375V41.25H124.1H112.85V39.375V37.5H110.975H109.1V31.875V26.25H110.975H112.85V24.375ZM142.55 24.375V22.5H151.925H161.3V24.375V26.25H163.175H165.05V30V33.75H155.675H146.3V35.625V37.5H153.8H161.3V39.375V41.25H151.925H142.55V39.375V37.5H140.675H138.8V31.875V26.25H140.675H142.55V24.375ZM157.55 28.125V26.25H151.925H146.3V28.125V30H151.925H157.55V28.125ZM198.2 28.125V15H209.45H220.7V16.875V18.75H222.575H224.45V22.5V26.25H222.575H220.7V28.125V30H222.575H224.45V33.75V37.5H222.575H220.7V39.375V41.25H209.45H198.2V28.125ZM216.95 22.5V18.75H211.325H205.7V22.5V26.25H211.325H216.95V22.5ZM216.95 33.75V30H211.325H205.7V33.75V37.5H211.325H216.95V33.75ZM231.65 24.375V22.5H241.025H250.4V24.375V26.25H252.275H254.15V33.75V41.25H242.9H231.65V39.375V37.5H229.775H227.9V35.625V33.75H229.775H231.65V31.875V30H239.15H246.65V28.125V26.25H239.15H231.65V24.375ZM246.65 35.625V33.75H241.025H235.4V35.625V37.5H241.025H246.65V35.625ZM261.35 31.875V22.5H265.1H268.85V24.375V26.25H270.725H272.6V24.375V22.5H278.225H283.85V24.375V26.25H278.225H272.6V28.125V30H270.725H268.85V35.625V41.25H265.1H261.35V31.875Z" fill="#666666"/>
</svg>
